G75*
G70*
%OFA0B0*%
%FSLAX24Y24*%
%IPPOS*%
%LPD*%
%AMOC8*
5,1,8,0,0,1.08239X$1,22.5*
%
%ADD10C,0.0000*%
%ADD11C,0.0797*%
%ADD12C,0.0827*%
%ADD13C,0.0768*%
%ADD14C,0.0600*%
%ADD15C,0.0360*%
%ADD16C,0.0410*%
%ADD17C,0.0100*%
%ADD18C,0.1650*%
D10*
X000150Y000150D02*
X000150Y015150D01*
X030150Y015150D01*
X030150Y000150D01*
X000150Y000150D01*
D11*
X016573Y011067D03*
X018227Y011067D03*
X018227Y013233D03*
X016573Y013233D03*
D12*
X011554Y013233D03*
X009900Y013233D03*
X008246Y013233D03*
X008246Y011067D03*
X009900Y011067D03*
X011554Y011067D03*
D13*
X008900Y007900D03*
X006650Y007900D03*
X006650Y002400D03*
X008900Y002400D03*
D14*
X004275Y002900D03*
X004275Y003900D03*
X004275Y004900D03*
X008246Y009900D03*
X009900Y009900D03*
X011554Y009900D03*
X014025Y010275D03*
X016573Y009900D03*
X018227Y009900D03*
X021400Y012900D03*
X022400Y012900D03*
X023400Y012900D03*
X024400Y012900D03*
X025400Y012900D03*
X026400Y012900D03*
X018227Y014400D03*
X016573Y014400D03*
X011554Y014400D03*
X009900Y014400D03*
X008246Y014400D03*
X004275Y012400D03*
X004275Y011400D03*
X004275Y010400D03*
X025150Y008275D03*
X025150Y007275D03*
X025150Y006275D03*
X025150Y005275D03*
X025150Y004275D03*
X025150Y003275D03*
D15*
X019150Y003400D03*
X019150Y003900D03*
X019150Y002900D03*
X019150Y002400D03*
X019150Y001150D03*
X015650Y001400D03*
X015650Y002400D03*
X015650Y002900D03*
X015650Y003400D03*
X015650Y003900D03*
X015650Y005775D03*
X015650Y006775D03*
X015650Y007275D03*
X015650Y007775D03*
X015650Y008275D03*
X017900Y009275D03*
X019150Y008275D03*
X019150Y007775D03*
X019150Y007275D03*
X019150Y006775D03*
X019150Y005525D03*
X011650Y003150D03*
X021400Y011400D03*
X022400Y011400D03*
X023400Y011400D03*
X024400Y011400D03*
X025400Y011400D03*
X026400Y011400D03*
D16*
X013025Y004150D03*
X010525Y004150D03*
X006150Y010150D03*
X006150Y012650D03*
D17*
X004705Y012486D02*
X004705Y012314D01*
X004640Y012156D01*
X004519Y012035D01*
X004361Y011970D01*
X029850Y011970D01*
X029850Y011872D02*
X000450Y011872D01*
X000450Y011970D02*
X004189Y011970D01*
X004361Y011970D01*
X004361Y011830D02*
X004189Y011830D01*
X004031Y011765D01*
X003910Y011644D01*
X003845Y011486D01*
X003845Y011314D01*
X003910Y011156D01*
X004031Y011035D01*
X004189Y010970D01*
X004361Y010970D01*
X004519Y011035D01*
X004640Y011156D01*
X004705Y011314D01*
X004705Y011486D01*
X004640Y011644D01*
X004519Y011765D01*
X004361Y011830D01*
X004498Y011773D02*
X029850Y011773D01*
X029850Y011675D02*
X026547Y011675D01*
X026576Y011663D02*
X026462Y011710D01*
X026338Y011710D01*
X026224Y011663D01*
X026137Y011576D01*
X026090Y011462D01*
X026090Y011338D01*
X026137Y011224D01*
X026224Y011137D01*
X026338Y011090D01*
X026462Y011090D01*
X026576Y011137D01*
X026663Y011224D01*
X026710Y011338D01*
X026710Y011462D01*
X026663Y011576D01*
X026576Y011663D01*
X026662Y011576D02*
X029850Y011576D01*
X029850Y011478D02*
X026703Y011478D01*
X026710Y011379D02*
X029850Y011379D01*
X029850Y011281D02*
X026686Y011281D01*
X026620Y011182D02*
X029850Y011182D01*
X029850Y011084D02*
X018755Y011084D01*
X018755Y011172D02*
X018755Y010962D01*
X018675Y010768D01*
X018526Y010619D01*
X018332Y010539D01*
X018122Y010539D01*
X017927Y010619D01*
X017779Y010768D01*
X017698Y010962D01*
X017698Y011172D01*
X017779Y011367D01*
X017927Y011515D01*
X018122Y011596D01*
X018332Y011596D01*
X018526Y011515D01*
X018675Y011367D01*
X018755Y011172D01*
X018751Y011182D02*
X021180Y011182D01*
X021137Y011224D02*
X021224Y011137D01*
X021338Y011090D01*
X021462Y011090D01*
X021576Y011137D01*
X021663Y011224D01*
X021710Y011338D01*
X021710Y011462D01*
X021663Y011576D01*
X021576Y011663D01*
X021462Y011710D01*
X021338Y011710D01*
X021224Y011663D01*
X021137Y011576D01*
X021090Y011462D01*
X021090Y011338D01*
X021137Y011224D01*
X021114Y011281D02*
X018711Y011281D01*
X018663Y011379D02*
X021090Y011379D01*
X021097Y011478D02*
X018564Y011478D01*
X018380Y011576D02*
X021138Y011576D01*
X021253Y011675D02*
X004609Y011675D01*
X004668Y011576D02*
X008055Y011576D01*
X008138Y011611D02*
X007939Y011528D01*
X007786Y011375D01*
X007703Y011175D01*
X007703Y010959D01*
X007786Y010760D01*
X007939Y010607D01*
X008138Y010524D01*
X008355Y010524D01*
X008554Y010607D01*
X008707Y010760D01*
X008790Y010959D01*
X008790Y011175D01*
X008707Y011375D01*
X008554Y011528D01*
X008355Y011611D01*
X008138Y011611D01*
X007888Y011478D02*
X004705Y011478D01*
X004705Y011379D02*
X007790Y011379D01*
X007747Y011281D02*
X004691Y011281D01*
X004650Y011182D02*
X007706Y011182D01*
X007703Y011084D02*
X004567Y011084D01*
X004397Y010985D02*
X007703Y010985D01*
X007733Y010887D02*
X000450Y010887D01*
X000450Y010985D02*
X004153Y010985D01*
X004189Y010830D02*
X004031Y010765D01*
X003910Y010644D01*
X003845Y010486D01*
X003845Y010314D01*
X003910Y010156D01*
X004031Y010035D01*
X004189Y009970D01*
X004361Y009970D01*
X004519Y010035D01*
X004640Y010156D01*
X004705Y010314D01*
X004705Y010486D01*
X004640Y010644D01*
X004519Y010765D01*
X004361Y010830D01*
X004189Y010830D01*
X004088Y010788D02*
X000450Y010788D01*
X000450Y010690D02*
X003956Y010690D01*
X003889Y010591D02*
X000450Y010591D01*
X000450Y010493D02*
X003848Y010493D01*
X003845Y010394D02*
X000450Y010394D01*
X000450Y010296D02*
X003853Y010296D01*
X003894Y010197D02*
X000450Y010197D01*
X000450Y010099D02*
X003968Y010099D01*
X004117Y010000D02*
X000450Y010000D01*
X000450Y009902D02*
X005925Y009902D01*
X005960Y009866D02*
X006083Y009815D01*
X006217Y009815D01*
X006340Y009866D01*
X006434Y009960D01*
X006485Y010083D01*
X006485Y010217D01*
X006434Y010340D01*
X006340Y010434D01*
X006217Y010485D01*
X006083Y010485D01*
X005960Y010434D01*
X005866Y010340D01*
X005815Y010217D01*
X005815Y010083D01*
X005866Y009960D01*
X005960Y009866D01*
X005850Y010000D02*
X004433Y010000D01*
X004582Y010099D02*
X005815Y010099D01*
X005815Y010197D02*
X004656Y010197D01*
X004697Y010296D02*
X005848Y010296D01*
X005920Y010394D02*
X004705Y010394D01*
X004702Y010493D02*
X029850Y010493D01*
X029850Y010591D02*
X018458Y010591D01*
X018597Y010690D02*
X029850Y010690D01*
X029850Y010788D02*
X018683Y010788D01*
X018724Y010887D02*
X029850Y010887D01*
X029850Y010985D02*
X018755Y010985D01*
X017995Y010591D02*
X016805Y010591D01*
X016873Y010619D02*
X017021Y010768D01*
X017102Y010962D01*
X017102Y011172D01*
X017021Y011367D01*
X016873Y011515D01*
X016678Y011596D01*
X016468Y011596D01*
X016274Y011515D01*
X016125Y011367D01*
X016045Y011172D01*
X016045Y010962D01*
X016125Y010768D01*
X016274Y010619D01*
X016468Y010539D01*
X016678Y010539D01*
X016873Y010619D01*
X016943Y010690D02*
X017857Y010690D01*
X017770Y010788D02*
X017030Y010788D01*
X017071Y010887D02*
X017729Y010887D01*
X017698Y010985D02*
X017102Y010985D01*
X017102Y011084D02*
X017698Y011084D01*
X017702Y011182D02*
X017098Y011182D01*
X017057Y011281D02*
X017743Y011281D01*
X017791Y011379D02*
X017009Y011379D01*
X016911Y011478D02*
X017889Y011478D01*
X018074Y011576D02*
X016726Y011576D01*
X016420Y011576D02*
X011714Y011576D01*
X011678Y011588D02*
X011604Y011599D01*
X011604Y011117D01*
X012086Y011117D01*
X012074Y011192D01*
X012048Y011272D01*
X012010Y011347D01*
X011960Y011415D01*
X011901Y011474D01*
X011833Y011524D01*
X011758Y011562D01*
X011678Y011588D01*
X011604Y011576D02*
X011504Y011576D01*
X011504Y011599D02*
X011429Y011588D01*
X011349Y011562D01*
X011274Y011524D01*
X011206Y011474D01*
X011147Y011415D01*
X011097Y011347D01*
X011059Y011272D01*
X011033Y011192D01*
X011021Y011117D01*
X011504Y011117D01*
X011504Y011599D01*
X011393Y011576D02*
X010092Y011576D01*
X010008Y011611D02*
X009792Y011611D01*
X009592Y011528D01*
X009439Y011375D01*
X009357Y011175D01*
X009357Y010959D01*
X009439Y010760D01*
X009592Y010607D01*
X009792Y010524D01*
X010008Y010524D01*
X010208Y010607D01*
X010361Y010760D01*
X010443Y010959D01*
X010443Y011175D01*
X010361Y011375D01*
X010208Y011528D01*
X010008Y011611D01*
X010258Y011478D02*
X011211Y011478D01*
X011121Y011379D02*
X010357Y011379D01*
X010400Y011281D02*
X011064Y011281D01*
X011032Y011182D02*
X010441Y011182D01*
X010443Y011084D02*
X011504Y011084D01*
X011504Y011117D02*
X011504Y011017D01*
X011604Y011017D01*
X011604Y011117D01*
X011504Y011117D01*
X011504Y011182D02*
X011604Y011182D01*
X011604Y011084D02*
X016045Y011084D01*
X016049Y011182D02*
X012075Y011182D01*
X012044Y011281D02*
X016089Y011281D01*
X016137Y011379D02*
X011986Y011379D01*
X011896Y011478D02*
X016236Y011478D01*
X016045Y010985D02*
X012081Y010985D01*
X012086Y011017D02*
X011604Y011017D01*
X011604Y010535D01*
X011678Y010547D01*
X011758Y010573D01*
X011833Y010611D01*
X011901Y010660D01*
X011960Y010720D01*
X012010Y010788D01*
X016117Y010788D01*
X016076Y010887D02*
X012056Y010887D01*
X012048Y010863D02*
X012074Y010942D01*
X012086Y011017D01*
X012048Y010863D02*
X012010Y010788D01*
X011930Y010690D02*
X016203Y010690D01*
X016342Y010591D02*
X011794Y010591D01*
X011604Y010591D02*
X011504Y010591D01*
X011504Y010535D02*
X011504Y011017D01*
X011021Y011017D01*
X011033Y010942D01*
X011059Y010863D01*
X011097Y010788D01*
X010372Y010788D01*
X010413Y010887D02*
X011051Y010887D01*
X011027Y010985D02*
X010443Y010985D01*
X010291Y010690D02*
X011177Y010690D01*
X011206Y010660D02*
X011274Y010611D01*
X011349Y010573D01*
X011429Y010547D01*
X011504Y010535D01*
X011504Y010690D02*
X011604Y010690D01*
X011604Y010788D02*
X011504Y010788D01*
X011504Y010887D02*
X011604Y010887D01*
X011604Y010985D02*
X011504Y010985D01*
X011147Y010720D02*
X011097Y010788D01*
X011147Y010720D02*
X011206Y010660D01*
X011313Y010591D02*
X010170Y010591D01*
X009986Y010330D02*
X009814Y010330D01*
X009656Y010265D01*
X009535Y010144D01*
X009470Y009986D01*
X009470Y009814D01*
X009535Y009656D01*
X009656Y009535D01*
X009814Y009470D01*
X009986Y009470D01*
X010144Y009535D01*
X010265Y009656D01*
X010330Y009814D01*
X010330Y009986D01*
X010265Y010144D01*
X010144Y010265D01*
X009986Y010330D01*
X010069Y010296D02*
X016404Y010296D01*
X016330Y010265D02*
X016209Y010144D01*
X016143Y009986D01*
X016143Y009814D01*
X016209Y009656D01*
X016330Y009535D01*
X016488Y009470D01*
X016659Y009470D01*
X016817Y009535D01*
X016938Y009656D01*
X017003Y009814D01*
X017003Y009986D01*
X016938Y010144D01*
X016817Y010265D01*
X016659Y010330D01*
X016488Y010330D01*
X016330Y010265D01*
X016262Y010197D02*
X010211Y010197D01*
X010283Y010099D02*
X016190Y010099D01*
X016149Y010000D02*
X010324Y010000D01*
X010330Y009902D02*
X016143Y009902D01*
X016148Y009803D02*
X010325Y009803D01*
X010284Y009705D02*
X016189Y009705D01*
X016259Y009606D02*
X010214Y009606D01*
X010076Y009508D02*
X016397Y009508D01*
X016749Y009508D02*
X018051Y009508D01*
X017983Y009535D02*
X018141Y009470D01*
X018312Y009470D01*
X018470Y009535D01*
X018591Y009656D01*
X018657Y009814D01*
X018657Y009986D01*
X018591Y010144D01*
X018470Y010265D01*
X018312Y010330D01*
X018141Y010330D01*
X017983Y010265D01*
X017862Y010144D01*
X017797Y009986D01*
X017797Y009814D01*
X017862Y009656D01*
X017983Y009535D01*
X017913Y009606D02*
X016887Y009606D01*
X016958Y009705D02*
X017842Y009705D01*
X017802Y009803D02*
X016998Y009803D01*
X017003Y009902D02*
X017797Y009902D01*
X017803Y010000D02*
X016997Y010000D01*
X016956Y010099D02*
X017844Y010099D01*
X017916Y010197D02*
X016884Y010197D01*
X016742Y010296D02*
X018058Y010296D01*
X018396Y010296D02*
X029850Y010296D01*
X029850Y010394D02*
X006380Y010394D01*
X006452Y010296D02*
X008078Y010296D01*
X008003Y010265D02*
X007882Y010144D01*
X007816Y009986D01*
X007816Y009814D01*
X007882Y009656D01*
X008003Y009535D01*
X008161Y009470D01*
X008332Y009470D01*
X008490Y009535D01*
X008611Y009656D01*
X008676Y009814D01*
X008676Y009986D01*
X008611Y010144D01*
X008490Y010265D01*
X008332Y010330D01*
X008161Y010330D01*
X008003Y010265D01*
X007935Y010197D02*
X006485Y010197D01*
X006485Y010099D02*
X007863Y010099D01*
X007822Y010000D02*
X006450Y010000D01*
X006375Y009902D02*
X007816Y009902D01*
X007821Y009803D02*
X000450Y009803D01*
X000450Y009705D02*
X007862Y009705D01*
X007932Y009606D02*
X000450Y009606D01*
X000450Y009508D02*
X008070Y009508D01*
X008423Y009508D02*
X009724Y009508D01*
X009586Y009606D02*
X008561Y009606D01*
X008631Y009705D02*
X009516Y009705D01*
X009475Y009803D02*
X008672Y009803D01*
X008676Y009902D02*
X009470Y009902D01*
X009476Y010000D02*
X008670Y010000D01*
X008630Y010099D02*
X009517Y010099D01*
X009589Y010197D02*
X008558Y010197D01*
X008415Y010296D02*
X009731Y010296D01*
X009630Y010591D02*
X008517Y010591D01*
X008637Y010690D02*
X009509Y010690D01*
X009428Y010788D02*
X008719Y010788D01*
X008760Y010887D02*
X009387Y010887D01*
X009357Y010985D02*
X008790Y010985D01*
X008790Y011084D02*
X009357Y011084D01*
X009359Y011182D02*
X008787Y011182D01*
X008746Y011281D02*
X009400Y011281D01*
X009443Y011379D02*
X008703Y011379D01*
X008605Y011478D02*
X009542Y011478D01*
X009708Y011576D02*
X008438Y011576D01*
X007774Y010788D02*
X004462Y010788D01*
X004594Y010690D02*
X007856Y010690D01*
X007976Y010591D02*
X004661Y010591D01*
X003983Y011084D02*
X000450Y011084D01*
X000450Y011182D02*
X003900Y011182D01*
X003859Y011281D02*
X000450Y011281D01*
X000450Y011379D02*
X003845Y011379D01*
X003845Y011478D02*
X000450Y011478D01*
X000450Y011576D02*
X003882Y011576D01*
X003941Y011675D02*
X000450Y011675D01*
X000450Y011773D02*
X004052Y011773D01*
X004189Y011970D02*
X004031Y012035D01*
X003910Y012156D01*
X003845Y012314D01*
X003845Y012486D01*
X003910Y012644D01*
X004031Y012765D01*
X004189Y012830D01*
X004361Y012830D01*
X004519Y012765D01*
X004640Y012644D01*
X004705Y012486D01*
X004705Y012463D02*
X029850Y012463D01*
X029850Y012561D02*
X026669Y012561D01*
X026644Y012535D02*
X026486Y012470D01*
X026314Y012470D01*
X026156Y012535D01*
X026035Y012656D01*
X025970Y012814D01*
X025970Y012986D01*
X026035Y013144D01*
X026156Y013265D01*
X026314Y013330D01*
X026486Y013330D01*
X026644Y013265D01*
X026765Y013144D01*
X026830Y012986D01*
X026830Y012814D01*
X026765Y012656D01*
X026644Y012535D01*
X026766Y012660D02*
X029850Y012660D01*
X029850Y012758D02*
X026807Y012758D01*
X026830Y012857D02*
X029850Y012857D01*
X029850Y012955D02*
X029114Y012955D01*
X029090Y012945D02*
X029441Y013090D01*
X029710Y013359D01*
X029850Y013698D01*
X029850Y001602D01*
X029710Y001941D01*
X029441Y002210D01*
X029090Y002355D01*
X028710Y002355D01*
X028359Y002210D01*
X028090Y001941D01*
X027945Y001590D01*
X027945Y001210D01*
X028090Y000859D01*
X028359Y000590D01*
X028698Y000450D01*
X001602Y000450D01*
X001941Y000590D01*
X002210Y000859D01*
X002355Y001210D01*
X002355Y001590D01*
X002210Y001941D01*
X001941Y002210D01*
X001590Y002355D01*
X001210Y002355D01*
X000859Y002210D01*
X000590Y001941D01*
X000450Y001602D01*
X000450Y007448D01*
X000590Y007109D01*
X000859Y006840D01*
X001210Y006695D01*
X001590Y006695D01*
X001941Y006840D01*
X002210Y007109D01*
X002355Y007460D01*
X002355Y007840D01*
X002210Y008191D01*
X001941Y008460D01*
X001590Y008605D01*
X001210Y008605D01*
X000859Y008460D01*
X000590Y008191D01*
X000450Y007852D01*
X000450Y013698D01*
X000590Y013359D01*
X000859Y013090D01*
X001210Y012945D01*
X001590Y012945D01*
X001941Y013090D01*
X002210Y013359D01*
X002355Y013710D01*
X002355Y014090D01*
X002210Y014441D01*
X001941Y014710D01*
X001602Y014850D01*
X028698Y014850D01*
X028359Y014710D01*
X028090Y014441D01*
X027945Y014090D01*
X027945Y013710D01*
X028090Y013359D01*
X028359Y013090D01*
X028710Y012945D01*
X029090Y012945D01*
X029352Y013054D02*
X029850Y013054D01*
X029850Y013152D02*
X029503Y013152D01*
X029601Y013251D02*
X029850Y013251D01*
X029850Y013349D02*
X029700Y013349D01*
X029746Y013448D02*
X029850Y013448D01*
X029850Y013546D02*
X029787Y013546D01*
X029828Y013645D02*
X029850Y013645D01*
X028686Y012955D02*
X026830Y012955D01*
X026802Y013054D02*
X028448Y013054D01*
X028297Y013152D02*
X026756Y013152D01*
X026658Y013251D02*
X028199Y013251D01*
X028100Y013349D02*
X018751Y013349D01*
X018755Y013338D02*
X018675Y013532D01*
X018526Y013681D01*
X018332Y013761D01*
X018122Y013761D01*
X017927Y013681D01*
X017779Y013532D01*
X017698Y013338D01*
X017698Y013128D01*
X017779Y012933D01*
X017927Y012785D01*
X018122Y012704D01*
X018332Y012704D01*
X018526Y012785D01*
X018675Y012933D01*
X018755Y013128D01*
X018755Y013338D01*
X018755Y013251D02*
X021142Y013251D01*
X021156Y013265D02*
X021035Y013144D01*
X020970Y012986D01*
X020970Y012814D01*
X021035Y012656D01*
X021156Y012535D01*
X021314Y012470D01*
X021486Y012470D01*
X021644Y012535D01*
X021765Y012656D01*
X021830Y012814D01*
X021830Y012986D01*
X021765Y013144D01*
X021644Y013265D01*
X021486Y013330D01*
X021314Y013330D01*
X021156Y013265D01*
X021044Y013152D02*
X018755Y013152D01*
X018725Y013054D02*
X020998Y013054D01*
X020970Y012955D02*
X018684Y012955D01*
X018598Y012857D02*
X020970Y012857D01*
X020993Y012758D02*
X018462Y012758D01*
X017991Y012758D02*
X016809Y012758D01*
X016873Y012785D02*
X017021Y012933D01*
X017102Y013128D01*
X017102Y013338D01*
X017021Y013532D01*
X016873Y013681D01*
X016678Y013761D01*
X016468Y013761D01*
X016274Y013681D01*
X016125Y013532D01*
X016045Y013338D01*
X016045Y013128D01*
X016125Y012933D01*
X016274Y012785D01*
X016468Y012704D01*
X016678Y012704D01*
X016873Y012785D01*
X016945Y012857D02*
X017855Y012857D01*
X017770Y012955D02*
X017030Y012955D01*
X017071Y013054D02*
X017729Y013054D01*
X017698Y013152D02*
X017102Y013152D01*
X017102Y013251D02*
X017698Y013251D01*
X017703Y013349D02*
X017097Y013349D01*
X017056Y013448D02*
X017744Y013448D01*
X017793Y013546D02*
X017007Y013546D01*
X016909Y013645D02*
X017891Y013645D01*
X018078Y013743D02*
X016722Y013743D01*
X016659Y013970D02*
X016817Y014035D01*
X016938Y014156D01*
X017003Y014314D01*
X017003Y014486D01*
X016938Y014644D01*
X016817Y014765D01*
X016659Y014830D01*
X016488Y014830D01*
X016330Y014765D01*
X016209Y014644D01*
X016143Y014486D01*
X016143Y014314D01*
X016209Y014156D01*
X016330Y014035D01*
X016488Y013970D01*
X016659Y013970D01*
X016820Y014039D02*
X017980Y014039D01*
X017983Y014035D02*
X018141Y013970D01*
X018312Y013970D01*
X018470Y014035D01*
X018591Y014156D01*
X018657Y014314D01*
X018657Y014486D01*
X018591Y014644D01*
X018470Y014765D01*
X018312Y014830D01*
X018141Y014830D01*
X017983Y014765D01*
X017862Y014644D01*
X017797Y014486D01*
X017797Y014314D01*
X017862Y014156D01*
X017983Y014035D01*
X017882Y014137D02*
X016918Y014137D01*
X016971Y014236D02*
X017829Y014236D01*
X017797Y014334D02*
X017003Y014334D01*
X017003Y014433D02*
X017797Y014433D01*
X017816Y014531D02*
X016984Y014531D01*
X016944Y014630D02*
X017856Y014630D01*
X017947Y014728D02*
X016853Y014728D01*
X016667Y014827D02*
X018133Y014827D01*
X018321Y014827D02*
X028641Y014827D01*
X028404Y014728D02*
X018507Y014728D01*
X018597Y014630D02*
X028279Y014630D01*
X028180Y014531D02*
X018638Y014531D01*
X018657Y014433D02*
X028087Y014433D01*
X028046Y014334D02*
X018657Y014334D01*
X018624Y014236D02*
X028005Y014236D01*
X027964Y014137D02*
X018572Y014137D01*
X018473Y014039D02*
X027945Y014039D01*
X027945Y013940D02*
X002355Y013940D01*
X002355Y013842D02*
X027945Y013842D01*
X027945Y013743D02*
X018376Y013743D01*
X018562Y013645D02*
X027972Y013645D01*
X028013Y013546D02*
X018661Y013546D01*
X018710Y013448D02*
X028054Y013448D01*
X026142Y013251D02*
X025658Y013251D01*
X025644Y013265D02*
X025486Y013330D01*
X025314Y013330D01*
X025156Y013265D01*
X025035Y013144D01*
X024970Y012986D01*
X024970Y012814D01*
X025035Y012656D01*
X025156Y012535D01*
X025314Y012470D01*
X025486Y012470D01*
X025644Y012535D01*
X025765Y012656D01*
X025830Y012814D01*
X025830Y012986D01*
X025765Y013144D01*
X025644Y013265D01*
X025756Y013152D02*
X026044Y013152D01*
X025998Y013054D02*
X025802Y013054D01*
X025830Y012955D02*
X025970Y012955D01*
X025970Y012857D02*
X025830Y012857D01*
X025807Y012758D02*
X025993Y012758D01*
X026034Y012660D02*
X025766Y012660D01*
X025669Y012561D02*
X026131Y012561D01*
X025131Y012561D02*
X024648Y012561D01*
X024674Y012580D02*
X024720Y012626D01*
X024759Y012680D01*
X024789Y012739D01*
X024810Y012802D01*
X024817Y012850D01*
X024450Y012850D01*
X024450Y012950D01*
X024350Y012950D01*
X024350Y013317D01*
X024302Y013310D01*
X024239Y013289D01*
X024180Y013259D01*
X024126Y013220D01*
X024080Y013174D01*
X024041Y013120D01*
X024011Y013061D01*
X023990Y012998D01*
X023983Y012950D01*
X024350Y012950D01*
X024350Y012850D01*
X023983Y012850D01*
X023990Y012802D01*
X024011Y012739D01*
X024041Y012680D01*
X024080Y012626D01*
X024126Y012580D01*
X024180Y012541D01*
X024239Y012511D01*
X024302Y012490D01*
X024350Y012483D01*
X024350Y012850D01*
X024450Y012850D01*
X024450Y012483D01*
X024498Y012490D01*
X024561Y012511D01*
X024620Y012541D01*
X024674Y012580D01*
X024744Y012660D02*
X025034Y012660D01*
X024993Y012758D02*
X024795Y012758D01*
X024970Y012857D02*
X024450Y012857D01*
X024450Y012950D02*
X024817Y012950D01*
X024810Y012998D01*
X024789Y013061D01*
X024759Y013120D01*
X024720Y013174D01*
X024674Y013220D01*
X024620Y013259D01*
X024561Y013289D01*
X024498Y013310D01*
X024450Y013317D01*
X024450Y012950D01*
X024450Y012955D02*
X024350Y012955D01*
X024350Y012857D02*
X023830Y012857D01*
X023830Y012814D02*
X023765Y012656D01*
X023644Y012535D01*
X023486Y012470D01*
X023314Y012470D01*
X023156Y012535D01*
X023035Y012656D01*
X022970Y012814D01*
X022970Y012986D01*
X023035Y013144D01*
X023156Y013265D01*
X023314Y013330D01*
X023486Y013330D01*
X023644Y013265D01*
X023765Y013144D01*
X023830Y012986D01*
X023830Y012814D01*
X023807Y012758D02*
X024005Y012758D01*
X024056Y012660D02*
X023766Y012660D01*
X023669Y012561D02*
X024152Y012561D01*
X024350Y012561D02*
X024450Y012561D01*
X024450Y012660D02*
X024350Y012660D01*
X024350Y012758D02*
X024450Y012758D01*
X024450Y013054D02*
X024350Y013054D01*
X024350Y013152D02*
X024450Y013152D01*
X024450Y013251D02*
X024350Y013251D01*
X024168Y013251D02*
X023658Y013251D01*
X023756Y013152D02*
X024064Y013152D01*
X024008Y013054D02*
X023802Y013054D01*
X023830Y012955D02*
X023983Y012955D01*
X024632Y013251D02*
X025142Y013251D01*
X025044Y013152D02*
X024736Y013152D01*
X024792Y013054D02*
X024998Y013054D01*
X024970Y012955D02*
X024817Y012955D01*
X023142Y013251D02*
X022632Y013251D01*
X022620Y013259D02*
X022674Y013220D01*
X022720Y013174D01*
X022759Y013120D01*
X022789Y013061D01*
X022810Y012998D01*
X022817Y012950D01*
X022450Y012950D01*
X022350Y012950D01*
X022350Y013317D01*
X022302Y013310D01*
X022239Y013289D01*
X022180Y013259D01*
X022126Y013220D01*
X022080Y013174D01*
X022041Y013120D01*
X022011Y013061D01*
X021990Y012998D01*
X021983Y012950D01*
X022350Y012950D01*
X022350Y012850D01*
X021983Y012850D01*
X021990Y012802D01*
X022011Y012739D01*
X022041Y012680D01*
X022080Y012626D01*
X022126Y012580D01*
X022180Y012541D01*
X022239Y012511D01*
X022302Y012490D01*
X022350Y012483D01*
X022350Y012850D01*
X022450Y012850D01*
X022450Y012950D01*
X022450Y013317D01*
X022498Y013310D01*
X022561Y013289D01*
X022620Y013259D01*
X022736Y013152D02*
X023044Y013152D01*
X022998Y013054D02*
X022792Y013054D01*
X022817Y012955D02*
X022970Y012955D01*
X022970Y012857D02*
X022450Y012857D01*
X022450Y012850D02*
X022817Y012850D01*
X022810Y012802D01*
X022789Y012739D01*
X022759Y012680D01*
X022720Y012626D01*
X022674Y012580D01*
X022620Y012541D01*
X022561Y012511D01*
X022498Y012490D01*
X022450Y012483D01*
X022450Y012850D01*
X022450Y012758D02*
X022350Y012758D01*
X022350Y012660D02*
X022450Y012660D01*
X022450Y012561D02*
X022350Y012561D01*
X022152Y012561D02*
X021669Y012561D01*
X021766Y012660D02*
X022056Y012660D01*
X022005Y012758D02*
X021807Y012758D01*
X021830Y012857D02*
X022350Y012857D01*
X022350Y012955D02*
X022450Y012955D01*
X022450Y013054D02*
X022350Y013054D01*
X022350Y013152D02*
X022450Y013152D01*
X022450Y013251D02*
X022350Y013251D01*
X022168Y013251D02*
X021658Y013251D01*
X021756Y013152D02*
X022064Y013152D01*
X022008Y013054D02*
X021802Y013054D01*
X021830Y012955D02*
X021983Y012955D01*
X022648Y012561D02*
X023131Y012561D01*
X023034Y012660D02*
X022744Y012660D01*
X022795Y012758D02*
X022993Y012758D01*
X021131Y012561D02*
X004674Y012561D01*
X004624Y012660D02*
X021034Y012660D01*
X021547Y011675D02*
X023253Y011675D01*
X023224Y011663D02*
X023137Y011576D01*
X023090Y011462D01*
X023090Y011338D01*
X023137Y011224D01*
X023224Y011137D01*
X023338Y011090D01*
X023462Y011090D01*
X023576Y011137D01*
X023663Y011224D01*
X023710Y011338D01*
X023710Y011462D01*
X023663Y011576D01*
X023576Y011663D01*
X023462Y011710D01*
X023338Y011710D01*
X023224Y011663D01*
X023138Y011576D02*
X021662Y011576D01*
X021703Y011478D02*
X023097Y011478D01*
X023090Y011379D02*
X021710Y011379D01*
X021686Y011281D02*
X023114Y011281D01*
X023180Y011182D02*
X021620Y011182D01*
X023547Y011675D02*
X025253Y011675D01*
X025224Y011663D02*
X025137Y011576D01*
X025090Y011462D01*
X025090Y011338D01*
X025137Y011224D01*
X025224Y011137D01*
X025338Y011090D01*
X025462Y011090D01*
X025576Y011137D01*
X025663Y011224D01*
X025710Y011338D01*
X025710Y011462D01*
X025663Y011576D01*
X025576Y011663D01*
X025462Y011710D01*
X025338Y011710D01*
X025224Y011663D01*
X025138Y011576D02*
X023662Y011576D01*
X023703Y011478D02*
X025097Y011478D01*
X025090Y011379D02*
X023710Y011379D01*
X023686Y011281D02*
X025114Y011281D01*
X025180Y011182D02*
X023620Y011182D01*
X025547Y011675D02*
X026253Y011675D01*
X026138Y011576D02*
X025662Y011576D01*
X025703Y011478D02*
X026097Y011478D01*
X026090Y011379D02*
X025710Y011379D01*
X025686Y011281D02*
X026114Y011281D01*
X026180Y011182D02*
X025620Y011182D01*
X029850Y012069D02*
X004552Y012069D01*
X004644Y012167D02*
X029850Y012167D01*
X029850Y012266D02*
X004685Y012266D01*
X004705Y012364D02*
X029850Y012364D01*
X029850Y010197D02*
X018538Y010197D01*
X018610Y010099D02*
X029850Y010099D01*
X029850Y010000D02*
X018651Y010000D01*
X018657Y009902D02*
X029850Y009902D01*
X029850Y009803D02*
X018652Y009803D01*
X018611Y009705D02*
X029850Y009705D01*
X029850Y009606D02*
X018541Y009606D01*
X018403Y009508D02*
X029850Y009508D01*
X029850Y009409D02*
X000450Y009409D01*
X000450Y009311D02*
X029850Y009311D01*
X029850Y009212D02*
X000450Y009212D01*
X000450Y009114D02*
X029850Y009114D01*
X029850Y009015D02*
X000450Y009015D01*
X000450Y008917D02*
X029850Y008917D01*
X029850Y008818D02*
X000450Y008818D01*
X000450Y008720D02*
X029850Y008720D01*
X029850Y008621D02*
X000450Y008621D01*
X000450Y008523D02*
X001011Y008523D01*
X000823Y008424D02*
X000450Y008424D01*
X000450Y008326D02*
X000725Y008326D01*
X000626Y008227D02*
X000450Y008227D01*
X000450Y008129D02*
X000565Y008129D01*
X000524Y008030D02*
X000450Y008030D01*
X000450Y007932D02*
X000483Y007932D01*
X000454Y007439D02*
X000450Y007439D01*
X000450Y007341D02*
X000495Y007341D01*
X000535Y007242D02*
X000450Y007242D01*
X000450Y007144D02*
X000576Y007144D01*
X000654Y007045D02*
X000450Y007045D01*
X000450Y006947D02*
X000753Y006947D01*
X000851Y006848D02*
X000450Y006848D01*
X000450Y006750D02*
X001078Y006750D01*
X000450Y006651D02*
X015366Y006651D01*
X015387Y006599D02*
X015340Y006713D01*
X015340Y006837D01*
X015387Y006951D01*
X015462Y007025D01*
X015387Y007099D01*
X015340Y007213D01*
X015340Y007337D01*
X015387Y007451D01*
X015462Y007525D01*
X015387Y007599D01*
X015340Y007713D01*
X015340Y007837D01*
X015387Y007951D01*
X015462Y008025D01*
X015387Y008099D01*
X015340Y008213D01*
X015340Y008337D01*
X015387Y008451D01*
X015474Y008538D01*
X015588Y008585D01*
X015712Y008585D01*
X015826Y008538D01*
X015913Y008451D01*
X015960Y008337D01*
X015960Y008213D01*
X015913Y008099D01*
X015838Y008025D01*
X015913Y007951D01*
X015960Y007837D01*
X015960Y007713D01*
X015913Y007599D01*
X015838Y007525D01*
X015913Y007451D01*
X015960Y007337D01*
X015960Y007213D01*
X015913Y007099D01*
X015838Y007025D01*
X015913Y006951D01*
X015960Y006837D01*
X015960Y006713D01*
X015913Y006599D01*
X015826Y006512D01*
X015712Y006465D01*
X015588Y006465D01*
X015474Y006512D01*
X015387Y006599D01*
X015434Y006553D02*
X000450Y006553D01*
X000450Y006454D02*
X024759Y006454D01*
X024785Y006519D02*
X024720Y006361D01*
X024720Y006189D01*
X024785Y006031D01*
X024906Y005910D01*
X025064Y005845D01*
X025236Y005845D01*
X025394Y005910D01*
X025515Y006031D01*
X025580Y006189D01*
X025580Y006361D01*
X025515Y006519D01*
X025394Y006640D01*
X025236Y006705D01*
X025064Y006705D01*
X024906Y006640D01*
X024785Y006519D01*
X024819Y006553D02*
X019366Y006553D01*
X019326Y006512D02*
X019413Y006599D01*
X019460Y006713D01*
X019460Y006837D01*
X019413Y006951D01*
X019338Y007025D01*
X019413Y007099D01*
X019460Y007213D01*
X019460Y007337D01*
X019413Y007451D01*
X019338Y007525D01*
X019413Y007599D01*
X019460Y007713D01*
X019460Y007837D01*
X019413Y007951D01*
X019338Y008025D01*
X019413Y008099D01*
X019460Y008213D01*
X019460Y008337D01*
X019413Y008451D01*
X019326Y008538D01*
X019212Y008585D01*
X019088Y008585D01*
X018974Y008538D01*
X018887Y008451D01*
X018840Y008337D01*
X018840Y008213D01*
X018887Y008099D01*
X018962Y008025D01*
X018887Y007951D01*
X018840Y007837D01*
X018840Y007713D01*
X018887Y007599D01*
X018962Y007525D01*
X018887Y007451D01*
X018840Y007337D01*
X018840Y007213D01*
X018887Y007099D01*
X018962Y007025D01*
X018887Y006951D01*
X018840Y006837D01*
X018840Y006713D01*
X018887Y006599D01*
X018974Y006512D01*
X019088Y006465D01*
X019212Y006465D01*
X019326Y006512D01*
X019434Y006651D02*
X024934Y006651D01*
X025057Y006848D02*
X019455Y006848D01*
X019460Y006750D02*
X029850Y006750D01*
X029850Y006848D02*
X025243Y006848D01*
X025236Y006845D02*
X025394Y006910D01*
X025515Y007031D01*
X025580Y007189D01*
X025580Y007361D01*
X025515Y007519D01*
X025394Y007640D01*
X025236Y007705D01*
X025064Y007705D01*
X024906Y007640D01*
X024785Y007519D01*
X024720Y007361D01*
X024720Y007189D01*
X024785Y007031D01*
X024906Y006910D01*
X025064Y006845D01*
X025236Y006845D01*
X025430Y006947D02*
X029850Y006947D01*
X029850Y007045D02*
X025520Y007045D01*
X025561Y007144D02*
X029850Y007144D01*
X029850Y007242D02*
X025580Y007242D01*
X025580Y007341D02*
X029850Y007341D01*
X029850Y007439D02*
X025547Y007439D01*
X025496Y007538D02*
X029850Y007538D01*
X029850Y007636D02*
X025397Y007636D01*
X024903Y007636D02*
X019428Y007636D01*
X019460Y007735D02*
X029850Y007735D01*
X029850Y007833D02*
X019460Y007833D01*
X019421Y007932D02*
X029850Y007932D01*
X029850Y008030D02*
X019343Y008030D01*
X019425Y008129D02*
X029850Y008129D01*
X029850Y008227D02*
X019460Y008227D01*
X019460Y008326D02*
X029850Y008326D01*
X029850Y008424D02*
X019424Y008424D01*
X019341Y008523D02*
X029850Y008523D01*
X029850Y006651D02*
X025366Y006651D01*
X025481Y006553D02*
X029850Y006553D01*
X029850Y006454D02*
X025541Y006454D01*
X025580Y006356D02*
X029850Y006356D01*
X029850Y006257D02*
X025580Y006257D01*
X025567Y006159D02*
X029850Y006159D01*
X029850Y006060D02*
X025526Y006060D01*
X025445Y005962D02*
X029850Y005962D01*
X029850Y005863D02*
X025279Y005863D01*
X025236Y005705D02*
X025064Y005705D01*
X024906Y005640D01*
X024785Y005519D01*
X024720Y005361D01*
X024720Y005189D01*
X024785Y005031D01*
X024906Y004910D01*
X025064Y004845D01*
X025236Y004845D01*
X025394Y004910D01*
X025515Y005031D01*
X025580Y005189D01*
X025580Y005361D01*
X025515Y005519D01*
X025394Y005640D01*
X025236Y005705D01*
X025330Y005666D02*
X029850Y005666D01*
X029850Y005568D02*
X025466Y005568D01*
X025535Y005469D02*
X029850Y005469D01*
X029850Y005371D02*
X025576Y005371D01*
X025580Y005272D02*
X029850Y005272D01*
X029850Y005174D02*
X025573Y005174D01*
X025533Y005075D02*
X029850Y005075D01*
X029850Y004977D02*
X025460Y004977D01*
X025315Y004878D02*
X029850Y004878D01*
X029850Y004780D02*
X004691Y004780D01*
X004705Y004814D02*
X004640Y004656D01*
X004519Y004535D01*
X004361Y004470D01*
X004189Y004470D01*
X004031Y004535D01*
X003910Y004656D01*
X003845Y004814D01*
X003845Y004986D01*
X003910Y005144D01*
X004031Y005265D01*
X004189Y005330D01*
X004361Y005330D01*
X004519Y005265D01*
X004640Y005144D01*
X004705Y004986D01*
X004705Y004814D01*
X004705Y004878D02*
X024985Y004878D01*
X024840Y004977D02*
X004705Y004977D01*
X004668Y005075D02*
X024767Y005075D01*
X024727Y005174D02*
X004610Y005174D01*
X004501Y005272D02*
X024720Y005272D01*
X024724Y005371D02*
X000450Y005371D01*
X000450Y005469D02*
X024765Y005469D01*
X024834Y005568D02*
X000450Y005568D01*
X000450Y005666D02*
X024970Y005666D01*
X025021Y005863D02*
X000450Y005863D01*
X000450Y005765D02*
X029850Y005765D01*
X029850Y004681D02*
X025293Y004681D01*
X025236Y004705D02*
X025064Y004705D01*
X024906Y004640D01*
X024785Y004519D01*
X024720Y004361D01*
X024720Y004189D01*
X024785Y004031D01*
X024906Y003910D01*
X025064Y003845D01*
X025236Y003845D01*
X025394Y003910D01*
X025515Y004031D01*
X025580Y004189D01*
X025580Y004361D01*
X025515Y004519D01*
X025394Y004640D01*
X025236Y004705D01*
X025007Y004681D02*
X004650Y004681D01*
X004566Y004583D02*
X024849Y004583D01*
X024771Y004484D02*
X013094Y004484D01*
X013092Y004485D02*
X012958Y004485D01*
X012835Y004434D01*
X012741Y004340D01*
X012690Y004217D01*
X012690Y004083D01*
X012741Y003960D01*
X012835Y003866D01*
X012958Y003815D01*
X013092Y003815D01*
X013215Y003866D01*
X013309Y003960D01*
X013360Y004083D01*
X013360Y004217D01*
X013309Y004340D01*
X013215Y004434D01*
X013092Y004485D01*
X012956Y004484D02*
X010594Y004484D01*
X010592Y004485D02*
X010458Y004485D01*
X010335Y004434D01*
X010241Y004340D01*
X010190Y004217D01*
X010190Y004083D01*
X010241Y003960D01*
X010335Y003866D01*
X010458Y003815D01*
X010592Y003815D01*
X010715Y003866D01*
X010809Y003960D01*
X010860Y004083D01*
X010860Y004217D01*
X010809Y004340D01*
X010715Y004434D01*
X010592Y004485D01*
X010456Y004484D02*
X004394Y004484D01*
X004361Y004330D02*
X004189Y004330D01*
X004031Y004265D01*
X003910Y004144D01*
X003845Y003986D01*
X003845Y003814D01*
X003910Y003656D01*
X004031Y003535D01*
X004189Y003470D01*
X004361Y003470D01*
X004519Y003535D01*
X004640Y003656D01*
X004705Y003814D01*
X004705Y003986D01*
X004640Y004144D01*
X004519Y004265D01*
X004361Y004330D01*
X004464Y004287D02*
X010219Y004287D01*
X010190Y004189D02*
X004595Y004189D01*
X004662Y004090D02*
X010190Y004090D01*
X010228Y003992D02*
X004703Y003992D01*
X004705Y003893D02*
X010308Y003893D01*
X010742Y003893D02*
X012808Y003893D01*
X012728Y003992D02*
X010822Y003992D01*
X010860Y004090D02*
X012690Y004090D01*
X012690Y004189D02*
X010860Y004189D01*
X010831Y004287D02*
X012719Y004287D01*
X012787Y004386D02*
X010763Y004386D01*
X010287Y004386D02*
X000450Y004386D01*
X000450Y004484D02*
X004156Y004484D01*
X003984Y004583D02*
X000450Y004583D01*
X000450Y004681D02*
X003900Y004681D01*
X003859Y004780D02*
X000450Y004780D01*
X000450Y004878D02*
X003845Y004878D01*
X003845Y004977D02*
X000450Y004977D01*
X000450Y005075D02*
X003882Y005075D01*
X003940Y005174D02*
X000450Y005174D01*
X000450Y005272D02*
X004049Y005272D01*
X004086Y004287D02*
X000450Y004287D01*
X000450Y004189D02*
X003955Y004189D01*
X003888Y004090D02*
X000450Y004090D01*
X000450Y003992D02*
X003847Y003992D01*
X003845Y003893D02*
X000450Y003893D01*
X000450Y003795D02*
X003853Y003795D01*
X003894Y003696D02*
X000450Y003696D01*
X000450Y003598D02*
X003969Y003598D01*
X004119Y003499D02*
X000450Y003499D01*
X000450Y003401D02*
X011462Y003401D01*
X011474Y003413D02*
X011387Y003326D01*
X011340Y003212D01*
X011340Y003088D01*
X011387Y002974D01*
X011474Y002887D01*
X011588Y002840D01*
X011712Y002840D01*
X011826Y002887D01*
X011913Y002974D01*
X011960Y003088D01*
X011960Y003212D01*
X011913Y003326D01*
X011826Y003413D01*
X011712Y003460D01*
X011588Y003460D01*
X011474Y003413D01*
X011377Y003302D02*
X004428Y003302D01*
X004361Y003330D02*
X004189Y003330D01*
X004031Y003265D01*
X003910Y003144D01*
X003845Y002986D01*
X003845Y002814D01*
X003910Y002656D01*
X004031Y002535D01*
X004189Y002470D01*
X004361Y002470D01*
X004519Y002535D01*
X004640Y002656D01*
X004705Y002814D01*
X004705Y002986D01*
X004640Y003144D01*
X004519Y003265D01*
X004361Y003330D01*
X004431Y003499D02*
X015355Y003499D01*
X015340Y003462D02*
X015340Y003338D01*
X015387Y003224D01*
X015462Y003150D01*
X015387Y003076D01*
X015340Y002962D01*
X015340Y002838D01*
X015387Y002724D01*
X015462Y002650D01*
X015387Y002576D01*
X015340Y002462D01*
X015340Y002338D01*
X015387Y002224D01*
X015474Y002137D01*
X015588Y002090D01*
X015712Y002090D01*
X015826Y002137D01*
X015913Y002224D01*
X015960Y002338D01*
X015960Y002462D01*
X015913Y002576D01*
X015838Y002650D01*
X015913Y002724D01*
X015960Y002838D01*
X015960Y002962D01*
X015913Y003076D01*
X015838Y003150D01*
X015913Y003224D01*
X015960Y003338D01*
X015960Y003462D01*
X015913Y003576D01*
X015838Y003650D01*
X015913Y003724D01*
X015960Y003838D01*
X015960Y003962D01*
X015913Y004076D01*
X015826Y004163D01*
X015712Y004210D01*
X015588Y004210D01*
X015474Y004163D01*
X015387Y004076D01*
X015340Y003962D01*
X015340Y003838D01*
X015387Y003724D01*
X015462Y003650D01*
X015387Y003576D01*
X015340Y003462D01*
X015340Y003401D02*
X011838Y003401D01*
X011923Y003302D02*
X015355Y003302D01*
X015408Y003204D02*
X011960Y003204D01*
X011960Y003105D02*
X015417Y003105D01*
X015359Y003007D02*
X011926Y003007D01*
X011846Y002908D02*
X015340Y002908D01*
X015352Y002810D02*
X009217Y002810D01*
X009191Y002836D02*
X009002Y002914D01*
X008798Y002914D01*
X008609Y002836D01*
X008464Y002691D01*
X008386Y002502D01*
X008386Y002298D01*
X008464Y002109D01*
X008609Y001964D01*
X008798Y001886D01*
X009002Y001886D01*
X009191Y001964D01*
X009336Y002109D01*
X009414Y002298D01*
X009414Y002502D01*
X009336Y002691D01*
X009191Y002836D01*
X009316Y002711D02*
X015401Y002711D01*
X015424Y002613D02*
X009368Y002613D01*
X009409Y002514D02*
X015362Y002514D01*
X015340Y002416D02*
X009414Y002416D01*
X009414Y002317D02*
X015349Y002317D01*
X015393Y002219D02*
X009381Y002219D01*
X009340Y002120D02*
X015516Y002120D01*
X015784Y002120D02*
X019016Y002120D01*
X018974Y002137D02*
X019088Y002090D01*
X019212Y002090D01*
X019326Y002137D01*
X019413Y002224D01*
X019460Y002338D01*
X019460Y002462D01*
X019413Y002576D01*
X019338Y002650D01*
X019413Y002724D01*
X019460Y002838D01*
X019460Y002962D01*
X019413Y003076D01*
X019338Y003150D01*
X019413Y003224D01*
X019460Y003338D01*
X019460Y003462D01*
X019413Y003576D01*
X019338Y003650D01*
X019413Y003724D01*
X019460Y003838D01*
X019460Y003962D01*
X019413Y004076D01*
X019326Y004163D01*
X019212Y004210D01*
X019088Y004210D01*
X018974Y004163D01*
X018887Y004076D01*
X018840Y003962D01*
X018840Y003838D01*
X018887Y003724D01*
X018962Y003650D01*
X018887Y003576D01*
X018840Y003462D01*
X018840Y003338D01*
X018887Y003224D01*
X018962Y003150D01*
X018887Y003076D01*
X018840Y002962D01*
X018840Y002838D01*
X018887Y002724D01*
X018962Y002650D01*
X018887Y002576D01*
X018840Y002462D01*
X018840Y002338D01*
X018887Y002224D01*
X018974Y002137D01*
X018893Y002219D02*
X015907Y002219D01*
X015951Y002317D02*
X018849Y002317D01*
X018840Y002416D02*
X015960Y002416D01*
X015938Y002514D02*
X018862Y002514D01*
X018924Y002613D02*
X015876Y002613D01*
X015899Y002711D02*
X018901Y002711D01*
X018852Y002810D02*
X015948Y002810D01*
X015960Y002908D02*
X018840Y002908D01*
X018859Y003007D02*
X015941Y003007D01*
X015883Y003105D02*
X018917Y003105D01*
X018908Y003204D02*
X015892Y003204D01*
X015945Y003302D02*
X018855Y003302D01*
X018840Y003401D02*
X015960Y003401D01*
X015945Y003499D02*
X018855Y003499D01*
X018909Y003598D02*
X015891Y003598D01*
X015884Y003696D02*
X018916Y003696D01*
X018858Y003795D02*
X015942Y003795D01*
X015960Y003893D02*
X018840Y003893D01*
X018852Y003992D02*
X015948Y003992D01*
X015898Y004090D02*
X018902Y004090D01*
X019036Y004189D02*
X015764Y004189D01*
X015536Y004189D02*
X013360Y004189D01*
X013360Y004090D02*
X015402Y004090D01*
X015352Y003992D02*
X013322Y003992D01*
X013242Y003893D02*
X015340Y003893D01*
X015358Y003795D02*
X004697Y003795D01*
X004656Y003696D02*
X015416Y003696D01*
X015409Y003598D02*
X004581Y003598D01*
X004122Y003302D02*
X000450Y003302D01*
X000450Y003204D02*
X003970Y003204D01*
X003894Y003105D02*
X000450Y003105D01*
X000450Y003007D02*
X003854Y003007D01*
X003845Y002908D02*
X000450Y002908D01*
X000450Y002810D02*
X003847Y002810D01*
X003888Y002711D02*
X000450Y002711D01*
X000450Y002613D02*
X003954Y002613D01*
X004083Y002514D02*
X000450Y002514D01*
X000450Y002416D02*
X006136Y002416D01*
X006136Y002502D02*
X006136Y002298D01*
X006214Y002109D01*
X006359Y001964D01*
X006548Y001886D01*
X006752Y001886D01*
X006941Y001964D01*
X007086Y002109D01*
X007164Y002298D01*
X007164Y002502D01*
X007086Y002691D01*
X006941Y002836D01*
X006752Y002914D01*
X006548Y002914D01*
X006359Y002836D01*
X006214Y002691D01*
X006136Y002502D01*
X006141Y002514D02*
X004467Y002514D01*
X004596Y002613D02*
X006182Y002613D01*
X006234Y002711D02*
X004662Y002711D01*
X004703Y002810D02*
X006333Y002810D01*
X006534Y002908D02*
X004705Y002908D01*
X004696Y003007D02*
X011374Y003007D01*
X011340Y003105D02*
X004656Y003105D01*
X004580Y003204D02*
X011340Y003204D01*
X011454Y002908D02*
X009016Y002908D01*
X008784Y002908D02*
X006766Y002908D01*
X006967Y002810D02*
X008583Y002810D01*
X008484Y002711D02*
X007066Y002711D01*
X007118Y002613D02*
X008432Y002613D01*
X008391Y002514D02*
X007159Y002514D01*
X007164Y002416D02*
X008386Y002416D01*
X008386Y002317D02*
X007164Y002317D01*
X007131Y002219D02*
X008419Y002219D01*
X008460Y002120D02*
X007090Y002120D01*
X006998Y002022D02*
X008552Y002022D01*
X008709Y001923D02*
X006841Y001923D01*
X006459Y001923D02*
X002217Y001923D01*
X002258Y001825D02*
X028042Y001825D01*
X028083Y001923D02*
X009091Y001923D01*
X009248Y002022D02*
X028171Y002022D01*
X028269Y002120D02*
X019284Y002120D01*
X019407Y002219D02*
X028381Y002219D01*
X028618Y002317D02*
X019451Y002317D01*
X019460Y002416D02*
X029850Y002416D01*
X029850Y002514D02*
X019438Y002514D01*
X019376Y002613D02*
X029850Y002613D01*
X029850Y002711D02*
X019399Y002711D01*
X019448Y002810D02*
X029850Y002810D01*
X029850Y002908D02*
X025388Y002908D01*
X025394Y002910D02*
X025515Y003031D01*
X025580Y003189D01*
X025580Y003361D01*
X025515Y003519D01*
X025394Y003640D01*
X025236Y003705D01*
X025064Y003705D01*
X024906Y003640D01*
X024785Y003519D01*
X024720Y003361D01*
X024720Y003189D01*
X024785Y003031D01*
X024906Y002910D01*
X025064Y002845D01*
X025236Y002845D01*
X025394Y002910D01*
X025490Y003007D02*
X029850Y003007D01*
X029850Y003105D02*
X025545Y003105D01*
X025580Y003204D02*
X029850Y003204D01*
X029850Y003302D02*
X025580Y003302D01*
X025563Y003401D02*
X029850Y003401D01*
X029850Y003499D02*
X025523Y003499D01*
X025436Y003598D02*
X029850Y003598D01*
X029850Y003696D02*
X025257Y003696D01*
X025043Y003696D02*
X019384Y003696D01*
X019391Y003598D02*
X024864Y003598D01*
X024777Y003499D02*
X019445Y003499D01*
X019460Y003401D02*
X024737Y003401D01*
X024720Y003302D02*
X019445Y003302D01*
X019392Y003204D02*
X024720Y003204D01*
X024755Y003105D02*
X019383Y003105D01*
X019441Y003007D02*
X024810Y003007D01*
X024912Y002908D02*
X019460Y002908D01*
X019442Y003795D02*
X029850Y003795D01*
X029850Y003893D02*
X025351Y003893D01*
X025475Y003992D02*
X029850Y003992D01*
X029850Y004090D02*
X025539Y004090D01*
X025580Y004189D02*
X029850Y004189D01*
X029850Y004287D02*
X025580Y004287D01*
X025570Y004386D02*
X029850Y004386D01*
X029850Y004484D02*
X025529Y004484D01*
X025451Y004583D02*
X029850Y004583D01*
X029850Y002317D02*
X029182Y002317D01*
X029419Y002219D02*
X029850Y002219D01*
X029850Y002120D02*
X029531Y002120D01*
X029629Y002022D02*
X029850Y002022D01*
X029850Y001923D02*
X029717Y001923D01*
X029758Y001825D02*
X029850Y001825D01*
X029850Y001726D02*
X029799Y001726D01*
X029839Y001628D02*
X029850Y001628D01*
X028307Y000643D02*
X001993Y000643D01*
X002092Y000741D02*
X028208Y000741D01*
X028110Y000840D02*
X002190Y000840D01*
X002242Y000938D02*
X028058Y000938D01*
X028017Y001037D02*
X002283Y001037D01*
X002324Y001135D02*
X027976Y001135D01*
X027945Y001234D02*
X002355Y001234D01*
X002355Y001332D02*
X027945Y001332D01*
X027945Y001431D02*
X002355Y001431D01*
X002355Y001529D02*
X027945Y001529D01*
X027961Y001628D02*
X002339Y001628D01*
X002299Y001726D02*
X028001Y001726D01*
X028471Y000544D02*
X001829Y000544D01*
X000461Y001628D02*
X000450Y001628D01*
X000450Y001726D02*
X000501Y001726D01*
X000542Y001825D02*
X000450Y001825D01*
X000450Y001923D02*
X000583Y001923D01*
X000671Y002022D02*
X000450Y002022D01*
X000450Y002120D02*
X000769Y002120D01*
X000881Y002219D02*
X000450Y002219D01*
X000450Y002317D02*
X001118Y002317D01*
X001682Y002317D02*
X006136Y002317D01*
X006169Y002219D02*
X001919Y002219D01*
X002031Y002120D02*
X006210Y002120D01*
X006302Y002022D02*
X002129Y002022D01*
X000450Y005962D02*
X024855Y005962D01*
X024774Y006060D02*
X000450Y006060D01*
X000450Y006159D02*
X024733Y006159D01*
X024720Y006257D02*
X000450Y006257D01*
X000450Y006356D02*
X024720Y006356D01*
X024870Y006947D02*
X019414Y006947D01*
X019358Y007045D02*
X024780Y007045D01*
X024739Y007144D02*
X019431Y007144D01*
X019460Y007242D02*
X024720Y007242D01*
X024720Y007341D02*
X019458Y007341D01*
X019418Y007439D02*
X024753Y007439D01*
X024804Y007538D02*
X019351Y007538D01*
X018949Y007538D02*
X015851Y007538D01*
X015918Y007439D02*
X018882Y007439D01*
X018842Y007341D02*
X015958Y007341D01*
X015960Y007242D02*
X018840Y007242D01*
X018869Y007144D02*
X015931Y007144D01*
X015858Y007045D02*
X018942Y007045D01*
X018886Y006947D02*
X015914Y006947D01*
X015955Y006848D02*
X018845Y006848D01*
X018840Y006750D02*
X015960Y006750D01*
X015934Y006651D02*
X018866Y006651D01*
X018934Y006553D02*
X015866Y006553D01*
X015340Y006750D02*
X001722Y006750D01*
X001949Y006848D02*
X015345Y006848D01*
X015386Y006947D02*
X002047Y006947D01*
X002146Y007045D02*
X015442Y007045D01*
X015369Y007144D02*
X002224Y007144D01*
X002265Y007242D02*
X015340Y007242D01*
X015342Y007341D02*
X002305Y007341D01*
X002346Y007439D02*
X006420Y007439D01*
X006359Y007464D02*
X006214Y007609D01*
X006136Y007798D01*
X006136Y008002D01*
X006214Y008191D01*
X006359Y008336D01*
X006548Y008414D01*
X006752Y008414D01*
X006941Y008336D01*
X007086Y008191D01*
X007164Y008002D01*
X007164Y007798D01*
X007086Y007609D01*
X006941Y007464D01*
X006752Y007386D01*
X006548Y007386D01*
X006359Y007464D01*
X006286Y007538D02*
X002355Y007538D01*
X002355Y007636D02*
X006203Y007636D01*
X006162Y007735D02*
X002355Y007735D01*
X002355Y007833D02*
X006136Y007833D01*
X006136Y007932D02*
X002317Y007932D01*
X002276Y008030D02*
X006148Y008030D01*
X006188Y008129D02*
X002235Y008129D01*
X002174Y008227D02*
X006250Y008227D01*
X006349Y008326D02*
X002075Y008326D01*
X001977Y008424D02*
X015376Y008424D01*
X015340Y008326D02*
X009201Y008326D01*
X009191Y008336D02*
X009002Y008414D01*
X008798Y008414D01*
X008609Y008336D01*
X008464Y008191D01*
X008386Y008002D01*
X008386Y007798D01*
X008464Y007609D01*
X008609Y007464D01*
X008798Y007386D01*
X009002Y007386D01*
X009191Y007464D01*
X009336Y007609D01*
X009414Y007798D01*
X009414Y008002D01*
X009336Y008191D01*
X009191Y008336D01*
X009300Y008227D02*
X015340Y008227D01*
X015375Y008129D02*
X009362Y008129D01*
X009402Y008030D02*
X015457Y008030D01*
X015379Y007932D02*
X009414Y007932D01*
X009414Y007833D02*
X015340Y007833D01*
X015340Y007735D02*
X009388Y007735D01*
X009347Y007636D02*
X015372Y007636D01*
X015449Y007538D02*
X009264Y007538D01*
X009130Y007439D02*
X015382Y007439D01*
X015928Y007636D02*
X018872Y007636D01*
X018840Y007735D02*
X015960Y007735D01*
X015960Y007833D02*
X018840Y007833D01*
X018879Y007932D02*
X015921Y007932D01*
X015843Y008030D02*
X018957Y008030D01*
X018875Y008129D02*
X015925Y008129D01*
X015960Y008227D02*
X018840Y008227D01*
X018840Y008326D02*
X015960Y008326D01*
X015924Y008424D02*
X018876Y008424D01*
X018959Y008523D02*
X015841Y008523D01*
X015459Y008523D02*
X001789Y008523D01*
X006951Y008326D02*
X008599Y008326D01*
X008500Y008227D02*
X007050Y008227D01*
X007112Y008129D02*
X008438Y008129D01*
X008398Y008030D02*
X007152Y008030D01*
X007164Y007932D02*
X008386Y007932D01*
X008386Y007833D02*
X007164Y007833D01*
X007138Y007735D02*
X008412Y007735D01*
X008453Y007636D02*
X007097Y007636D01*
X007014Y007538D02*
X008536Y007538D01*
X008670Y007439D02*
X006880Y007439D01*
X013263Y004386D02*
X024730Y004386D01*
X024720Y004287D02*
X013331Y004287D01*
X019264Y004189D02*
X024720Y004189D01*
X024761Y004090D02*
X019398Y004090D01*
X019448Y003992D02*
X024825Y003992D01*
X024949Y003893D02*
X019460Y003893D01*
X011604Y011281D02*
X011504Y011281D01*
X011504Y011379D02*
X011604Y011379D01*
X011604Y011478D02*
X011504Y011478D01*
X011504Y012701D02*
X011504Y013183D01*
X011604Y013183D01*
X011604Y013283D01*
X012086Y013283D01*
X012074Y013358D01*
X012048Y013437D01*
X012010Y013512D01*
X011960Y013580D01*
X011901Y013640D01*
X011833Y013689D01*
X011758Y013727D01*
X011678Y013753D01*
X011604Y013765D01*
X011604Y013283D01*
X011504Y013283D01*
X011504Y013765D01*
X011429Y013753D01*
X011349Y013727D01*
X011274Y013689D01*
X011206Y013640D01*
X011147Y013580D01*
X011097Y013512D01*
X011059Y013437D01*
X011033Y013358D01*
X011021Y013283D01*
X011504Y013283D01*
X011504Y013183D01*
X011021Y013183D01*
X011033Y013108D01*
X011059Y013028D01*
X011097Y012953D01*
X011147Y012885D01*
X011206Y012826D01*
X011274Y012776D01*
X011349Y012738D01*
X011429Y012712D01*
X011504Y012701D01*
X011504Y012758D02*
X011604Y012758D01*
X011604Y012701D02*
X011678Y012712D01*
X011758Y012738D01*
X011833Y012776D01*
X011901Y012826D01*
X011960Y012885D01*
X012010Y012953D01*
X012048Y013028D01*
X012074Y013108D01*
X012086Y013183D01*
X011604Y013183D01*
X011604Y012701D01*
X011604Y012857D02*
X011504Y012857D01*
X011504Y012955D02*
X011604Y012955D01*
X011604Y013054D02*
X011504Y013054D01*
X011504Y013152D02*
X011604Y013152D01*
X011604Y013251D02*
X016045Y013251D01*
X016049Y013349D02*
X012075Y013349D01*
X012043Y013448D02*
X016090Y013448D01*
X016139Y013546D02*
X011985Y013546D01*
X011894Y013645D02*
X016238Y013645D01*
X016424Y013743D02*
X011709Y013743D01*
X011604Y013743D02*
X011504Y013743D01*
X011504Y013645D02*
X011604Y013645D01*
X011604Y013546D02*
X011504Y013546D01*
X011504Y013448D02*
X011604Y013448D01*
X011604Y013349D02*
X011504Y013349D01*
X011504Y013251D02*
X010443Y013251D01*
X010443Y013341D02*
X010443Y013125D01*
X010361Y012925D01*
X010208Y012772D01*
X010008Y012689D01*
X009792Y012689D01*
X009592Y012772D01*
X009439Y012925D01*
X009357Y013125D01*
X009357Y013341D01*
X009439Y013540D01*
X009592Y013693D01*
X009792Y013776D01*
X010008Y013776D01*
X010208Y013693D01*
X010361Y013540D01*
X010443Y013341D01*
X010440Y013349D02*
X011032Y013349D01*
X011064Y013448D02*
X010399Y013448D01*
X010355Y013546D02*
X011122Y013546D01*
X011213Y013645D02*
X010257Y013645D01*
X010088Y013743D02*
X011398Y013743D01*
X010265Y014156D02*
X010330Y014314D01*
X010330Y014486D01*
X010265Y014644D01*
X010144Y014765D01*
X009986Y014830D01*
X009814Y014830D01*
X009656Y014765D01*
X009535Y014644D01*
X009470Y014486D01*
X009470Y014314D01*
X009535Y014156D01*
X009656Y014035D01*
X009814Y013970D01*
X009986Y013970D01*
X010144Y014035D01*
X010265Y014156D01*
X010245Y014137D02*
X016228Y014137D01*
X016176Y014236D02*
X010297Y014236D01*
X010330Y014334D02*
X016143Y014334D01*
X016143Y014433D02*
X010330Y014433D01*
X010311Y014531D02*
X016162Y014531D01*
X016203Y014630D02*
X010270Y014630D01*
X010180Y014728D02*
X016293Y014728D01*
X016479Y014827D02*
X009994Y014827D01*
X009806Y014827D02*
X008340Y014827D01*
X008332Y014830D02*
X008161Y014830D01*
X008003Y014765D01*
X007882Y014644D01*
X007816Y014486D01*
X007816Y014314D01*
X007882Y014156D01*
X008003Y014035D01*
X008161Y013970D01*
X008332Y013970D01*
X008490Y014035D01*
X008611Y014156D01*
X008676Y014314D01*
X008676Y014486D01*
X008611Y014644D01*
X008490Y014765D01*
X008332Y014830D01*
X008153Y014827D02*
X001659Y014827D01*
X001896Y014728D02*
X007966Y014728D01*
X007876Y014630D02*
X002021Y014630D01*
X002120Y014531D02*
X007835Y014531D01*
X007816Y014433D02*
X002213Y014433D01*
X002254Y014334D02*
X007816Y014334D01*
X007849Y014236D02*
X002295Y014236D01*
X002336Y014137D02*
X007901Y014137D01*
X008000Y014039D02*
X002355Y014039D01*
X002355Y013743D02*
X008059Y013743D01*
X008138Y013776D02*
X007939Y013693D01*
X007786Y013540D01*
X007703Y013341D01*
X007703Y013125D01*
X007786Y012925D01*
X007939Y012772D01*
X008138Y012689D01*
X008355Y012689D01*
X008554Y012772D01*
X008707Y012925D01*
X008790Y013125D01*
X008790Y013341D01*
X008707Y013540D01*
X008554Y013693D01*
X008355Y013776D01*
X008138Y013776D01*
X007890Y013645D02*
X002328Y013645D01*
X002287Y013546D02*
X007791Y013546D01*
X007747Y013448D02*
X002246Y013448D01*
X002200Y013349D02*
X007706Y013349D01*
X007703Y013251D02*
X002101Y013251D01*
X002003Y013152D02*
X007703Y013152D01*
X007733Y013054D02*
X001852Y013054D01*
X001614Y012955D02*
X007773Y012955D01*
X007854Y012857D02*
X000450Y012857D01*
X000450Y012955D02*
X001186Y012955D01*
X000948Y013054D02*
X000450Y013054D01*
X000450Y013152D02*
X000797Y013152D01*
X000699Y013251D02*
X000450Y013251D01*
X000450Y013349D02*
X000600Y013349D01*
X000554Y013448D02*
X000450Y013448D01*
X000450Y013546D02*
X000513Y013546D01*
X000472Y013645D02*
X000450Y013645D01*
X000450Y012758D02*
X004025Y012758D01*
X003926Y012660D02*
X000450Y012660D01*
X000450Y012561D02*
X003876Y012561D01*
X003845Y012463D02*
X000450Y012463D01*
X000450Y012364D02*
X003845Y012364D01*
X003865Y012266D02*
X000450Y012266D01*
X000450Y012167D02*
X003906Y012167D01*
X003998Y012069D02*
X000450Y012069D01*
X004525Y012758D02*
X007972Y012758D01*
X008520Y012758D02*
X009626Y012758D01*
X009508Y012857D02*
X008639Y012857D01*
X008720Y012955D02*
X009427Y012955D01*
X009386Y013054D02*
X008760Y013054D01*
X008790Y013152D02*
X009357Y013152D01*
X009357Y013251D02*
X008790Y013251D01*
X008786Y013349D02*
X009360Y013349D01*
X009401Y013448D02*
X008746Y013448D01*
X008702Y013546D02*
X009445Y013546D01*
X009543Y013645D02*
X008603Y013645D01*
X008434Y013743D02*
X009712Y013743D01*
X009653Y014039D02*
X008493Y014039D01*
X008592Y014137D02*
X009555Y014137D01*
X009503Y014236D02*
X008644Y014236D01*
X008676Y014334D02*
X009470Y014334D01*
X009470Y014433D02*
X008676Y014433D01*
X008658Y014531D02*
X009489Y014531D01*
X009530Y014630D02*
X008617Y014630D01*
X008527Y014728D02*
X009620Y014728D01*
X010147Y014039D02*
X016327Y014039D01*
X016045Y013152D02*
X012081Y013152D01*
X012056Y013054D02*
X016075Y013054D01*
X016116Y012955D02*
X012011Y012955D01*
X011932Y012857D02*
X016202Y012857D01*
X016338Y012758D02*
X011797Y012758D01*
X011310Y012758D02*
X010174Y012758D01*
X010292Y012857D02*
X011175Y012857D01*
X011096Y012955D02*
X010373Y012955D01*
X010414Y013054D02*
X011051Y013054D01*
X011026Y013152D02*
X010443Y013152D01*
D18*
X001400Y013900D03*
X001400Y007650D03*
X001400Y001400D03*
X028900Y001400D03*
X028900Y013900D03*
M02*
