%
M48
M72
T01C0.0200
T02C0.0250
T03C0.0400
T04C0.0512
T05C0.0531
T06C0.0551
T07C0.1250
%
T01
X011650Y003150
X015650Y002900
X015650Y002400
X015650Y001400
X019150Y001150
X019150Y002400
X019150Y002900
X019150Y003400
X019150Y003900
X019150Y005525
X019150Y006775
X019150Y007275
X019150Y007775
X019150Y008275
X017900Y009275
X015650Y008275
X015650Y007775
X015650Y007275
X015650Y006775
X015650Y005775
X015650Y003900
X015650Y003400
X021400Y011400
X022400Y011400
X023400Y011400
X024400Y011400
X025400Y011400
X026400Y011400
T02
X013025Y004150
X010525Y004150
X006150Y010150
X006150Y012650
T03
X004275Y012400
X004275Y011400
X004275Y010400
X008246Y009900
X009900Y009900
X011554Y009900
X014025Y010275
X016573Y009900
X018227Y009900
X021400Y012900
X022400Y012900
X023400Y012900
X024400Y012900
X025400Y012900
X026400Y012900
X018227Y014400
X016573Y014400
X011554Y014400
X009900Y014400
X008246Y014400
X025150Y008275
X025150Y007275
X025150Y006275
X025150Y005275
X025150Y004275
X025150Y003275
X004275Y002900
X004275Y003900
X004275Y004900
T04
X006650Y002400
X008900Y002400
X008900Y007900
X006650Y007900
T05
X016573Y011067
X018227Y011067
X018227Y013233
X016573Y013233
T06
X011554Y013233
X009900Y013233
X008246Y013233
X008246Y011067
X009900Y011067
X011554Y011067
T07
X001400Y001400
X001400Y007650
X001400Y013900
X028900Y013900
X028900Y001400
M30
