G75*
G70*
%OFA0B0*%
%FSLAX24Y24*%
%IPPOS*%
%LPD*%
%AMOC8*
5,1,8,0,0,1.08239X$1,22.5*
%
%ADD10C,0.0000*%
%ADD11R,0.0931X0.0931*%
%ADD12OC8,0.0931*%
%ADD13R,0.0951X0.0951*%
%ADD14OC8,0.0951*%
%ADD15C,0.0912*%
%ADD16C,0.0720*%
%ADD17R,0.0591X0.0512*%
%ADD18C,0.0150*%
%ADD19R,0.0360X0.0360*%
%ADD20R,0.0600X0.0600*%
%ADD21R,0.0410X0.0410*%
%ADD22C,0.0360*%
%ADD23C,0.0600*%
%ADD24OC8,0.0600*%
%ADD25OC8,0.0360*%
%ADD26OC8,0.0410*%
%ADD27C,0.0100*%
%ADD28C,0.1850*%
D10*
X000150Y000150D02*
X000150Y015150D01*
X030150Y015150D01*
X030150Y000150D01*
X000150Y000150D01*
D11*
X018227Y011067D03*
D12*
X016573Y011067D03*
X016573Y013233D03*
X018227Y013233D03*
D13*
X011554Y011067D03*
D14*
X009900Y011067D03*
X008246Y011067D03*
X008246Y013233D03*
X009900Y013233D03*
X011554Y013233D03*
D15*
X008900Y008356D02*
X008900Y007444D01*
X006650Y007444D02*
X006650Y008356D01*
X006650Y002856D02*
X006650Y001944D01*
X008900Y001944D02*
X008900Y002856D01*
D16*
X004635Y002900D02*
X003915Y002900D01*
X003915Y003900D02*
X004635Y003900D01*
X004635Y004900D02*
X003915Y004900D01*
X003915Y010400D02*
X004635Y010400D01*
X004635Y011400D02*
X003915Y011400D01*
X003915Y012400D02*
X004635Y012400D01*
X021400Y012540D02*
X021400Y013260D01*
X022400Y013260D02*
X022400Y012540D01*
X023400Y012540D02*
X023400Y013260D01*
X024400Y013260D02*
X024400Y012540D01*
X025400Y012540D02*
X025400Y013260D01*
X026400Y013260D02*
X026400Y012540D01*
D17*
X018525Y009110D03*
X018525Y008440D03*
X016400Y006610D03*
X016400Y005940D03*
X018525Y005110D03*
X018525Y004440D03*
X016400Y002235D03*
X016400Y001565D03*
X006150Y011065D03*
X006150Y011735D03*
D18*
X006150Y012650D01*
X015650Y006775D02*
X016400Y006775D01*
X016400Y006610D01*
X016400Y005940D02*
X016400Y005775D01*
X015650Y005775D01*
X018525Y005525D02*
X018525Y005110D01*
X018525Y005525D02*
X019150Y005525D01*
X018525Y004440D02*
X018525Y003900D01*
X019150Y003900D01*
X016400Y002400D02*
X015650Y002400D01*
X016400Y002400D02*
X016400Y002235D01*
X016400Y001565D02*
X016400Y001400D01*
X015650Y001400D01*
X018525Y008275D02*
X019150Y008275D01*
X018525Y008275D02*
X018525Y008440D01*
X018525Y009110D02*
X018525Y009275D01*
X017900Y009275D01*
D19*
X017900Y009275D03*
X022400Y011400D03*
X024400Y011400D03*
X015650Y005775D03*
X019150Y005525D03*
X015650Y001400D03*
X019150Y001150D03*
D20*
X025150Y008275D03*
X014025Y010275D03*
X011554Y009900D03*
X011554Y014400D03*
D21*
X006150Y012650D03*
D22*
X015650Y006775D03*
X019150Y008275D03*
X019150Y003900D03*
X015650Y002400D03*
D23*
X025150Y006275D03*
X025150Y007275D03*
D24*
X025150Y005275D03*
X025150Y004275D03*
X025150Y003275D03*
X018227Y009900D03*
X016573Y009900D03*
X009900Y009900D03*
X008246Y009900D03*
X008246Y014400D03*
X009900Y014400D03*
X016573Y014400D03*
X018227Y014400D03*
D25*
X021400Y011400D03*
X023400Y011400D03*
X025400Y011400D03*
X026400Y011400D03*
X019150Y007775D03*
X019150Y007275D03*
X019150Y006775D03*
X015650Y007275D03*
X015650Y007775D03*
X015650Y008275D03*
X015650Y003900D03*
X015650Y003400D03*
X015650Y002900D03*
X019150Y002900D03*
X019150Y002400D03*
X019150Y003400D03*
X011650Y003150D03*
D26*
X010525Y004150D03*
X013025Y004150D03*
X006150Y010150D03*
D27*
X006100Y010689D02*
X005839Y010689D01*
X005808Y010698D01*
X005781Y010713D01*
X005759Y010736D01*
X005743Y010763D01*
X005735Y010794D01*
X005735Y011015D01*
X006100Y011015D01*
X006200Y011015D01*
X006200Y010689D01*
X006461Y010689D01*
X006492Y010698D01*
X006519Y010713D01*
X006541Y010736D01*
X006557Y010763D01*
X006565Y010794D01*
X006565Y011015D01*
X006200Y011015D01*
X006200Y011115D01*
X006565Y011115D01*
X006565Y011337D01*
X006557Y011368D01*
X006543Y011392D01*
X006575Y011425D01*
X006575Y012044D01*
X006499Y012121D01*
X006355Y012121D01*
X006355Y012315D01*
X006409Y012315D01*
X006485Y012391D01*
X006485Y012909D01*
X006409Y012985D01*
X005891Y012985D01*
X005815Y012909D01*
X005815Y012391D01*
X005891Y012315D01*
X005945Y012315D01*
X005945Y012121D01*
X005801Y012121D01*
X005725Y012044D01*
X005725Y011425D01*
X005757Y011392D01*
X005743Y011368D01*
X005735Y011337D01*
X005735Y011115D01*
X006100Y011115D01*
X006100Y011015D01*
X006100Y010689D01*
X006100Y010690D02*
X006200Y010690D01*
X006200Y010788D02*
X006100Y010788D01*
X006100Y010887D02*
X006200Y010887D01*
X006200Y010985D02*
X006100Y010985D01*
X006100Y011084D02*
X005011Y011084D01*
X005050Y011122D02*
X004913Y010985D01*
X005735Y010985D01*
X005735Y010887D02*
X004741Y010887D01*
X004732Y010890D02*
X003818Y010890D01*
X003637Y010815D01*
X003500Y010678D01*
X003425Y010497D01*
X003425Y010303D01*
X003500Y010122D01*
X003637Y009985D01*
X003818Y009910D01*
X004732Y009910D01*
X004913Y009985D01*
X005050Y010122D01*
X005125Y010303D01*
X005125Y010497D01*
X005050Y010678D01*
X004913Y010815D01*
X004732Y010890D01*
X004732Y010910D02*
X004913Y010985D01*
X005050Y011122D02*
X005125Y011303D01*
X005125Y011497D01*
X005050Y011678D01*
X004913Y011815D01*
X004732Y011890D01*
X003818Y011890D01*
X003637Y011815D01*
X003500Y011678D01*
X003425Y011497D01*
X003425Y011303D01*
X003500Y011122D01*
X003637Y010985D01*
X003275Y010985D01*
X003275Y010887D02*
X003809Y010887D01*
X003818Y010910D02*
X003637Y010985D01*
X003539Y011084D02*
X003275Y011084D01*
X003275Y011182D02*
X003475Y011182D01*
X003434Y011281D02*
X003275Y011281D01*
X003275Y011379D02*
X003425Y011379D01*
X003425Y011478D02*
X003275Y011478D01*
X003275Y011576D02*
X003458Y011576D01*
X003498Y011675D02*
X003275Y011675D01*
X003275Y011773D02*
X003595Y011773D01*
X003773Y011872D02*
X003275Y011872D01*
X003275Y011970D02*
X003702Y011970D01*
X003731Y011955D02*
X003803Y011932D01*
X003877Y011920D01*
X004225Y011920D01*
X004225Y012350D01*
X004325Y012350D01*
X004325Y012450D01*
X004225Y012450D01*
X004225Y012880D01*
X003877Y012880D01*
X003803Y012868D01*
X003731Y012845D01*
X003663Y012811D01*
X003602Y012766D01*
X003549Y012713D01*
X003504Y012652D01*
X003470Y012584D01*
X003447Y012512D01*
X003437Y012450D01*
X004225Y012450D01*
X004225Y012350D01*
X003437Y012350D01*
X003447Y012288D01*
X003470Y012216D01*
X003504Y012148D01*
X003549Y012087D01*
X003602Y012034D01*
X003663Y011989D01*
X003731Y011955D01*
X003568Y012069D02*
X003275Y012069D01*
X003275Y012167D02*
X003495Y012167D01*
X003454Y012266D02*
X003275Y012266D01*
X003275Y012364D02*
X004225Y012364D01*
X004225Y012266D02*
X004325Y012266D01*
X004325Y012350D02*
X004325Y011920D01*
X004673Y011920D01*
X004747Y011932D01*
X004819Y011955D01*
X004887Y011989D01*
X004948Y012034D01*
X005001Y012087D01*
X005046Y012148D01*
X005080Y012216D01*
X005103Y012288D01*
X005113Y012350D01*
X004325Y012350D01*
X004325Y012364D02*
X005842Y012364D01*
X005815Y012463D02*
X005111Y012463D01*
X005113Y012450D02*
X005103Y012512D01*
X005080Y012584D01*
X005046Y012652D01*
X005001Y012713D01*
X004948Y012766D01*
X004887Y012811D01*
X004819Y012845D01*
X004747Y012868D01*
X004673Y012880D01*
X004325Y012880D01*
X004325Y012450D01*
X005113Y012450D01*
X005087Y012561D02*
X005815Y012561D01*
X005815Y012660D02*
X005040Y012660D01*
X004956Y012758D02*
X005815Y012758D01*
X005815Y012857D02*
X004783Y012857D01*
X004325Y012857D02*
X004225Y012857D01*
X004225Y012758D02*
X004325Y012758D01*
X004325Y012660D02*
X004225Y012660D01*
X004225Y012561D02*
X004325Y012561D01*
X004325Y012463D02*
X004225Y012463D01*
X004225Y012167D02*
X004325Y012167D01*
X004325Y012069D02*
X004225Y012069D01*
X004225Y011970D02*
X004325Y011970D01*
X004777Y011872D02*
X005725Y011872D01*
X005725Y011970D02*
X004848Y011970D01*
X004982Y012069D02*
X005749Y012069D01*
X005945Y012167D02*
X005055Y012167D01*
X005096Y012266D02*
X005945Y012266D01*
X006355Y012266D02*
X020983Y012266D01*
X020985Y012262D02*
X021122Y012125D01*
X021303Y012050D01*
X021497Y012050D01*
X021678Y012125D01*
X021815Y012262D01*
X021890Y012443D01*
X021890Y013357D01*
X021815Y013538D01*
X021678Y013675D01*
X021497Y013750D01*
X021303Y013750D01*
X021122Y013675D01*
X020985Y013538D01*
X020910Y013357D01*
X020910Y012443D01*
X020985Y012262D01*
X020943Y012364D02*
X006458Y012364D01*
X006485Y012463D02*
X020910Y012463D01*
X020910Y012561D02*
X006485Y012561D01*
X006485Y012660D02*
X007963Y012660D01*
X007996Y012627D02*
X008497Y012627D01*
X008852Y012982D01*
X008852Y013484D01*
X008497Y013838D01*
X007996Y013838D01*
X007641Y013484D01*
X007641Y012982D01*
X007996Y012627D01*
X007865Y012758D02*
X006485Y012758D01*
X006485Y012857D02*
X007766Y012857D01*
X007668Y012955D02*
X006439Y012955D01*
X005861Y012955D02*
X003275Y012955D01*
X003275Y012857D02*
X003767Y012857D01*
X003594Y012758D02*
X003275Y012758D01*
X003275Y012660D02*
X003510Y012660D01*
X003463Y012561D02*
X003275Y012561D01*
X003275Y012463D02*
X003439Y012463D01*
X002650Y012463D02*
X000450Y012463D01*
X000450Y012561D02*
X002650Y012561D01*
X002650Y012660D02*
X000450Y012660D01*
X000450Y012758D02*
X002650Y012758D01*
X002650Y012857D02*
X000450Y012857D01*
X000450Y012955D02*
X002650Y012955D01*
X002650Y013054D02*
X000450Y013054D01*
X000450Y013152D02*
X002650Y013152D01*
X002650Y013251D02*
X000450Y013251D01*
X000450Y013349D02*
X002650Y013349D01*
X002650Y013448D02*
X000450Y013448D01*
X000450Y013546D02*
X002650Y013546D01*
X002650Y013645D02*
X000450Y013645D01*
X000450Y013743D02*
X002650Y013743D01*
X002650Y013842D02*
X000450Y013842D01*
X000450Y013940D02*
X002650Y013940D01*
X002650Y014039D02*
X000450Y014039D01*
X000450Y014137D02*
X002650Y014137D01*
X002650Y014236D02*
X000450Y014236D01*
X000450Y014334D02*
X002650Y014334D01*
X002650Y014433D02*
X000450Y014433D01*
X000450Y014531D02*
X002650Y014531D01*
X002650Y014630D02*
X000450Y014630D01*
X000450Y014728D02*
X002650Y014728D01*
X002650Y014827D02*
X000450Y014827D01*
X000450Y014850D02*
X002650Y014850D01*
X002650Y000450D01*
X000450Y000450D01*
X000450Y014850D01*
X003275Y014850D02*
X028435Y014850D01*
X028252Y014744D01*
X028056Y014548D01*
X027917Y014307D01*
X027845Y014039D01*
X027845Y013761D01*
X027917Y013493D01*
X028056Y013252D01*
X028252Y013056D01*
X028493Y012917D01*
X028761Y012845D01*
X029039Y012845D01*
X029307Y012917D01*
X029548Y013056D01*
X029744Y013252D01*
X029850Y013435D01*
X029850Y001865D01*
X029744Y002048D01*
X029548Y002244D01*
X029307Y002383D01*
X029039Y002455D01*
X028761Y002455D01*
X028493Y002383D01*
X028252Y002244D01*
X028056Y002048D01*
X027917Y001807D01*
X027845Y001539D01*
X027845Y001261D01*
X027917Y000993D01*
X028056Y000752D01*
X028252Y000556D01*
X028435Y000450D01*
X003275Y000450D01*
X003275Y014850D01*
X003275Y014827D02*
X008065Y014827D01*
X008068Y014830D02*
X007816Y014578D01*
X007816Y014222D01*
X008068Y013970D01*
X008425Y013970D01*
X008676Y014222D01*
X008676Y014578D01*
X008425Y014830D01*
X008068Y014830D01*
X007966Y014728D02*
X003275Y014728D01*
X003275Y014630D02*
X007868Y014630D01*
X007816Y014531D02*
X003275Y014531D01*
X003275Y014433D02*
X007816Y014433D01*
X007816Y014334D02*
X003275Y014334D01*
X003275Y014236D02*
X007816Y014236D01*
X007901Y014137D02*
X003275Y014137D01*
X003275Y014039D02*
X008000Y014039D01*
X007900Y013743D02*
X003275Y013743D01*
X003275Y013645D02*
X007802Y013645D01*
X007703Y013546D02*
X003275Y013546D01*
X003275Y013448D02*
X007641Y013448D01*
X007641Y013349D02*
X003275Y013349D01*
X003275Y013251D02*
X007641Y013251D01*
X007641Y013152D02*
X003275Y013152D01*
X003275Y013054D02*
X007641Y013054D01*
X008530Y012660D02*
X009617Y012660D01*
X009649Y012627D02*
X010151Y012627D01*
X010506Y012982D01*
X010506Y013484D01*
X010151Y013838D01*
X009649Y013838D01*
X009294Y013484D01*
X009294Y012982D01*
X009649Y012627D01*
X009518Y012758D02*
X008628Y012758D01*
X008727Y012857D02*
X009420Y012857D01*
X009321Y012955D02*
X008825Y012955D01*
X008852Y013054D02*
X009294Y013054D01*
X009294Y013152D02*
X008852Y013152D01*
X008852Y013251D02*
X009294Y013251D01*
X009294Y013349D02*
X008852Y013349D01*
X008852Y013448D02*
X009294Y013448D01*
X009357Y013546D02*
X008790Y013546D01*
X008691Y013645D02*
X009455Y013645D01*
X009554Y013743D02*
X008593Y013743D01*
X008493Y014039D02*
X009653Y014039D01*
X009722Y013970D02*
X009470Y014222D01*
X009470Y014578D01*
X009722Y014830D01*
X010078Y014830D01*
X010330Y014578D01*
X010330Y014222D01*
X010078Y013970D01*
X009722Y013970D01*
X009555Y014137D02*
X008592Y014137D01*
X008676Y014236D02*
X009470Y014236D01*
X009470Y014334D02*
X008676Y014334D01*
X008676Y014433D02*
X009470Y014433D01*
X009470Y014531D02*
X008676Y014531D01*
X008625Y014630D02*
X009521Y014630D01*
X009620Y014728D02*
X008527Y014728D01*
X008428Y014827D02*
X009718Y014827D01*
X010082Y014827D02*
X011196Y014827D01*
X011200Y014830D02*
X011124Y014754D01*
X011124Y014046D01*
X011200Y013970D01*
X011907Y013970D01*
X011984Y014046D01*
X011984Y014754D01*
X011907Y014830D01*
X011200Y014830D01*
X011124Y014728D02*
X010180Y014728D01*
X010279Y014630D02*
X011124Y014630D01*
X011124Y014531D02*
X010330Y014531D01*
X010330Y014433D02*
X011124Y014433D01*
X011124Y014334D02*
X010330Y014334D01*
X010330Y014236D02*
X011124Y014236D01*
X011124Y014137D02*
X010245Y014137D01*
X010147Y014039D02*
X011131Y014039D01*
X011303Y013838D02*
X010948Y013484D01*
X010948Y012982D01*
X011303Y012627D01*
X011804Y012627D01*
X012159Y012982D01*
X012159Y013484D01*
X011804Y013838D01*
X011303Y013838D01*
X011207Y013743D02*
X010246Y013743D01*
X010345Y013645D02*
X011109Y013645D01*
X011010Y013546D02*
X010443Y013546D01*
X010506Y013448D02*
X010948Y013448D01*
X010948Y013349D02*
X010506Y013349D01*
X010506Y013251D02*
X010948Y013251D01*
X010948Y013152D02*
X010506Y013152D01*
X010506Y013054D02*
X010948Y013054D01*
X010975Y012955D02*
X010479Y012955D01*
X010380Y012857D02*
X011073Y012857D01*
X011172Y012758D02*
X010282Y012758D01*
X010183Y012660D02*
X011270Y012660D01*
X011837Y012660D02*
X016304Y012660D01*
X016326Y012637D02*
X016820Y012637D01*
X017169Y012986D01*
X017169Y013479D01*
X016820Y013828D01*
X016326Y013828D01*
X015977Y013479D01*
X015977Y012986D01*
X016326Y012637D01*
X016205Y012758D02*
X011935Y012758D01*
X012034Y012857D02*
X016107Y012857D01*
X016008Y012955D02*
X012132Y012955D01*
X012159Y013054D02*
X015977Y013054D01*
X015977Y013152D02*
X012159Y013152D01*
X012159Y013251D02*
X015977Y013251D01*
X015977Y013349D02*
X012159Y013349D01*
X012159Y013448D02*
X015977Y013448D01*
X016044Y013546D02*
X012097Y013546D01*
X011998Y013645D02*
X016143Y013645D01*
X016241Y013743D02*
X011900Y013743D01*
X011976Y014039D02*
X016327Y014039D01*
X016395Y013970D02*
X016143Y014222D01*
X016143Y014578D01*
X016395Y014830D01*
X016751Y014830D01*
X017003Y014578D01*
X017003Y014222D01*
X016751Y013970D01*
X016395Y013970D01*
X016228Y014137D02*
X011984Y014137D01*
X011984Y014236D02*
X016143Y014236D01*
X016143Y014334D02*
X011984Y014334D01*
X011984Y014433D02*
X016143Y014433D01*
X016143Y014531D02*
X011984Y014531D01*
X011984Y014630D02*
X016195Y014630D01*
X016293Y014728D02*
X011984Y014728D01*
X011911Y014827D02*
X016392Y014827D01*
X016755Y014827D02*
X028395Y014827D01*
X028236Y014728D02*
X016853Y014728D01*
X016952Y014630D02*
X028138Y014630D01*
X028046Y014531D02*
X017003Y014531D01*
X017003Y014433D02*
X027989Y014433D01*
X027932Y014334D02*
X017003Y014334D01*
X017003Y014236D02*
X027898Y014236D01*
X027871Y014137D02*
X016918Y014137D01*
X016820Y014039D02*
X027845Y014039D01*
X027845Y013940D02*
X003275Y013940D01*
X003275Y013842D02*
X027845Y013842D01*
X027850Y013743D02*
X026514Y013743D01*
X026497Y013750D02*
X026303Y013750D01*
X026122Y013675D01*
X025985Y013538D01*
X025910Y013357D01*
X025910Y012443D01*
X025985Y012262D01*
X026122Y012125D01*
X026303Y012050D01*
X026497Y012050D01*
X026678Y012125D01*
X026815Y012262D01*
X026890Y012443D01*
X026890Y013357D01*
X026815Y013538D01*
X026678Y013675D01*
X026497Y013750D01*
X026286Y013743D02*
X025514Y013743D01*
X025497Y013750D02*
X025303Y013750D01*
X025122Y013675D01*
X024985Y013538D01*
X024910Y013357D01*
X024910Y012443D01*
X024985Y012262D01*
X025122Y012125D01*
X025303Y012050D01*
X025497Y012050D01*
X025678Y012125D01*
X025815Y012262D01*
X025890Y012443D01*
X025890Y013357D01*
X025815Y013538D01*
X025678Y013675D01*
X025497Y013750D01*
X025286Y013743D02*
X024514Y013743D01*
X024497Y013750D02*
X024303Y013750D01*
X024122Y013675D01*
X023985Y013538D01*
X023910Y013357D01*
X023910Y012443D01*
X023985Y012262D01*
X024122Y012125D01*
X024303Y012050D01*
X024497Y012050D01*
X024678Y012125D01*
X024815Y012262D01*
X024890Y012443D01*
X024890Y013357D01*
X024815Y013538D01*
X024678Y013675D01*
X024497Y013750D01*
X024286Y013743D02*
X023514Y013743D01*
X023497Y013750D02*
X023303Y013750D01*
X023122Y013675D01*
X022985Y013538D01*
X022910Y013357D01*
X022910Y012443D01*
X022985Y012262D01*
X023122Y012125D01*
X023303Y012050D01*
X023497Y012050D01*
X023678Y012125D01*
X023815Y012262D01*
X023890Y012443D01*
X023890Y013357D01*
X023815Y013538D01*
X023678Y013675D01*
X023497Y013750D01*
X023286Y013743D02*
X022514Y013743D01*
X022497Y013750D02*
X022303Y013750D01*
X022122Y013675D01*
X021985Y013538D01*
X021910Y013357D01*
X021910Y012443D01*
X021985Y012262D01*
X022122Y012125D01*
X022303Y012050D01*
X022497Y012050D01*
X022678Y012125D01*
X022815Y012262D01*
X022890Y012443D01*
X022890Y013357D01*
X022815Y013538D01*
X022678Y013675D01*
X022497Y013750D01*
X022286Y013743D02*
X021514Y013743D01*
X021708Y013645D02*
X022092Y013645D01*
X021993Y013546D02*
X021807Y013546D01*
X021853Y013448D02*
X021947Y013448D01*
X021910Y013349D02*
X021890Y013349D01*
X021890Y013251D02*
X021910Y013251D01*
X021910Y013152D02*
X021890Y013152D01*
X021890Y013054D02*
X021910Y013054D01*
X021910Y012955D02*
X021890Y012955D01*
X021890Y012857D02*
X021910Y012857D01*
X021910Y012758D02*
X021890Y012758D01*
X021890Y012660D02*
X021910Y012660D01*
X021910Y012561D02*
X021890Y012561D01*
X021890Y012463D02*
X021910Y012463D01*
X021943Y012364D02*
X021857Y012364D01*
X021817Y012266D02*
X021983Y012266D01*
X022080Y012167D02*
X021720Y012167D01*
X021542Y012069D02*
X022258Y012069D01*
X022542Y012069D02*
X023258Y012069D01*
X023080Y012167D02*
X022720Y012167D01*
X022817Y012266D02*
X022983Y012266D01*
X022943Y012364D02*
X022857Y012364D01*
X022890Y012463D02*
X022910Y012463D01*
X022910Y012561D02*
X022890Y012561D01*
X022890Y012660D02*
X022910Y012660D01*
X022910Y012758D02*
X022890Y012758D01*
X022890Y012857D02*
X022910Y012857D01*
X022910Y012955D02*
X022890Y012955D01*
X022890Y013054D02*
X022910Y013054D01*
X022910Y013152D02*
X022890Y013152D01*
X022890Y013251D02*
X022910Y013251D01*
X022910Y013349D02*
X022890Y013349D01*
X022853Y013448D02*
X022947Y013448D01*
X022993Y013546D02*
X022807Y013546D01*
X022708Y013645D02*
X023092Y013645D01*
X023708Y013645D02*
X024092Y013645D01*
X023993Y013546D02*
X023807Y013546D01*
X023853Y013448D02*
X023947Y013448D01*
X023910Y013349D02*
X023890Y013349D01*
X023890Y013251D02*
X023910Y013251D01*
X023910Y013152D02*
X023890Y013152D01*
X023890Y013054D02*
X023910Y013054D01*
X023910Y012955D02*
X023890Y012955D01*
X023890Y012857D02*
X023910Y012857D01*
X023910Y012758D02*
X023890Y012758D01*
X023890Y012660D02*
X023910Y012660D01*
X023910Y012561D02*
X023890Y012561D01*
X023890Y012463D02*
X023910Y012463D01*
X023943Y012364D02*
X023857Y012364D01*
X023817Y012266D02*
X023983Y012266D01*
X024080Y012167D02*
X023720Y012167D01*
X023542Y012069D02*
X024258Y012069D01*
X024542Y012069D02*
X025258Y012069D01*
X025080Y012167D02*
X024720Y012167D01*
X024817Y012266D02*
X024983Y012266D01*
X024943Y012364D02*
X024857Y012364D01*
X024890Y012463D02*
X024910Y012463D01*
X024910Y012561D02*
X024890Y012561D01*
X024890Y012660D02*
X024910Y012660D01*
X024910Y012758D02*
X024890Y012758D01*
X024890Y012857D02*
X024910Y012857D01*
X024910Y012955D02*
X024890Y012955D01*
X024890Y013054D02*
X024910Y013054D01*
X024910Y013152D02*
X024890Y013152D01*
X024890Y013251D02*
X024910Y013251D01*
X024910Y013349D02*
X024890Y013349D01*
X024853Y013448D02*
X024947Y013448D01*
X024993Y013546D02*
X024807Y013546D01*
X024708Y013645D02*
X025092Y013645D01*
X025708Y013645D02*
X026092Y013645D01*
X025993Y013546D02*
X025807Y013546D01*
X025853Y013448D02*
X025947Y013448D01*
X025910Y013349D02*
X025890Y013349D01*
X025890Y013251D02*
X025910Y013251D01*
X025910Y013152D02*
X025890Y013152D01*
X025890Y013054D02*
X025910Y013054D01*
X025910Y012955D02*
X025890Y012955D01*
X025890Y012857D02*
X025910Y012857D01*
X025910Y012758D02*
X025890Y012758D01*
X025890Y012660D02*
X025910Y012660D01*
X025910Y012561D02*
X025890Y012561D01*
X025890Y012463D02*
X025910Y012463D01*
X025943Y012364D02*
X025857Y012364D01*
X025817Y012266D02*
X025983Y012266D01*
X026080Y012167D02*
X025720Y012167D01*
X025542Y012069D02*
X026258Y012069D01*
X026542Y012069D02*
X029850Y012069D01*
X029850Y012167D02*
X026720Y012167D01*
X026817Y012266D02*
X029850Y012266D01*
X029850Y012364D02*
X026857Y012364D01*
X026890Y012463D02*
X029850Y012463D01*
X029850Y012561D02*
X026890Y012561D01*
X026890Y012660D02*
X029850Y012660D01*
X029850Y012758D02*
X026890Y012758D01*
X026890Y012857D02*
X028718Y012857D01*
X028427Y012955D02*
X026890Y012955D01*
X026890Y013054D02*
X028256Y013054D01*
X028156Y013152D02*
X026890Y013152D01*
X026890Y013251D02*
X028057Y013251D01*
X028000Y013349D02*
X026890Y013349D01*
X026853Y013448D02*
X027943Y013448D01*
X027903Y013546D02*
X026807Y013546D01*
X026708Y013645D02*
X027876Y013645D01*
X029373Y012955D02*
X029850Y012955D01*
X029850Y012857D02*
X029082Y012857D01*
X029544Y013054D02*
X029850Y013054D01*
X029850Y013152D02*
X029644Y013152D01*
X029743Y013251D02*
X029850Y013251D01*
X029850Y013349D02*
X029800Y013349D01*
X029850Y011970D02*
X006575Y011970D01*
X006575Y011872D02*
X029850Y011872D01*
X029850Y011773D02*
X006575Y011773D01*
X006575Y011675D02*
X021236Y011675D01*
X021272Y011710D02*
X021090Y011528D01*
X021090Y011272D01*
X021272Y011090D01*
X021528Y011090D01*
X021710Y011272D01*
X021710Y011528D01*
X021528Y011710D01*
X021272Y011710D01*
X021138Y011576D02*
X018823Y011576D01*
X018823Y011587D02*
X018746Y011663D01*
X017707Y011663D01*
X017631Y011587D01*
X017631Y010548D01*
X017707Y010472D01*
X018746Y010472D01*
X018823Y010548D01*
X018823Y011587D01*
X018823Y011478D02*
X021090Y011478D01*
X021090Y011379D02*
X018823Y011379D01*
X018823Y011281D02*
X021090Y011281D01*
X021180Y011182D02*
X018823Y011182D01*
X018823Y011084D02*
X029850Y011084D01*
X029850Y011182D02*
X026620Y011182D01*
X026710Y011272D02*
X026528Y011090D01*
X026272Y011090D01*
X026090Y011272D01*
X026090Y011528D01*
X026272Y011710D01*
X026528Y011710D01*
X026710Y011528D01*
X026710Y011272D01*
X026710Y011281D02*
X029850Y011281D01*
X029850Y011379D02*
X026710Y011379D01*
X026710Y011478D02*
X029850Y011478D01*
X029850Y011576D02*
X026662Y011576D01*
X026564Y011675D02*
X029850Y011675D01*
X029850Y010985D02*
X018823Y010985D01*
X018823Y010887D02*
X029850Y010887D01*
X029850Y010788D02*
X018823Y010788D01*
X018823Y010690D02*
X029850Y010690D01*
X029850Y010591D02*
X018823Y010591D01*
X018767Y010493D02*
X029850Y010493D01*
X029850Y010394D02*
X014455Y010394D01*
X014455Y010296D02*
X016361Y010296D01*
X016395Y010330D02*
X016143Y010078D01*
X016143Y009722D01*
X016395Y009470D01*
X016751Y009470D01*
X017003Y009722D01*
X017003Y010078D01*
X016751Y010330D01*
X016395Y010330D01*
X016326Y010472D02*
X016820Y010472D01*
X017169Y010821D01*
X017169Y011314D01*
X016820Y011663D01*
X016326Y011663D01*
X015977Y011314D01*
X015977Y010821D01*
X016326Y010472D01*
X016306Y010493D02*
X014455Y010493D01*
X014455Y010591D02*
X016207Y010591D01*
X016109Y010690D02*
X014394Y010690D01*
X014379Y010705D02*
X013671Y010705D01*
X013595Y010629D01*
X013595Y009921D01*
X013671Y009845D01*
X014379Y009845D01*
X014455Y009921D01*
X014455Y010629D01*
X014379Y010705D01*
X013656Y010690D02*
X012159Y010690D01*
X012159Y010788D02*
X016010Y010788D01*
X015977Y010887D02*
X012159Y010887D01*
X012159Y010985D02*
X015977Y010985D01*
X015977Y011084D02*
X012159Y011084D01*
X012159Y011182D02*
X015977Y011182D01*
X015977Y011281D02*
X012159Y011281D01*
X012159Y011379D02*
X016042Y011379D01*
X016141Y011478D02*
X012159Y011478D01*
X012159Y011576D02*
X016239Y011576D01*
X016907Y011576D02*
X017631Y011576D01*
X017631Y011478D02*
X017006Y011478D01*
X017104Y011379D02*
X017631Y011379D01*
X017631Y011281D02*
X017169Y011281D01*
X017169Y011182D02*
X017631Y011182D01*
X017631Y011084D02*
X017169Y011084D01*
X017169Y010985D02*
X017631Y010985D01*
X017631Y010887D02*
X017169Y010887D01*
X017136Y010788D02*
X017631Y010788D01*
X017631Y010690D02*
X017038Y010690D01*
X016939Y010591D02*
X017631Y010591D01*
X017686Y010493D02*
X016841Y010493D01*
X016786Y010296D02*
X018014Y010296D01*
X018049Y010330D02*
X017797Y010078D01*
X017797Y009722D01*
X017934Y009585D01*
X017666Y009585D01*
X017590Y009509D01*
X017590Y009041D01*
X017666Y008965D01*
X018100Y008965D01*
X018100Y008800D01*
X018125Y008775D01*
X018100Y008750D01*
X018100Y008131D01*
X018176Y008054D01*
X018874Y008054D01*
X018890Y008070D01*
X018917Y008070D01*
X018962Y008025D01*
X018840Y007903D01*
X018840Y007647D01*
X018962Y007525D01*
X018840Y007403D01*
X018840Y007147D01*
X018962Y007025D01*
X018840Y006903D01*
X018840Y006647D01*
X019022Y006465D01*
X019278Y006465D01*
X019460Y006647D01*
X019460Y006903D01*
X019338Y007025D01*
X019460Y007147D01*
X019460Y007403D01*
X019338Y007525D01*
X019460Y007647D01*
X019460Y007903D01*
X019338Y008025D01*
X019413Y008099D01*
X019460Y008213D01*
X019460Y008337D01*
X019413Y008451D01*
X019326Y008538D01*
X019212Y008585D01*
X019088Y008585D01*
X018974Y008538D01*
X018950Y008514D01*
X018950Y008750D01*
X018925Y008775D01*
X018950Y008800D01*
X018950Y009419D01*
X018874Y009496D01*
X018430Y009496D01*
X018657Y009722D01*
X018657Y010078D01*
X018405Y010330D01*
X018049Y010330D01*
X017916Y010197D02*
X016884Y010197D01*
X016983Y010099D02*
X017817Y010099D01*
X017797Y010000D02*
X017003Y010000D01*
X017003Y009902D02*
X017797Y009902D01*
X017797Y009803D02*
X017003Y009803D01*
X016986Y009705D02*
X017814Y009705D01*
X017913Y009606D02*
X016887Y009606D01*
X016789Y009508D02*
X017590Y009508D01*
X017590Y009409D02*
X003275Y009409D01*
X003275Y009311D02*
X017590Y009311D01*
X017590Y009212D02*
X003275Y009212D01*
X003275Y009114D02*
X017590Y009114D01*
X017616Y009015D02*
X003275Y009015D01*
X003275Y008917D02*
X006472Y008917D01*
X006533Y008942D02*
X006318Y008853D01*
X006153Y008688D01*
X006064Y008472D01*
X006064Y007328D01*
X006153Y007112D01*
X006318Y006947D01*
X006533Y006858D01*
X006767Y006858D01*
X006982Y006947D01*
X007147Y007112D01*
X007236Y007328D01*
X007236Y008472D01*
X007147Y008688D01*
X006982Y008853D01*
X006767Y008942D01*
X006533Y008942D01*
X006284Y008818D02*
X003275Y008818D01*
X003275Y008720D02*
X006185Y008720D01*
X006126Y008621D02*
X003275Y008621D01*
X003275Y008523D02*
X006085Y008523D01*
X006064Y008424D02*
X003275Y008424D01*
X003275Y008326D02*
X006064Y008326D01*
X006064Y008227D02*
X003275Y008227D01*
X003275Y008129D02*
X006064Y008129D01*
X006064Y008030D02*
X003275Y008030D01*
X003275Y007932D02*
X006064Y007932D01*
X006064Y007833D02*
X003275Y007833D01*
X003275Y007735D02*
X006064Y007735D01*
X006064Y007636D02*
X003275Y007636D01*
X003275Y007538D02*
X006064Y007538D01*
X006064Y007439D02*
X003275Y007439D01*
X003275Y007341D02*
X006064Y007341D01*
X006100Y007242D02*
X003275Y007242D01*
X003275Y007144D02*
X006140Y007144D01*
X006220Y007045D02*
X003275Y007045D01*
X003275Y006947D02*
X006320Y006947D01*
X006980Y006947D02*
X008608Y006947D01*
X008598Y006952D02*
X008679Y006910D01*
X008765Y006882D01*
X008850Y006869D01*
X008850Y007850D01*
X008324Y007850D01*
X008324Y007399D01*
X008338Y007309D01*
X008366Y007223D01*
X008407Y007142D01*
X008461Y007069D01*
X008525Y007005D01*
X008598Y006952D01*
X008485Y007045D02*
X007080Y007045D01*
X007160Y007144D02*
X008407Y007144D01*
X008360Y007242D02*
X007200Y007242D01*
X007236Y007341D02*
X008333Y007341D01*
X008324Y007439D02*
X007236Y007439D01*
X007236Y007538D02*
X008324Y007538D01*
X008324Y007636D02*
X007236Y007636D01*
X007236Y007735D02*
X008324Y007735D01*
X008324Y007833D02*
X007236Y007833D01*
X007236Y007932D02*
X008850Y007932D01*
X008850Y007950D02*
X008850Y007850D01*
X008950Y007850D01*
X008950Y007950D01*
X008850Y007950D01*
X008850Y008931D01*
X008765Y008918D01*
X008679Y008890D01*
X008598Y008848D01*
X008525Y008795D01*
X008461Y008731D01*
X008407Y008658D01*
X008366Y008577D01*
X008338Y008491D01*
X008324Y008401D01*
X008324Y007950D01*
X008850Y007950D01*
X008850Y008030D02*
X008950Y008030D01*
X008950Y007950D02*
X008950Y008931D01*
X009035Y008918D01*
X009121Y008890D01*
X009202Y008848D01*
X009275Y008795D01*
X009339Y008731D01*
X009393Y008658D01*
X009434Y008577D01*
X009462Y008491D01*
X009476Y008401D01*
X009476Y007950D01*
X008950Y007950D01*
X008950Y007932D02*
X015368Y007932D01*
X015340Y007903D02*
X015340Y007647D01*
X015462Y007525D01*
X015340Y007403D01*
X015340Y007147D01*
X015462Y007025D01*
X015387Y006951D01*
X015340Y006837D01*
X015340Y006713D01*
X015387Y006599D01*
X015474Y006512D01*
X015588Y006465D01*
X015712Y006465D01*
X015826Y006512D01*
X015883Y006570D01*
X015975Y006570D01*
X015975Y006300D01*
X016000Y006275D01*
X015975Y006250D01*
X015975Y005980D01*
X015960Y005980D01*
X015960Y006009D01*
X015884Y006085D01*
X015416Y006085D01*
X015340Y006009D01*
X015340Y005541D01*
X015416Y005465D01*
X015884Y005465D01*
X015960Y005541D01*
X015960Y005570D01*
X016035Y005570D01*
X016051Y005554D01*
X016749Y005554D01*
X016825Y005631D01*
X016825Y006250D01*
X016800Y006275D01*
X016825Y006300D01*
X016825Y006919D01*
X016749Y006996D01*
X016051Y006996D01*
X016035Y006980D01*
X015883Y006980D01*
X015838Y007025D01*
X015960Y007147D01*
X015960Y007403D01*
X015838Y007525D01*
X015960Y007647D01*
X015960Y007903D01*
X015838Y008025D01*
X015960Y008147D01*
X015960Y008403D01*
X015778Y008585D01*
X015522Y008585D01*
X015340Y008403D01*
X015340Y008147D01*
X015462Y008025D01*
X015340Y007903D01*
X015340Y007833D02*
X009476Y007833D01*
X009476Y007850D02*
X008950Y007850D01*
X008950Y006869D01*
X009035Y006882D01*
X009121Y006910D01*
X009202Y006952D01*
X009275Y007005D01*
X009339Y007069D01*
X009393Y007142D01*
X009434Y007223D01*
X009462Y007309D01*
X009476Y007399D01*
X009476Y007850D01*
X009476Y007735D02*
X015340Y007735D01*
X015351Y007636D02*
X009476Y007636D01*
X009476Y007538D02*
X015449Y007538D01*
X015376Y007439D02*
X009476Y007439D01*
X009467Y007341D02*
X015340Y007341D01*
X015340Y007242D02*
X009440Y007242D01*
X009393Y007144D02*
X015343Y007144D01*
X015442Y007045D02*
X009315Y007045D01*
X009192Y006947D02*
X015386Y006947D01*
X015345Y006848D02*
X003275Y006848D01*
X003275Y006750D02*
X015340Y006750D01*
X015366Y006651D02*
X003275Y006651D01*
X003275Y006553D02*
X015434Y006553D01*
X015866Y006553D02*
X015975Y006553D01*
X015975Y006454D02*
X003275Y006454D01*
X003275Y006356D02*
X015975Y006356D01*
X015982Y006257D02*
X003275Y006257D01*
X003275Y006159D02*
X015975Y006159D01*
X015975Y006060D02*
X015909Y006060D01*
X015391Y006060D02*
X003275Y006060D01*
X003275Y005962D02*
X015340Y005962D01*
X015340Y005863D02*
X003275Y005863D01*
X003275Y005765D02*
X015340Y005765D01*
X015340Y005666D02*
X003275Y005666D01*
X003275Y005568D02*
X015340Y005568D01*
X015412Y005469D02*
X003275Y005469D01*
X003275Y005371D02*
X003817Y005371D01*
X003803Y005368D02*
X003731Y005345D01*
X003663Y005311D01*
X003602Y005266D01*
X003549Y005213D01*
X003504Y005152D01*
X003470Y005084D01*
X003447Y005012D01*
X003437Y004950D01*
X004225Y004950D01*
X004225Y005380D01*
X003877Y005380D01*
X003803Y005368D01*
X003610Y005272D02*
X003275Y005272D01*
X003275Y005174D02*
X003520Y005174D01*
X003467Y005075D02*
X003275Y005075D01*
X003275Y004977D02*
X003441Y004977D01*
X003437Y004850D02*
X003447Y004788D01*
X003470Y004716D01*
X003504Y004648D01*
X003549Y004587D01*
X003602Y004534D01*
X003663Y004489D01*
X003731Y004455D01*
X003803Y004432D01*
X003877Y004420D01*
X004225Y004420D01*
X004225Y004850D01*
X004325Y004850D01*
X004325Y004950D01*
X004225Y004950D01*
X004225Y004850D01*
X003437Y004850D01*
X003449Y004780D02*
X003275Y004780D01*
X003275Y004878D02*
X004225Y004878D01*
X004225Y004780D02*
X004325Y004780D01*
X004325Y004850D02*
X004325Y004420D01*
X004673Y004420D01*
X004747Y004432D01*
X004819Y004455D01*
X004887Y004489D01*
X004948Y004534D01*
X005001Y004587D01*
X005046Y004648D01*
X005080Y004716D01*
X005103Y004788D01*
X005113Y004850D01*
X004325Y004850D01*
X004325Y004878D02*
X018100Y004878D01*
X018100Y004800D02*
X018125Y004775D01*
X018100Y004750D01*
X018100Y004131D01*
X018176Y004054D01*
X018320Y004054D01*
X018320Y003815D01*
X018440Y003695D01*
X018917Y003695D01*
X018962Y003650D01*
X018840Y003528D01*
X018840Y003272D01*
X018962Y003150D01*
X018840Y003028D01*
X018840Y002772D01*
X018962Y002650D01*
X018840Y002528D01*
X018840Y002272D01*
X019022Y002090D01*
X019278Y002090D01*
X019460Y002272D01*
X019460Y002528D01*
X019338Y002650D01*
X019460Y002772D01*
X019460Y003028D01*
X019338Y003150D01*
X019460Y003272D01*
X019460Y003528D01*
X019338Y003650D01*
X019413Y003724D01*
X019460Y003838D01*
X019460Y003962D01*
X019413Y004076D01*
X019326Y004163D01*
X019212Y004210D01*
X019088Y004210D01*
X018974Y004163D01*
X018950Y004139D01*
X018950Y004750D01*
X018925Y004775D01*
X018950Y004800D01*
X018950Y005215D01*
X019384Y005215D01*
X019460Y005291D01*
X019460Y005759D01*
X019384Y005835D01*
X018916Y005835D01*
X018840Y005759D01*
X018840Y005730D01*
X018440Y005730D01*
X018320Y005610D01*
X018320Y005496D01*
X018176Y005496D01*
X018100Y005419D01*
X018100Y004800D01*
X018120Y004780D02*
X005101Y004780D01*
X005062Y004681D02*
X018100Y004681D01*
X018100Y004583D02*
X004996Y004583D01*
X004876Y004484D02*
X010385Y004484D01*
X010386Y004485D02*
X010190Y004289D01*
X010190Y004011D01*
X010386Y003815D01*
X010664Y003815D01*
X010860Y004011D01*
X010860Y004289D01*
X010664Y004485D01*
X010386Y004485D01*
X010287Y004386D02*
X004743Y004386D01*
X004732Y004390D02*
X003818Y004390D01*
X003637Y004315D01*
X003500Y004178D01*
X003425Y003997D01*
X003425Y003803D01*
X003500Y003622D01*
X003637Y003485D01*
X003818Y003410D01*
X004732Y003410D01*
X004913Y003485D01*
X005050Y003622D01*
X005125Y003803D01*
X005125Y003997D01*
X005050Y004178D01*
X004913Y004315D01*
X004732Y004390D01*
X004941Y004287D02*
X010190Y004287D01*
X010190Y004189D02*
X005039Y004189D01*
X005087Y004090D02*
X010190Y004090D01*
X010210Y003992D02*
X005125Y003992D01*
X005125Y003893D02*
X010308Y003893D01*
X010742Y003893D02*
X012808Y003893D01*
X012886Y003815D02*
X012690Y004011D01*
X012690Y004289D01*
X012886Y004485D01*
X013164Y004485D01*
X013360Y004289D01*
X013360Y004011D01*
X013164Y003815D01*
X012886Y003815D01*
X012710Y003992D02*
X010840Y003992D01*
X010860Y004090D02*
X012690Y004090D01*
X012690Y004189D02*
X010860Y004189D01*
X010860Y004287D02*
X012690Y004287D01*
X012787Y004386D02*
X010763Y004386D01*
X010665Y004484D02*
X012885Y004484D01*
X013165Y004484D02*
X018100Y004484D01*
X018100Y004386D02*
X013263Y004386D01*
X013360Y004287D02*
X018100Y004287D01*
X018100Y004189D02*
X015800Y004189D01*
X015778Y004210D02*
X015522Y004210D01*
X015340Y004028D01*
X015340Y003772D01*
X015462Y003650D01*
X015340Y003528D01*
X015340Y003272D01*
X015462Y003150D01*
X015340Y003028D01*
X015340Y002772D01*
X015462Y002650D01*
X015387Y002576D01*
X015340Y002462D01*
X015340Y002338D01*
X015387Y002224D01*
X015474Y002137D01*
X015588Y002090D01*
X015712Y002090D01*
X015826Y002137D01*
X015883Y002195D01*
X015975Y002195D01*
X015975Y001925D01*
X016000Y001900D01*
X015975Y001875D01*
X015975Y001605D01*
X015960Y001605D01*
X015960Y001634D01*
X015884Y001710D01*
X015416Y001710D01*
X015340Y001634D01*
X015340Y001166D01*
X015416Y001090D01*
X015884Y001090D01*
X015960Y001166D01*
X015960Y001195D01*
X016035Y001195D01*
X016051Y001179D01*
X016749Y001179D01*
X016825Y001256D01*
X016825Y001875D01*
X016800Y001900D01*
X016825Y001925D01*
X016825Y002544D01*
X016749Y002621D01*
X016051Y002621D01*
X016035Y002605D01*
X015883Y002605D01*
X015838Y002650D01*
X015960Y002772D01*
X015960Y003028D01*
X015838Y003150D01*
X015960Y003272D01*
X015960Y003528D01*
X015838Y003650D01*
X015960Y003772D01*
X015960Y004028D01*
X015778Y004210D01*
X015898Y004090D02*
X018140Y004090D01*
X018320Y003992D02*
X015960Y003992D01*
X015960Y003893D02*
X018320Y003893D01*
X018341Y003795D02*
X015960Y003795D01*
X015884Y003696D02*
X018439Y003696D01*
X018840Y003499D02*
X015960Y003499D01*
X015960Y003401D02*
X018840Y003401D01*
X018840Y003302D02*
X015960Y003302D01*
X015892Y003204D02*
X018908Y003204D01*
X018917Y003105D02*
X015883Y003105D01*
X015960Y003007D02*
X018840Y003007D01*
X018840Y002908D02*
X015960Y002908D01*
X015960Y002810D02*
X018840Y002810D01*
X018901Y002711D02*
X015899Y002711D01*
X015876Y002613D02*
X016043Y002613D01*
X015424Y002613D02*
X009486Y002613D01*
X009486Y002711D02*
X015401Y002711D01*
X015340Y002810D02*
X009486Y002810D01*
X009486Y002908D02*
X015340Y002908D01*
X015340Y003007D02*
X009472Y003007D01*
X009486Y002972D02*
X009397Y003188D01*
X009232Y003353D01*
X009017Y003442D01*
X008783Y003442D01*
X008568Y003353D01*
X008403Y003188D01*
X008314Y002972D01*
X008314Y001828D01*
X008403Y001612D01*
X008568Y001447D01*
X008783Y001358D01*
X009017Y001358D01*
X009232Y001447D01*
X009397Y001612D01*
X009486Y001828D01*
X009486Y002972D01*
X009431Y003105D02*
X015417Y003105D01*
X015408Y003204D02*
X009381Y003204D01*
X009282Y003302D02*
X015340Y003302D01*
X015340Y003401D02*
X009116Y003401D01*
X008684Y003401D02*
X006838Y003401D01*
X006871Y003390D02*
X006785Y003418D01*
X006700Y003431D01*
X006700Y002450D01*
X006600Y002450D01*
X006600Y003431D01*
X006515Y003418D01*
X006429Y003390D01*
X006348Y003348D01*
X006275Y003295D01*
X006211Y003231D01*
X006157Y003158D01*
X006116Y003077D01*
X006088Y002991D01*
X006074Y002901D01*
X006074Y002450D01*
X006600Y002450D01*
X006600Y002350D01*
X006074Y002350D01*
X006074Y001899D01*
X006088Y001809D01*
X006116Y001723D01*
X006157Y001642D01*
X006211Y001569D01*
X006275Y001505D01*
X006348Y001452D01*
X006429Y001410D01*
X006515Y001382D01*
X006600Y001369D01*
X006600Y002350D01*
X006700Y002350D01*
X006700Y002450D01*
X007226Y002450D01*
X007226Y002901D01*
X007212Y002991D01*
X007184Y003077D01*
X007143Y003158D01*
X007089Y003231D01*
X007025Y003295D01*
X006952Y003348D01*
X006871Y003390D01*
X007016Y003302D02*
X008518Y003302D01*
X008419Y003204D02*
X007109Y003204D01*
X007169Y003105D02*
X008369Y003105D01*
X008328Y003007D02*
X007207Y003007D01*
X007225Y002908D02*
X008314Y002908D01*
X008314Y002810D02*
X007226Y002810D01*
X007226Y002711D02*
X008314Y002711D01*
X008314Y002613D02*
X007226Y002613D01*
X007226Y002514D02*
X008314Y002514D01*
X008314Y002416D02*
X006700Y002416D01*
X006700Y002350D02*
X007226Y002350D01*
X007226Y001899D01*
X007212Y001809D01*
X007184Y001723D01*
X007143Y001642D01*
X007089Y001569D01*
X007025Y001505D01*
X006952Y001452D01*
X006871Y001410D01*
X006785Y001382D01*
X006700Y001369D01*
X006700Y002350D01*
X006700Y002317D02*
X006600Y002317D01*
X006600Y002219D02*
X006700Y002219D01*
X006700Y002120D02*
X006600Y002120D01*
X006600Y002022D02*
X006700Y002022D01*
X006700Y001923D02*
X006600Y001923D01*
X006600Y001825D02*
X006700Y001825D01*
X006700Y001726D02*
X006600Y001726D01*
X006600Y001628D02*
X006700Y001628D01*
X006700Y001529D02*
X006600Y001529D01*
X006600Y001431D02*
X006700Y001431D01*
X006911Y001431D02*
X008609Y001431D01*
X008486Y001529D02*
X007049Y001529D01*
X007132Y001628D02*
X008397Y001628D01*
X008356Y001726D02*
X007185Y001726D01*
X007214Y001825D02*
X008315Y001825D01*
X008314Y001923D02*
X007226Y001923D01*
X007226Y002022D02*
X008314Y002022D01*
X008314Y002120D02*
X007226Y002120D01*
X007226Y002219D02*
X008314Y002219D01*
X008314Y002317D02*
X007226Y002317D01*
X006700Y002514D02*
X006600Y002514D01*
X006600Y002416D02*
X004746Y002416D01*
X004732Y002410D02*
X004913Y002485D01*
X005050Y002622D01*
X005125Y002803D01*
X005125Y002997D01*
X005050Y003178D01*
X004913Y003315D01*
X004732Y003390D01*
X003818Y003390D01*
X003637Y003315D01*
X003500Y003178D01*
X003425Y002997D01*
X003425Y002803D01*
X003500Y002622D01*
X003637Y002485D01*
X003818Y002410D01*
X004732Y002410D01*
X004942Y002514D02*
X006074Y002514D01*
X006074Y002613D02*
X005040Y002613D01*
X005087Y002711D02*
X006074Y002711D01*
X006074Y002810D02*
X005125Y002810D01*
X005125Y002908D02*
X006075Y002908D01*
X006093Y003007D02*
X005121Y003007D01*
X005080Y003105D02*
X006131Y003105D01*
X006191Y003204D02*
X005024Y003204D01*
X004926Y003302D02*
X006284Y003302D01*
X006462Y003401D02*
X003275Y003401D01*
X003275Y003499D02*
X003623Y003499D01*
X003525Y003598D02*
X003275Y003598D01*
X003275Y003696D02*
X003469Y003696D01*
X003428Y003795D02*
X003275Y003795D01*
X003275Y003893D02*
X003425Y003893D01*
X003425Y003992D02*
X003275Y003992D01*
X003275Y004090D02*
X003463Y004090D01*
X003511Y004189D02*
X003275Y004189D01*
X003275Y004287D02*
X003609Y004287D01*
X003807Y004386D02*
X003275Y004386D01*
X003275Y004484D02*
X003674Y004484D01*
X003554Y004583D02*
X003275Y004583D01*
X003275Y004681D02*
X003488Y004681D01*
X004225Y004681D02*
X004325Y004681D01*
X004325Y004583D02*
X004225Y004583D01*
X004225Y004484D02*
X004325Y004484D01*
X004325Y004950D02*
X005113Y004950D01*
X005103Y005012D01*
X005080Y005084D01*
X005046Y005152D01*
X005001Y005213D01*
X004948Y005266D01*
X004887Y005311D01*
X004819Y005345D01*
X004747Y005368D01*
X004673Y005380D01*
X004325Y005380D01*
X004325Y004950D01*
X004325Y004977D02*
X004225Y004977D01*
X004225Y005075D02*
X004325Y005075D01*
X004325Y005174D02*
X004225Y005174D01*
X004225Y005272D02*
X004325Y005272D01*
X004325Y005371D02*
X004225Y005371D01*
X004733Y005371D02*
X018100Y005371D01*
X018100Y005272D02*
X004940Y005272D01*
X005030Y005174D02*
X018100Y005174D01*
X018100Y005075D02*
X005083Y005075D01*
X005109Y004977D02*
X018100Y004977D01*
X018149Y005469D02*
X015888Y005469D01*
X015960Y005568D02*
X016038Y005568D01*
X016762Y005568D02*
X018320Y005568D01*
X018376Y005666D02*
X016825Y005666D01*
X016825Y005765D02*
X018846Y005765D01*
X019454Y005765D02*
X029850Y005765D01*
X029850Y005863D02*
X025279Y005863D01*
X025236Y005845D02*
X025394Y005910D01*
X025515Y006031D01*
X025580Y006189D01*
X025580Y006361D01*
X025515Y006519D01*
X025394Y006640D01*
X025236Y006705D01*
X025064Y006705D01*
X024906Y006640D01*
X024785Y006519D01*
X024720Y006361D01*
X024720Y006189D01*
X024785Y006031D01*
X024906Y005910D01*
X025064Y005845D01*
X025236Y005845D01*
X025328Y005705D02*
X024972Y005705D01*
X024720Y005453D01*
X024720Y005097D01*
X024972Y004845D01*
X025328Y004845D01*
X025580Y005097D01*
X025580Y005453D01*
X025328Y005705D01*
X025367Y005666D02*
X029850Y005666D01*
X029850Y005568D02*
X025466Y005568D01*
X025564Y005469D02*
X029850Y005469D01*
X029850Y005371D02*
X025580Y005371D01*
X025580Y005272D02*
X029850Y005272D01*
X029850Y005174D02*
X025580Y005174D01*
X025558Y005075D02*
X029850Y005075D01*
X029850Y004977D02*
X025460Y004977D01*
X025361Y004878D02*
X029850Y004878D01*
X029850Y004780D02*
X018930Y004780D01*
X018950Y004878D02*
X024939Y004878D01*
X024840Y004977D02*
X018950Y004977D01*
X018950Y005075D02*
X024742Y005075D01*
X024720Y005174D02*
X018950Y005174D01*
X019441Y005272D02*
X024720Y005272D01*
X024720Y005371D02*
X019460Y005371D01*
X019460Y005469D02*
X024736Y005469D01*
X024834Y005568D02*
X019460Y005568D01*
X019460Y005666D02*
X024933Y005666D01*
X025021Y005863D02*
X016825Y005863D01*
X016825Y005962D02*
X024855Y005962D01*
X024774Y006060D02*
X016825Y006060D01*
X016825Y006159D02*
X024733Y006159D01*
X024720Y006257D02*
X016818Y006257D01*
X016825Y006356D02*
X024720Y006356D01*
X024759Y006454D02*
X016825Y006454D01*
X016825Y006553D02*
X018934Y006553D01*
X018840Y006651D02*
X016825Y006651D01*
X016825Y006750D02*
X018840Y006750D01*
X018840Y006848D02*
X016825Y006848D01*
X016798Y006947D02*
X018883Y006947D01*
X018942Y007045D02*
X015858Y007045D01*
X015957Y007144D02*
X018843Y007144D01*
X018840Y007242D02*
X015960Y007242D01*
X015960Y007341D02*
X018840Y007341D01*
X018876Y007439D02*
X015924Y007439D01*
X015851Y007538D02*
X018949Y007538D01*
X018851Y007636D02*
X015949Y007636D01*
X015960Y007735D02*
X018840Y007735D01*
X018840Y007833D02*
X015960Y007833D01*
X015932Y007932D02*
X018868Y007932D01*
X018957Y008030D02*
X015843Y008030D01*
X015942Y008129D02*
X018102Y008129D01*
X018100Y008227D02*
X015960Y008227D01*
X015960Y008326D02*
X018100Y008326D01*
X018100Y008424D02*
X015939Y008424D01*
X015841Y008523D02*
X018100Y008523D01*
X018100Y008621D02*
X009411Y008621D01*
X009451Y008523D02*
X015459Y008523D01*
X015361Y008424D02*
X009472Y008424D01*
X009476Y008326D02*
X015340Y008326D01*
X015340Y008227D02*
X009476Y008227D01*
X009476Y008129D02*
X015358Y008129D01*
X015457Y008030D02*
X009476Y008030D01*
X008950Y008129D02*
X008850Y008129D01*
X008850Y008227D02*
X008950Y008227D01*
X008950Y008326D02*
X008850Y008326D01*
X008850Y008424D02*
X008950Y008424D01*
X008950Y008523D02*
X008850Y008523D01*
X008850Y008621D02*
X008950Y008621D01*
X008950Y008720D02*
X008850Y008720D01*
X008850Y008818D02*
X008950Y008818D01*
X008950Y008917D02*
X008850Y008917D01*
X008762Y008917D02*
X006828Y008917D01*
X007016Y008818D02*
X008556Y008818D01*
X008452Y008720D02*
X007115Y008720D01*
X007174Y008621D02*
X008389Y008621D01*
X008349Y008523D02*
X007215Y008523D01*
X007236Y008424D02*
X008328Y008424D01*
X008324Y008326D02*
X007236Y008326D01*
X007236Y008227D02*
X008324Y008227D01*
X008324Y008129D02*
X007236Y008129D01*
X007236Y008030D02*
X008324Y008030D01*
X008850Y007833D02*
X008950Y007833D01*
X008950Y007735D02*
X008850Y007735D01*
X008850Y007636D02*
X008950Y007636D01*
X008950Y007538D02*
X008850Y007538D01*
X008850Y007439D02*
X008950Y007439D01*
X008950Y007341D02*
X008850Y007341D01*
X008850Y007242D02*
X008950Y007242D01*
X008950Y007144D02*
X008850Y007144D01*
X008850Y007045D02*
X008950Y007045D01*
X008950Y006947D02*
X008850Y006947D01*
X009348Y008720D02*
X018100Y008720D01*
X018100Y008818D02*
X009244Y008818D01*
X009038Y008917D02*
X018100Y008917D01*
X018950Y008917D02*
X029850Y008917D01*
X029850Y009015D02*
X018950Y009015D01*
X018950Y009114D02*
X029850Y009114D01*
X029850Y009212D02*
X018950Y009212D01*
X018950Y009311D02*
X029850Y009311D01*
X029850Y009409D02*
X018950Y009409D01*
X018639Y009705D02*
X029850Y009705D01*
X029850Y009803D02*
X018657Y009803D01*
X018657Y009902D02*
X029850Y009902D01*
X029850Y010000D02*
X018657Y010000D01*
X018636Y010099D02*
X029850Y010099D01*
X029850Y010197D02*
X018538Y010197D01*
X018439Y010296D02*
X029850Y010296D01*
X029850Y009606D02*
X018541Y009606D01*
X018442Y009508D02*
X029850Y009508D01*
X029850Y008818D02*
X018950Y008818D01*
X018950Y008720D02*
X029850Y008720D01*
X029850Y008621D02*
X025580Y008621D01*
X025580Y008629D02*
X025504Y008705D01*
X024796Y008705D01*
X024720Y008629D01*
X024720Y007921D01*
X024796Y007845D01*
X025504Y007845D01*
X025580Y007921D01*
X025580Y008629D01*
X025580Y008523D02*
X029850Y008523D01*
X029850Y008424D02*
X025580Y008424D01*
X025580Y008326D02*
X029850Y008326D01*
X029850Y008227D02*
X025580Y008227D01*
X025580Y008129D02*
X029850Y008129D01*
X029850Y008030D02*
X025580Y008030D01*
X025580Y007932D02*
X029850Y007932D01*
X029850Y007833D02*
X019460Y007833D01*
X019460Y007735D02*
X029850Y007735D01*
X029850Y007636D02*
X025397Y007636D01*
X025394Y007640D02*
X025236Y007705D01*
X025064Y007705D01*
X024906Y007640D01*
X024785Y007519D01*
X024720Y007361D01*
X024720Y007189D01*
X024785Y007031D01*
X024906Y006910D01*
X025064Y006845D01*
X025236Y006845D01*
X025394Y006910D01*
X025515Y007031D01*
X025580Y007189D01*
X025580Y007361D01*
X025515Y007519D01*
X025394Y007640D01*
X025496Y007538D02*
X029850Y007538D01*
X029850Y007439D02*
X025547Y007439D01*
X025580Y007341D02*
X029850Y007341D01*
X029850Y007242D02*
X025580Y007242D01*
X025561Y007144D02*
X029850Y007144D01*
X029850Y007045D02*
X025520Y007045D01*
X025430Y006947D02*
X029850Y006947D01*
X029850Y006848D02*
X025243Y006848D01*
X025057Y006848D02*
X019460Y006848D01*
X019460Y006750D02*
X029850Y006750D01*
X029850Y006651D02*
X025366Y006651D01*
X025481Y006553D02*
X029850Y006553D01*
X029850Y006454D02*
X025541Y006454D01*
X025580Y006356D02*
X029850Y006356D01*
X029850Y006257D02*
X025580Y006257D01*
X025567Y006159D02*
X029850Y006159D01*
X029850Y006060D02*
X025526Y006060D01*
X025445Y005962D02*
X029850Y005962D01*
X029850Y004681D02*
X025352Y004681D01*
X025328Y004705D02*
X024972Y004705D01*
X024720Y004453D01*
X024720Y004097D01*
X024972Y003845D01*
X025328Y003845D01*
X025580Y004097D01*
X025580Y004453D01*
X025328Y004705D01*
X025451Y004583D02*
X029850Y004583D01*
X029850Y004484D02*
X025549Y004484D01*
X025580Y004386D02*
X029850Y004386D01*
X029850Y004287D02*
X025580Y004287D01*
X025580Y004189D02*
X029850Y004189D01*
X029850Y004090D02*
X025573Y004090D01*
X025475Y003992D02*
X029850Y003992D01*
X029850Y003893D02*
X025376Y003893D01*
X024924Y003893D02*
X019460Y003893D01*
X019448Y003992D02*
X024825Y003992D01*
X024727Y004090D02*
X019398Y004090D01*
X019264Y004189D02*
X024720Y004189D01*
X024720Y004287D02*
X018950Y004287D01*
X018950Y004189D02*
X019036Y004189D01*
X018950Y004386D02*
X024720Y004386D01*
X024751Y004484D02*
X018950Y004484D01*
X018950Y004583D02*
X024849Y004583D01*
X024948Y004681D02*
X018950Y004681D01*
X019442Y003795D02*
X029850Y003795D01*
X029850Y003696D02*
X019384Y003696D01*
X019391Y003598D02*
X029850Y003598D01*
X029850Y003499D02*
X019460Y003499D01*
X019460Y003401D02*
X029850Y003401D01*
X029850Y003302D02*
X019460Y003302D01*
X019392Y003204D02*
X029850Y003204D01*
X029850Y003105D02*
X019383Y003105D01*
X019460Y003007D02*
X029850Y003007D01*
X029850Y002908D02*
X019460Y002908D01*
X019460Y002810D02*
X029850Y002810D01*
X029850Y002711D02*
X019399Y002711D01*
X019376Y002613D02*
X029850Y002613D01*
X029850Y002514D02*
X019460Y002514D01*
X019460Y002416D02*
X028614Y002416D01*
X028378Y002317D02*
X019460Y002317D01*
X019407Y002219D02*
X028227Y002219D01*
X028128Y002120D02*
X019308Y002120D01*
X018992Y002120D02*
X016825Y002120D01*
X016825Y002022D02*
X028041Y002022D01*
X027984Y001923D02*
X016823Y001923D01*
X016825Y001825D02*
X027927Y001825D01*
X027895Y001726D02*
X016825Y001726D01*
X016825Y001628D02*
X027869Y001628D01*
X027845Y001529D02*
X016825Y001529D01*
X016825Y001431D02*
X018887Y001431D01*
X018916Y001460D02*
X018840Y001384D01*
X018840Y000916D01*
X018916Y000840D01*
X019384Y000840D01*
X019460Y000916D01*
X019460Y001384D01*
X019384Y001460D01*
X018916Y001460D01*
X018840Y001332D02*
X016825Y001332D01*
X016803Y001234D02*
X018840Y001234D01*
X018840Y001135D02*
X015929Y001135D01*
X015371Y001135D02*
X003275Y001135D01*
X003275Y001037D02*
X018840Y001037D01*
X018840Y000938D02*
X003275Y000938D01*
X003275Y000840D02*
X028005Y000840D01*
X027949Y000938D02*
X019460Y000938D01*
X019460Y001037D02*
X027905Y001037D01*
X027879Y001135D02*
X019460Y001135D01*
X019460Y001234D02*
X027852Y001234D01*
X027845Y001332D02*
X019460Y001332D01*
X019413Y001431D02*
X027845Y001431D01*
X028067Y000741D02*
X003275Y000741D01*
X003275Y000643D02*
X028166Y000643D01*
X028273Y000544D02*
X003275Y000544D01*
X002650Y000544D02*
X000450Y000544D01*
X000450Y000643D02*
X002650Y000643D01*
X002650Y000741D02*
X000450Y000741D01*
X000450Y000840D02*
X002650Y000840D01*
X002650Y000938D02*
X000450Y000938D01*
X000450Y001037D02*
X002650Y001037D01*
X002650Y001135D02*
X000450Y001135D01*
X000450Y001234D02*
X002650Y001234D01*
X002650Y001332D02*
X000450Y001332D01*
X000450Y001431D02*
X002650Y001431D01*
X002650Y001529D02*
X000450Y001529D01*
X000450Y001628D02*
X002650Y001628D01*
X002650Y001726D02*
X000450Y001726D01*
X000450Y001825D02*
X002650Y001825D01*
X002650Y001923D02*
X000450Y001923D01*
X000450Y002022D02*
X002650Y002022D01*
X002650Y002120D02*
X000450Y002120D01*
X000450Y002219D02*
X002650Y002219D01*
X002650Y002317D02*
X000450Y002317D01*
X000450Y002416D02*
X002650Y002416D01*
X002650Y002514D02*
X000450Y002514D01*
X000450Y002613D02*
X002650Y002613D01*
X002650Y002711D02*
X000450Y002711D01*
X000450Y002810D02*
X002650Y002810D01*
X002650Y002908D02*
X000450Y002908D01*
X000450Y003007D02*
X002650Y003007D01*
X002650Y003105D02*
X000450Y003105D01*
X000450Y003204D02*
X002650Y003204D01*
X002650Y003302D02*
X000450Y003302D01*
X000450Y003401D02*
X002650Y003401D01*
X002650Y003499D02*
X000450Y003499D01*
X000450Y003598D02*
X002650Y003598D01*
X002650Y003696D02*
X000450Y003696D01*
X000450Y003795D02*
X002650Y003795D01*
X002650Y003893D02*
X000450Y003893D01*
X000450Y003992D02*
X002650Y003992D01*
X002650Y004090D02*
X000450Y004090D01*
X000450Y004189D02*
X002650Y004189D01*
X002650Y004287D02*
X000450Y004287D01*
X000450Y004386D02*
X002650Y004386D01*
X002650Y004484D02*
X000450Y004484D01*
X000450Y004583D02*
X002650Y004583D01*
X002650Y004681D02*
X000450Y004681D01*
X000450Y004780D02*
X002650Y004780D01*
X002650Y004878D02*
X000450Y004878D01*
X000450Y004977D02*
X002650Y004977D01*
X002650Y005075D02*
X000450Y005075D01*
X000450Y005174D02*
X002650Y005174D01*
X002650Y005272D02*
X000450Y005272D01*
X000450Y005371D02*
X002650Y005371D01*
X002650Y005469D02*
X000450Y005469D01*
X000450Y005568D02*
X002650Y005568D01*
X002650Y005666D02*
X000450Y005666D01*
X000450Y005765D02*
X002650Y005765D01*
X002650Y005863D02*
X000450Y005863D01*
X000450Y005962D02*
X002650Y005962D01*
X002650Y006060D02*
X000450Y006060D01*
X000450Y006159D02*
X002650Y006159D01*
X002650Y006257D02*
X000450Y006257D01*
X000450Y006356D02*
X002650Y006356D01*
X002650Y006454D02*
X000450Y006454D01*
X000450Y006553D02*
X002650Y006553D01*
X002650Y006651D02*
X000450Y006651D01*
X000450Y006750D02*
X002650Y006750D01*
X002650Y006848D02*
X000450Y006848D01*
X000450Y006947D02*
X002650Y006947D01*
X002650Y007045D02*
X000450Y007045D01*
X000450Y007144D02*
X002650Y007144D01*
X002650Y007242D02*
X000450Y007242D01*
X000450Y007341D02*
X002650Y007341D01*
X002650Y007439D02*
X000450Y007439D01*
X000450Y007538D02*
X002650Y007538D01*
X002650Y007636D02*
X000450Y007636D01*
X000450Y007735D02*
X002650Y007735D01*
X002650Y007833D02*
X000450Y007833D01*
X000450Y007932D02*
X002650Y007932D01*
X002650Y008030D02*
X000450Y008030D01*
X000450Y008129D02*
X002650Y008129D01*
X002650Y008227D02*
X000450Y008227D01*
X000450Y008326D02*
X002650Y008326D01*
X002650Y008424D02*
X000450Y008424D01*
X000450Y008523D02*
X002650Y008523D01*
X002650Y008621D02*
X000450Y008621D01*
X000450Y008720D02*
X002650Y008720D01*
X002650Y008818D02*
X000450Y008818D01*
X000450Y008917D02*
X002650Y008917D01*
X002650Y009015D02*
X000450Y009015D01*
X000450Y009114D02*
X002650Y009114D01*
X002650Y009212D02*
X000450Y009212D01*
X000450Y009311D02*
X002650Y009311D01*
X002650Y009409D02*
X000450Y009409D01*
X000450Y009508D02*
X002650Y009508D01*
X002650Y009606D02*
X000450Y009606D01*
X000450Y009705D02*
X002650Y009705D01*
X002650Y009803D02*
X000450Y009803D01*
X000450Y009902D02*
X002650Y009902D01*
X002650Y010000D02*
X000450Y010000D01*
X000450Y010099D02*
X002650Y010099D01*
X002650Y010197D02*
X000450Y010197D01*
X000450Y010296D02*
X002650Y010296D01*
X002650Y010394D02*
X000450Y010394D01*
X000450Y010493D02*
X002650Y010493D01*
X002650Y010591D02*
X000450Y010591D01*
X000450Y010690D02*
X002650Y010690D01*
X002650Y010788D02*
X000450Y010788D01*
X000450Y010887D02*
X002650Y010887D01*
X002650Y010985D02*
X000450Y010985D01*
X000450Y011084D02*
X002650Y011084D01*
X002650Y011182D02*
X000450Y011182D01*
X000450Y011281D02*
X002650Y011281D01*
X002650Y011379D02*
X000450Y011379D01*
X000450Y011478D02*
X002650Y011478D01*
X002650Y011576D02*
X000450Y011576D01*
X000450Y011675D02*
X002650Y011675D01*
X002650Y011773D02*
X000450Y011773D01*
X000450Y011872D02*
X002650Y011872D01*
X002650Y011970D02*
X000450Y011970D01*
X000450Y012069D02*
X002650Y012069D01*
X002650Y012167D02*
X000450Y012167D01*
X000450Y012266D02*
X002650Y012266D01*
X002650Y012364D02*
X000450Y012364D01*
X003275Y010788D02*
X003610Y010788D01*
X003512Y010690D02*
X003275Y010690D01*
X003275Y010591D02*
X003464Y010591D01*
X003425Y010493D02*
X003275Y010493D01*
X003275Y010394D02*
X003425Y010394D01*
X003428Y010296D02*
X003275Y010296D01*
X003275Y010197D02*
X003469Y010197D01*
X003524Y010099D02*
X003275Y010099D01*
X003275Y010000D02*
X003622Y010000D01*
X003275Y009902D02*
X007816Y009902D01*
X007816Y010000D02*
X004928Y010000D01*
X005026Y010099D02*
X007837Y010099D01*
X007816Y010078D02*
X007816Y009722D01*
X008068Y009470D01*
X008425Y009470D01*
X008676Y009722D01*
X008676Y010078D01*
X008425Y010330D01*
X008068Y010330D01*
X007816Y010078D01*
X007935Y010197D02*
X005081Y010197D01*
X005122Y010296D02*
X008034Y010296D01*
X007996Y010462D02*
X008497Y010462D01*
X008852Y010816D01*
X008852Y011318D01*
X008497Y011673D01*
X007996Y011673D01*
X007641Y011318D01*
X007641Y010816D01*
X007996Y010462D01*
X007965Y010493D02*
X005125Y010493D01*
X005125Y010394D02*
X013595Y010394D01*
X013595Y010296D02*
X011942Y010296D01*
X011907Y010330D02*
X011984Y010254D01*
X011984Y009546D01*
X011907Y009470D01*
X011200Y009470D01*
X011124Y009546D01*
X011124Y010254D01*
X011200Y010330D01*
X011907Y010330D01*
X011984Y010197D02*
X013595Y010197D01*
X013595Y010099D02*
X011984Y010099D01*
X011984Y010000D02*
X013595Y010000D01*
X013615Y009902D02*
X011984Y009902D01*
X011984Y009803D02*
X016143Y009803D01*
X016143Y009902D02*
X014435Y009902D01*
X014455Y010000D02*
X016143Y010000D01*
X016164Y010099D02*
X014455Y010099D01*
X014455Y010197D02*
X016262Y010197D01*
X016161Y009705D02*
X011984Y009705D01*
X011984Y009606D02*
X016259Y009606D01*
X016358Y009508D02*
X011945Y009508D01*
X011162Y009508D02*
X010116Y009508D01*
X010078Y009470D02*
X010330Y009722D01*
X010330Y010078D01*
X010078Y010330D01*
X009722Y010330D01*
X009470Y010078D01*
X009470Y009722D01*
X009722Y009470D01*
X010078Y009470D01*
X010214Y009606D02*
X011124Y009606D01*
X011124Y009705D02*
X010313Y009705D01*
X010330Y009803D02*
X011124Y009803D01*
X011124Y009902D02*
X010330Y009902D01*
X010330Y010000D02*
X011124Y010000D01*
X011124Y010099D02*
X010310Y010099D01*
X010211Y010197D02*
X011124Y010197D01*
X011165Y010296D02*
X010113Y010296D01*
X010151Y010462D02*
X010506Y010816D01*
X010506Y011318D01*
X010151Y011673D01*
X009649Y011673D01*
X009294Y011318D01*
X009294Y010816D01*
X009649Y010462D01*
X010151Y010462D01*
X010182Y010493D02*
X010993Y010493D01*
X011024Y010462D02*
X010948Y010538D01*
X010948Y011597D01*
X011024Y011673D01*
X012083Y011673D01*
X012159Y011597D01*
X012159Y010538D01*
X012083Y010462D01*
X011024Y010462D01*
X010948Y010591D02*
X010280Y010591D01*
X010379Y010690D02*
X010948Y010690D01*
X010948Y010788D02*
X010477Y010788D01*
X010506Y010887D02*
X010948Y010887D01*
X010948Y010985D02*
X010506Y010985D01*
X010506Y011084D02*
X010948Y011084D01*
X010948Y011182D02*
X010506Y011182D01*
X010506Y011281D02*
X010948Y011281D01*
X010948Y011379D02*
X010445Y011379D01*
X010346Y011478D02*
X010948Y011478D01*
X010948Y011576D02*
X010248Y011576D01*
X009552Y011576D02*
X008594Y011576D01*
X008693Y011478D02*
X009454Y011478D01*
X009355Y011379D02*
X008791Y011379D01*
X008852Y011281D02*
X009294Y011281D01*
X009294Y011182D02*
X008852Y011182D01*
X008852Y011084D02*
X009294Y011084D01*
X009294Y010985D02*
X008852Y010985D01*
X008852Y010887D02*
X009294Y010887D01*
X009323Y010788D02*
X008824Y010788D01*
X008725Y010690D02*
X009421Y010690D01*
X009520Y010591D02*
X008627Y010591D01*
X008528Y010493D02*
X009618Y010493D01*
X009687Y010296D02*
X008459Y010296D01*
X008558Y010197D02*
X009589Y010197D01*
X009490Y010099D02*
X008656Y010099D01*
X008676Y010000D02*
X009470Y010000D01*
X009470Y009902D02*
X008676Y009902D01*
X008676Y009803D02*
X009470Y009803D01*
X009487Y009705D02*
X008659Y009705D01*
X008561Y009606D02*
X009586Y009606D01*
X009684Y009508D02*
X008462Y009508D01*
X008031Y009508D02*
X003275Y009508D01*
X003275Y009606D02*
X007932Y009606D01*
X007834Y009705D02*
X003275Y009705D01*
X003275Y009803D02*
X007816Y009803D01*
X007866Y010591D02*
X005086Y010591D01*
X005038Y010690D02*
X005839Y010690D01*
X005736Y010788D02*
X004940Y010788D01*
X004732Y010910D02*
X003818Y010910D01*
X005075Y011182D02*
X005735Y011182D01*
X005735Y011281D02*
X005116Y011281D01*
X005125Y011379D02*
X005750Y011379D01*
X005725Y011478D02*
X005125Y011478D01*
X005092Y011576D02*
X005725Y011576D01*
X005725Y011675D02*
X005052Y011675D01*
X004955Y011773D02*
X005725Y011773D01*
X006355Y012167D02*
X021080Y012167D01*
X021258Y012069D02*
X006551Y012069D01*
X006575Y011576D02*
X007899Y011576D01*
X007800Y011478D02*
X006575Y011478D01*
X006550Y011379D02*
X007702Y011379D01*
X007641Y011281D02*
X006565Y011281D01*
X006565Y011182D02*
X007641Y011182D01*
X007641Y011084D02*
X006200Y011084D01*
X006565Y010985D02*
X007641Y010985D01*
X007641Y010887D02*
X006565Y010887D01*
X006564Y010788D02*
X007669Y010788D01*
X007768Y010690D02*
X006461Y010690D01*
X012114Y010493D02*
X013595Y010493D01*
X013595Y010591D02*
X012159Y010591D01*
X016843Y012660D02*
X017972Y012660D01*
X017984Y012647D02*
X018177Y012647D01*
X018177Y013183D01*
X017641Y013183D01*
X017641Y012990D01*
X017984Y012647D01*
X017873Y012758D02*
X016941Y012758D01*
X017040Y012857D02*
X017775Y012857D01*
X017676Y012955D02*
X017138Y012955D01*
X017169Y013054D02*
X017641Y013054D01*
X017641Y013152D02*
X017169Y013152D01*
X017169Y013251D02*
X018177Y013251D01*
X018177Y013283D02*
X018177Y013183D01*
X018277Y013183D01*
X018277Y013283D01*
X018177Y013283D01*
X018177Y013818D01*
X017984Y013818D01*
X017641Y013475D01*
X017641Y013283D01*
X018177Y013283D01*
X018177Y013349D02*
X018277Y013349D01*
X018277Y013283D02*
X018277Y013818D01*
X018469Y013818D01*
X018813Y013475D01*
X018813Y013283D01*
X018277Y013283D01*
X018277Y013251D02*
X020910Y013251D01*
X020910Y013349D02*
X018813Y013349D01*
X018813Y013448D02*
X020947Y013448D01*
X020993Y013546D02*
X018742Y013546D01*
X018643Y013645D02*
X021092Y013645D01*
X021286Y013743D02*
X018545Y013743D01*
X018277Y013743D02*
X018177Y013743D01*
X018177Y013645D02*
X018277Y013645D01*
X018277Y013546D02*
X018177Y013546D01*
X018177Y013448D02*
X018277Y013448D01*
X018277Y013183D02*
X018813Y013183D01*
X018813Y012990D01*
X018469Y012647D01*
X018277Y012647D01*
X018277Y013183D01*
X018277Y013152D02*
X018177Y013152D01*
X018177Y013054D02*
X018277Y013054D01*
X018277Y012955D02*
X018177Y012955D01*
X018177Y012857D02*
X018277Y012857D01*
X018277Y012758D02*
X018177Y012758D01*
X018177Y012660D02*
X018277Y012660D01*
X018482Y012660D02*
X020910Y012660D01*
X020910Y012758D02*
X018580Y012758D01*
X018679Y012857D02*
X020910Y012857D01*
X020910Y012955D02*
X018777Y012955D01*
X018813Y013054D02*
X020910Y013054D01*
X020910Y013152D02*
X018813Y013152D01*
X017909Y013743D02*
X016905Y013743D01*
X017004Y013645D02*
X017810Y013645D01*
X017712Y013546D02*
X017102Y013546D01*
X017169Y013448D02*
X017641Y013448D01*
X017641Y013349D02*
X017169Y013349D01*
X021564Y011675D02*
X022131Y011675D01*
X022166Y011710D02*
X022090Y011634D01*
X022090Y011166D01*
X022166Y011090D01*
X022634Y011090D01*
X022710Y011166D01*
X022710Y011634D01*
X022634Y011710D01*
X022166Y011710D01*
X022090Y011576D02*
X021662Y011576D01*
X021710Y011478D02*
X022090Y011478D01*
X022090Y011379D02*
X021710Y011379D01*
X021710Y011281D02*
X022090Y011281D01*
X022090Y011182D02*
X021620Y011182D01*
X022710Y011182D02*
X023180Y011182D01*
X023090Y011272D02*
X023272Y011090D01*
X023528Y011090D01*
X023710Y011272D01*
X023710Y011528D01*
X023528Y011710D01*
X023272Y011710D01*
X023090Y011528D01*
X023090Y011272D01*
X023090Y011281D02*
X022710Y011281D01*
X022710Y011379D02*
X023090Y011379D01*
X023090Y011478D02*
X022710Y011478D01*
X022710Y011576D02*
X023138Y011576D01*
X023236Y011675D02*
X022669Y011675D01*
X023564Y011675D02*
X024131Y011675D01*
X024166Y011710D02*
X024090Y011634D01*
X024090Y011166D01*
X024166Y011090D01*
X024634Y011090D01*
X024710Y011166D01*
X024710Y011634D01*
X024634Y011710D01*
X024166Y011710D01*
X024090Y011576D02*
X023662Y011576D01*
X023710Y011478D02*
X024090Y011478D01*
X024090Y011379D02*
X023710Y011379D01*
X023710Y011281D02*
X024090Y011281D01*
X024090Y011182D02*
X023620Y011182D01*
X024710Y011182D02*
X025180Y011182D01*
X025090Y011272D02*
X025272Y011090D01*
X025528Y011090D01*
X025710Y011272D01*
X025710Y011528D01*
X025528Y011710D01*
X025272Y011710D01*
X025090Y011528D01*
X025090Y011272D01*
X025090Y011281D02*
X024710Y011281D01*
X024710Y011379D02*
X025090Y011379D01*
X025090Y011478D02*
X024710Y011478D01*
X024710Y011576D02*
X025138Y011576D01*
X025236Y011675D02*
X024669Y011675D01*
X025564Y011675D02*
X026236Y011675D01*
X026138Y011576D02*
X025662Y011576D01*
X025710Y011478D02*
X026090Y011478D01*
X026090Y011379D02*
X025710Y011379D01*
X025710Y011281D02*
X026090Y011281D01*
X026180Y011182D02*
X025620Y011182D01*
X024720Y008621D02*
X018950Y008621D01*
X018950Y008523D02*
X018959Y008523D01*
X019341Y008523D02*
X024720Y008523D01*
X024720Y008424D02*
X019424Y008424D01*
X019460Y008326D02*
X024720Y008326D01*
X024720Y008227D02*
X019460Y008227D01*
X019425Y008129D02*
X024720Y008129D01*
X024720Y008030D02*
X019343Y008030D01*
X019432Y007932D02*
X024720Y007932D01*
X024903Y007636D02*
X019449Y007636D01*
X019351Y007538D02*
X024804Y007538D01*
X024753Y007439D02*
X019424Y007439D01*
X019460Y007341D02*
X024720Y007341D01*
X024720Y007242D02*
X019460Y007242D01*
X019457Y007144D02*
X024739Y007144D01*
X024780Y007045D02*
X019358Y007045D01*
X019417Y006947D02*
X024870Y006947D01*
X024934Y006651D02*
X019460Y006651D01*
X019366Y006553D02*
X024819Y006553D01*
X018909Y003598D02*
X015891Y003598D01*
X015409Y003598D02*
X005025Y003598D01*
X005081Y003696D02*
X015416Y003696D01*
X015340Y003795D02*
X005122Y003795D01*
X004927Y003499D02*
X015340Y003499D01*
X015340Y003893D02*
X013242Y003893D01*
X013340Y003992D02*
X015340Y003992D01*
X015402Y004090D02*
X013360Y004090D01*
X013360Y004189D02*
X015500Y004189D01*
X015362Y002514D02*
X009486Y002514D01*
X009486Y002416D02*
X015340Y002416D01*
X015349Y002317D02*
X009486Y002317D01*
X009486Y002219D02*
X015393Y002219D01*
X015516Y002120D02*
X009486Y002120D01*
X009486Y002022D02*
X015975Y002022D01*
X015975Y002120D02*
X015784Y002120D01*
X015977Y001923D02*
X009486Y001923D01*
X009485Y001825D02*
X015975Y001825D01*
X015975Y001726D02*
X009444Y001726D01*
X009403Y001628D02*
X015340Y001628D01*
X015340Y001529D02*
X009314Y001529D01*
X009191Y001431D02*
X015340Y001431D01*
X015340Y001332D02*
X003275Y001332D01*
X003275Y001234D02*
X015340Y001234D01*
X015960Y001628D02*
X015975Y001628D01*
X016825Y002219D02*
X018893Y002219D01*
X018840Y002317D02*
X016825Y002317D01*
X016825Y002416D02*
X018840Y002416D01*
X018840Y002514D02*
X016825Y002514D01*
X016757Y002613D02*
X018924Y002613D01*
X029186Y002416D02*
X029850Y002416D01*
X029850Y002317D02*
X029422Y002317D01*
X029573Y002219D02*
X029850Y002219D01*
X029850Y002120D02*
X029672Y002120D01*
X029759Y002022D02*
X029850Y002022D01*
X029850Y001923D02*
X029816Y001923D01*
X006700Y002613D02*
X006600Y002613D01*
X006600Y002711D02*
X006700Y002711D01*
X006700Y002810D02*
X006600Y002810D01*
X006600Y002908D02*
X006700Y002908D01*
X006700Y003007D02*
X006600Y003007D01*
X006600Y003105D02*
X006700Y003105D01*
X006700Y003204D02*
X006600Y003204D01*
X006600Y003302D02*
X006700Y003302D01*
X006700Y003401D02*
X006600Y003401D01*
X006074Y002317D02*
X003275Y002317D01*
X003275Y002219D02*
X006074Y002219D01*
X006074Y002120D02*
X003275Y002120D01*
X003275Y002022D02*
X006074Y002022D01*
X006074Y001923D02*
X003275Y001923D01*
X003275Y001825D02*
X006086Y001825D01*
X006115Y001726D02*
X003275Y001726D01*
X003275Y001628D02*
X006168Y001628D01*
X006251Y001529D02*
X003275Y001529D01*
X003275Y001431D02*
X006389Y001431D01*
X003804Y002416D02*
X003275Y002416D01*
X003275Y002514D02*
X003608Y002514D01*
X003510Y002613D02*
X003275Y002613D01*
X003275Y002711D02*
X003463Y002711D01*
X003425Y002810D02*
X003275Y002810D01*
X003275Y002908D02*
X003425Y002908D01*
X003429Y003007D02*
X003275Y003007D01*
X003275Y003105D02*
X003470Y003105D01*
X003526Y003204D02*
X003275Y003204D01*
X003275Y003302D02*
X003624Y003302D01*
D28*
X001400Y001400D03*
X001400Y007650D03*
X001400Y013900D03*
X028900Y013900D03*
X028900Y001400D03*
M02*
