G75*
G70*
%OFA0B0*%
%FSLAX24Y24*%
%IPPOS*%
%LPD*%
%AMOC8*
5,1,8,0,0,1.08239X$1,22.5*
%
%ADD10C,0.0000*%
%ADD11R,0.0931X0.0931*%
%ADD12OC8,0.0931*%
%ADD13R,0.0591X0.0512*%
%ADD14R,0.0866X0.0236*%
%ADD15R,0.0951X0.0951*%
%ADD16OC8,0.0951*%
%ADD17R,0.1063X0.0709*%
%ADD18R,0.0512X0.0591*%
%ADD19C,0.0912*%
%ADD20C,0.0720*%
%ADD21C,0.0150*%
%ADD22R,0.0360X0.0360*%
%ADD23R,0.0600X0.0600*%
%ADD24R,0.0410X0.0410*%
%ADD25C,0.0100*%
%ADD26C,0.0160*%
%ADD27C,0.0360*%
%ADD28C,0.0600*%
%ADD29OC8,0.0600*%
%ADD30OC8,0.0360*%
%ADD31OC8,0.0410*%
%ADD32C,0.1850*%
D10*
X000150Y000150D02*
X000150Y015150D01*
X030150Y015150D01*
X030150Y000150D01*
X000150Y000150D01*
D11*
X018227Y011067D03*
D12*
X016573Y011067D03*
X016573Y013233D03*
X018227Y013233D03*
D13*
X019025Y009860D03*
X019025Y009190D03*
X019900Y007860D03*
X020900Y007860D03*
X021900Y007860D03*
X021900Y007190D03*
X020900Y007190D03*
X019900Y007190D03*
X019900Y006235D03*
X020900Y006235D03*
X020900Y005565D03*
X019900Y005565D03*
X019900Y003485D03*
X020900Y003485D03*
X020900Y002815D03*
X019900Y002815D03*
X019900Y001860D03*
X020900Y001860D03*
X021900Y001860D03*
X022900Y002003D03*
X022900Y002672D03*
X021900Y002815D03*
X021900Y003485D03*
X021900Y001190D03*
X020900Y001190D03*
X019900Y001190D03*
X014900Y001565D03*
X014900Y002235D03*
X013900Y002235D03*
X013900Y001565D03*
X013900Y003315D03*
X013900Y003985D03*
X014900Y003985D03*
X014900Y003315D03*
X014900Y005940D03*
X014900Y006610D03*
X013900Y006610D03*
X012900Y006610D03*
X012900Y005940D03*
X013900Y005940D03*
X013900Y007690D03*
X012900Y007690D03*
X012900Y008360D03*
X013900Y008360D03*
X014900Y008360D03*
X014900Y007690D03*
X015775Y009190D03*
X015775Y009860D03*
D14*
X016376Y008275D03*
X016376Y007775D03*
X016376Y007275D03*
X016376Y006775D03*
X018424Y006775D03*
X018424Y007275D03*
X018424Y007775D03*
X018424Y008275D03*
X018424Y003900D03*
X018424Y003400D03*
X018424Y002900D03*
X018424Y002400D03*
X016376Y002400D03*
X016376Y002900D03*
X016376Y003400D03*
X016376Y003900D03*
D15*
X011554Y011067D03*
D16*
X009900Y011067D03*
X008246Y011067D03*
X008246Y013233D03*
X009900Y013233D03*
X011554Y013233D03*
D17*
X014025Y013016D03*
X014025Y011284D03*
D18*
X017065Y006025D03*
X017735Y006025D03*
X012985Y003150D03*
X012315Y003150D03*
X012110Y004150D03*
X011440Y004150D03*
X017065Y001650D03*
X017735Y001650D03*
D19*
X008900Y001944D02*
X008900Y002856D01*
X006650Y002856D02*
X006650Y001944D01*
X006650Y007444D02*
X006650Y008356D01*
X008900Y008356D02*
X008900Y007444D01*
D20*
X004635Y004900D02*
X003915Y004900D01*
X003915Y003900D02*
X004635Y003900D01*
X004635Y002900D02*
X003915Y002900D01*
X003915Y010400D02*
X004635Y010400D01*
X004635Y011400D02*
X003915Y011400D01*
X003915Y012400D02*
X004635Y012400D01*
X021400Y012540D02*
X021400Y013260D01*
X022400Y013260D02*
X022400Y012540D01*
X023400Y012540D02*
X023400Y013260D01*
X024400Y013260D02*
X024400Y012540D01*
X025400Y012540D02*
X025400Y013260D01*
X026400Y013260D02*
X026400Y012540D01*
D21*
X026400Y012900D02*
X026400Y011400D01*
X026400Y003173D01*
X025900Y002672D01*
X022900Y002672D01*
X022900Y003150D01*
X022565Y003485D01*
X021900Y003485D01*
X021900Y002815D02*
X020900Y002815D01*
X019900Y002815D01*
X019900Y002900D01*
X019150Y002900D01*
X018424Y002900D01*
X017900Y003400D02*
X017650Y003150D01*
X017650Y001650D01*
X017735Y001650D01*
X017150Y001650D02*
X017150Y002900D01*
X017150Y003525D01*
X017900Y004275D01*
X025150Y004275D01*
X024150Y004650D02*
X024775Y005275D01*
X025150Y005275D01*
X024150Y004650D02*
X017900Y004650D01*
X017150Y005400D01*
X017150Y006025D01*
X017065Y006025D01*
X017025Y006025D01*
X017150Y006025D02*
X017150Y008025D01*
X016900Y008275D01*
X016376Y008275D01*
X015650Y008275D01*
X014900Y008275D01*
X014900Y008360D01*
X014985Y008275D01*
X014900Y008360D02*
X013900Y008360D01*
X012900Y008360D02*
X012900Y008775D01*
X013275Y009150D01*
X014900Y009150D01*
X015275Y009525D01*
X015275Y012150D01*
X014275Y012150D01*
X014025Y011900D01*
X013775Y012150D02*
X010650Y012150D01*
X010650Y006941D01*
X011651Y005940D01*
X012900Y005940D01*
X013900Y005940D02*
X014900Y005940D01*
X015485Y005940D01*
X015650Y005775D01*
X014900Y006610D02*
X013900Y006610D01*
X012900Y006610D01*
X012900Y007690D02*
X013900Y007690D01*
X014900Y007690D01*
X014900Y007775D01*
X015650Y007775D01*
X016376Y007775D01*
X016376Y007275D02*
X015650Y007275D01*
X015565Y007275D01*
X014900Y006610D01*
X014900Y007690D02*
X014985Y007775D01*
X015900Y008775D02*
X015775Y008900D01*
X015775Y009190D01*
X015900Y008775D02*
X016775Y008775D01*
X017400Y008150D01*
X017400Y007275D01*
X017900Y006775D01*
X018424Y006775D01*
X019150Y006775D01*
X019360Y006775D01*
X019900Y006235D01*
X020900Y006235D01*
X020900Y005565D02*
X019900Y005565D01*
X019900Y005525D01*
X019150Y005525D01*
X018150Y005025D02*
X017735Y005440D01*
X017735Y006025D01*
X018150Y005025D02*
X022900Y005025D01*
X023400Y005525D01*
X023400Y011400D01*
X023400Y012900D01*
X025400Y012900D02*
X025400Y011400D01*
X025400Y012900D02*
X025400Y013525D01*
X025900Y014025D01*
X026650Y014025D01*
X027150Y013525D01*
X027150Y002919D01*
X026234Y002003D01*
X022900Y002003D01*
X022900Y001525D01*
X022565Y001190D01*
X021900Y001190D01*
X020900Y001190D02*
X019900Y001190D01*
X019900Y001150D01*
X019150Y001150D01*
X019900Y001860D02*
X019360Y002400D01*
X019150Y002400D01*
X018424Y002400D01*
X017150Y002900D02*
X016376Y002900D01*
X015650Y002900D01*
X015565Y002900D01*
X014900Y002235D01*
X013900Y002235D01*
X013900Y001565D02*
X014900Y001565D01*
X015485Y001565D01*
X015650Y001400D01*
X017065Y001650D02*
X017150Y001650D01*
X016376Y002400D02*
X015650Y002400D01*
X014900Y003315D02*
X013900Y003315D01*
X013900Y003150D01*
X012985Y003150D01*
X012315Y003150D02*
X011650Y003150D01*
X011440Y004150D02*
X010525Y004150D01*
X005400Y004150D01*
X005400Y010400D01*
X004275Y010400D01*
X013775Y012150D02*
X014025Y012400D01*
X014025Y013016D01*
X021400Y012900D02*
X021400Y011400D01*
X021400Y010150D01*
X022650Y008900D01*
X022650Y007444D01*
X022397Y007190D01*
X021900Y007190D01*
X020900Y007190D02*
X019900Y007190D01*
X019900Y007275D01*
X019150Y007275D01*
X018424Y007275D01*
X017900Y007275D01*
X017650Y007525D01*
X017650Y008275D01*
X018150Y008775D01*
X018900Y008775D01*
X019025Y008900D01*
X019025Y009190D01*
X019900Y007860D02*
X019900Y007775D01*
X019150Y007775D01*
X018424Y007775D01*
X019900Y007860D02*
X020900Y007860D01*
X021900Y007860D01*
X019150Y003900D02*
X018424Y003900D01*
X018424Y003400D02*
X017900Y003400D01*
X018424Y003400D02*
X019150Y003400D01*
X019900Y003400D01*
X019900Y003485D01*
X020900Y003485D01*
X020900Y001860D02*
X019900Y001860D01*
X020900Y001860D02*
X021900Y001860D01*
X016376Y003400D02*
X015650Y003400D01*
X014900Y003400D01*
X014900Y003315D01*
X014900Y003900D02*
X014900Y003985D01*
X013900Y003985D01*
X013900Y004150D01*
X013025Y004150D01*
X012110Y004150D01*
X013900Y003985D02*
X013900Y003900D01*
X013900Y003400D02*
X013900Y003315D01*
X014900Y003900D02*
X015650Y003900D01*
X016376Y003900D01*
X005400Y004150D02*
X005400Y002900D01*
X004275Y002900D01*
D22*
X015650Y001400D03*
X019150Y001150D03*
X019150Y005525D03*
X015650Y005775D03*
X017900Y009275D03*
X022400Y011400D03*
X024400Y011400D03*
D23*
X025150Y008275D03*
X014025Y010275D03*
X011554Y009900D03*
X011554Y014400D03*
D24*
X006150Y012650D03*
D25*
X006485Y012660D02*
X007963Y012660D01*
X007996Y012627D02*
X008497Y012627D01*
X008852Y012982D01*
X008852Y013484D01*
X008497Y013838D01*
X007996Y013838D01*
X007641Y013484D01*
X007641Y012982D01*
X007996Y012627D01*
X007865Y012758D02*
X006485Y012758D01*
X006485Y012857D02*
X007766Y012857D01*
X007668Y012955D02*
X006439Y012955D01*
X006409Y012985D02*
X005891Y012985D01*
X005815Y012909D01*
X005815Y012391D01*
X005891Y012315D01*
X006409Y012315D01*
X006485Y012391D01*
X006485Y012909D01*
X006409Y012985D01*
X005861Y012955D02*
X000450Y012955D01*
X000450Y012857D02*
X003737Y012857D01*
X003818Y012890D02*
X003637Y012815D01*
X003500Y012678D01*
X003425Y012497D01*
X003425Y012303D01*
X003500Y012122D01*
X003637Y011985D01*
X003818Y011910D01*
X004732Y011910D01*
X004913Y011985D01*
X005050Y012122D01*
X005125Y012303D01*
X005125Y012497D01*
X005050Y012678D01*
X004913Y012815D01*
X004732Y012890D01*
X003818Y012890D01*
X003580Y012758D02*
X000450Y012758D01*
X000450Y012660D02*
X003492Y012660D01*
X003451Y012561D02*
X000450Y012561D01*
X000450Y012463D02*
X003425Y012463D01*
X003425Y012364D02*
X000450Y012364D01*
X000450Y012266D02*
X003440Y012266D01*
X003481Y012167D02*
X000450Y012167D01*
X000450Y012069D02*
X003554Y012069D01*
X003673Y011970D02*
X000450Y011970D01*
X000450Y011872D02*
X003773Y011872D01*
X003818Y011890D02*
X003637Y011815D01*
X003500Y011678D01*
X003425Y011497D01*
X003425Y011303D01*
X003500Y011122D01*
X003637Y010985D01*
X000450Y010985D01*
X000450Y010887D02*
X003809Y010887D01*
X003818Y010890D02*
X003637Y010815D01*
X003500Y010678D01*
X003425Y010497D01*
X003425Y010303D01*
X003500Y010122D01*
X003637Y009985D01*
X003818Y009910D01*
X004732Y009910D01*
X004913Y009985D01*
X005050Y010122D01*
X005080Y010195D01*
X005195Y010195D01*
X005195Y003105D01*
X005080Y003105D01*
X005195Y003105D01*
X005195Y003204D02*
X005024Y003204D01*
X005050Y003178D02*
X004913Y003315D01*
X004732Y003390D01*
X003818Y003390D01*
X003637Y003315D01*
X003500Y003178D01*
X003425Y002997D01*
X003425Y002803D01*
X003500Y002622D01*
X003637Y002485D01*
X003818Y002410D01*
X004732Y002410D01*
X004913Y002485D01*
X005050Y002622D01*
X005080Y002695D01*
X005485Y002695D01*
X005605Y002815D01*
X005605Y003945D01*
X010256Y003945D01*
X010386Y003815D01*
X010664Y003815D01*
X010794Y003945D01*
X011054Y003945D01*
X011054Y003801D01*
X011131Y003725D01*
X011750Y003725D01*
X011775Y003750D01*
X011800Y003725D01*
X012419Y003725D01*
X012496Y003801D01*
X012496Y003945D01*
X012756Y003945D01*
X012886Y003815D01*
X013164Y003815D01*
X013294Y003945D01*
X013475Y003945D01*
X013475Y003675D01*
X013500Y003650D01*
X013475Y003625D01*
X013475Y003355D01*
X013371Y003355D01*
X013371Y003499D01*
X013475Y003499D01*
X013475Y003401D02*
X013371Y003401D01*
X013371Y003499D02*
X013294Y003575D01*
X012675Y003575D01*
X012650Y003550D01*
X012625Y003575D01*
X012006Y003575D01*
X011929Y003499D01*
X005605Y003499D01*
X005605Y003401D02*
X006434Y003401D01*
X006533Y003442D02*
X006318Y003353D01*
X006153Y003188D01*
X006064Y002972D01*
X006064Y001828D01*
X006153Y001612D01*
X006318Y001447D01*
X006533Y001358D01*
X006767Y001358D01*
X006982Y001447D01*
X007147Y001612D01*
X007236Y001828D01*
X007236Y002972D01*
X007147Y003188D01*
X006982Y003353D01*
X006767Y003442D01*
X006533Y003442D01*
X006268Y003302D02*
X005605Y003302D01*
X005605Y003204D02*
X006169Y003204D01*
X006119Y003105D02*
X005605Y003105D01*
X005605Y003007D02*
X006078Y003007D01*
X006064Y002908D02*
X005605Y002908D01*
X005599Y002810D02*
X006064Y002810D01*
X006064Y002711D02*
X005501Y002711D01*
X005040Y002613D02*
X006064Y002613D01*
X006064Y002514D02*
X004942Y002514D01*
X004746Y002416D02*
X006064Y002416D01*
X006064Y002317D02*
X000450Y002317D01*
X000450Y002219D02*
X006064Y002219D01*
X006064Y002120D02*
X000450Y002120D01*
X000450Y002022D02*
X006064Y002022D01*
X006064Y001923D02*
X000450Y001923D01*
X000450Y001825D02*
X006065Y001825D01*
X006106Y001726D02*
X000450Y001726D01*
X000450Y001628D02*
X006147Y001628D01*
X006236Y001529D02*
X000450Y001529D01*
X000450Y001431D02*
X006359Y001431D01*
X006941Y001431D02*
X008609Y001431D01*
X008568Y001447D02*
X008783Y001358D01*
X009017Y001358D01*
X009232Y001447D01*
X009397Y001612D01*
X009486Y001828D01*
X009486Y002972D01*
X009397Y003188D01*
X009232Y003353D01*
X009017Y003442D01*
X008783Y003442D01*
X008568Y003353D01*
X008403Y003188D01*
X008314Y002972D01*
X008314Y001828D01*
X008403Y001612D01*
X008568Y001447D01*
X008486Y001529D02*
X007064Y001529D01*
X007153Y001628D02*
X008397Y001628D01*
X008356Y001726D02*
X007194Y001726D01*
X007235Y001825D02*
X008315Y001825D01*
X008314Y001923D02*
X007236Y001923D01*
X007236Y002022D02*
X008314Y002022D01*
X008314Y002120D02*
X007236Y002120D01*
X007236Y002219D02*
X008314Y002219D01*
X008314Y002317D02*
X007236Y002317D01*
X007236Y002416D02*
X008314Y002416D01*
X008314Y002514D02*
X007236Y002514D01*
X007236Y002613D02*
X008314Y002613D01*
X008314Y002711D02*
X007236Y002711D01*
X007236Y002810D02*
X008314Y002810D01*
X008314Y002908D02*
X007236Y002908D01*
X007222Y003007D02*
X008328Y003007D01*
X008369Y003105D02*
X007181Y003105D01*
X007131Y003204D02*
X008419Y003204D01*
X008518Y003302D02*
X007032Y003302D01*
X006866Y003401D02*
X008684Y003401D01*
X009116Y003401D02*
X011462Y003401D01*
X011522Y003460D02*
X011340Y003278D01*
X011340Y003022D01*
X011522Y002840D01*
X011778Y002840D01*
X011883Y002945D01*
X011929Y002945D01*
X011929Y002801D01*
X012006Y002725D01*
X012625Y002725D01*
X012650Y002750D01*
X012675Y002725D01*
X013294Y002725D01*
X013371Y002801D01*
X013371Y002945D01*
X013535Y002945D01*
X013551Y002929D01*
X014249Y002929D01*
X014325Y003006D01*
X014325Y003110D01*
X014475Y003110D01*
X014475Y003006D01*
X014551Y002929D01*
X015249Y002929D01*
X015325Y003006D01*
X015325Y003195D01*
X015417Y003195D01*
X015462Y003150D01*
X015340Y003028D01*
X015340Y002965D01*
X014996Y002621D01*
X014551Y002621D01*
X014475Y002544D01*
X014475Y002440D01*
X014325Y002440D01*
X014325Y002544D01*
X014249Y002621D01*
X013551Y002621D01*
X013475Y002544D01*
X013475Y001925D01*
X013500Y001900D01*
X013475Y001875D01*
X013475Y001256D01*
X013551Y001179D01*
X014249Y001179D01*
X014325Y001256D01*
X014325Y001360D01*
X014475Y001360D01*
X014475Y001256D01*
X014551Y001179D01*
X015249Y001179D01*
X015325Y001256D01*
X015325Y001360D01*
X015340Y001360D01*
X015340Y001166D01*
X015416Y001090D01*
X015884Y001090D01*
X015960Y001166D01*
X015960Y001634D01*
X015884Y001710D01*
X015630Y001710D01*
X015570Y001770D01*
X015325Y001770D01*
X015325Y001875D01*
X015300Y001900D01*
X015325Y001925D01*
X015325Y002370D01*
X015340Y002385D01*
X015340Y002338D01*
X015387Y002224D01*
X015474Y002137D01*
X015588Y002090D01*
X015712Y002090D01*
X015826Y002137D01*
X015865Y002176D01*
X015889Y002152D01*
X016863Y002152D01*
X016939Y002228D01*
X016939Y002572D01*
X016863Y002648D01*
X015889Y002648D01*
X015865Y002624D01*
X015838Y002650D01*
X015865Y002676D01*
X015889Y002652D01*
X016863Y002652D01*
X016906Y002695D01*
X016945Y002695D01*
X016945Y002075D01*
X016756Y002075D01*
X016679Y001999D01*
X016679Y001301D01*
X016756Y001225D01*
X017375Y001225D01*
X017400Y001250D01*
X017425Y001225D01*
X018044Y001225D01*
X018121Y001301D01*
X018121Y001999D01*
X018044Y002075D01*
X017855Y002075D01*
X017855Y003065D01*
X017861Y003071D01*
X017861Y002728D01*
X017937Y002652D01*
X018911Y002652D01*
X018935Y002676D01*
X018962Y002650D01*
X018935Y002624D01*
X018911Y002648D01*
X017937Y002648D01*
X017861Y002572D01*
X017861Y002228D01*
X017937Y002152D01*
X018911Y002152D01*
X018935Y002176D01*
X019022Y002090D01*
X019278Y002090D01*
X019329Y002141D01*
X019475Y001995D01*
X019475Y001550D01*
X019500Y001525D01*
X019475Y001500D01*
X019475Y001355D01*
X019460Y001355D01*
X019460Y001384D01*
X019384Y001460D01*
X018916Y001460D01*
X018840Y001384D01*
X018840Y000916D01*
X018916Y000840D01*
X019384Y000840D01*
X019460Y000916D01*
X019460Y000945D01*
X019475Y000945D01*
X019475Y000881D01*
X019551Y000804D01*
X020249Y000804D01*
X020325Y000881D01*
X020325Y000985D01*
X020475Y000985D01*
X020475Y000881D01*
X020551Y000804D01*
X021249Y000804D01*
X021325Y000881D01*
X021325Y001500D01*
X021300Y001525D01*
X021325Y001550D01*
X021325Y001655D01*
X021475Y001655D01*
X021475Y001550D01*
X021500Y001525D01*
X021475Y001500D01*
X021475Y000881D01*
X021551Y000804D01*
X022249Y000804D01*
X022325Y000881D01*
X022325Y000985D01*
X022650Y000985D01*
X022985Y001320D01*
X023105Y001440D01*
X023105Y001617D01*
X023249Y001617D01*
X023325Y001693D01*
X023325Y001798D01*
X026319Y001798D01*
X027235Y002714D01*
X027355Y002834D01*
X027355Y013610D01*
X026855Y014110D01*
X026735Y014230D01*
X025815Y014230D01*
X025695Y014110D01*
X025695Y014110D01*
X025335Y013750D01*
X025303Y013750D01*
X025122Y013675D01*
X024985Y013538D01*
X024910Y013357D01*
X024910Y012443D01*
X024985Y012262D01*
X025122Y012125D01*
X025195Y012095D01*
X025195Y011633D01*
X025090Y011528D01*
X025090Y011272D01*
X025272Y011090D01*
X025528Y011090D01*
X025710Y011272D01*
X025710Y011528D01*
X025605Y011633D01*
X025605Y012095D01*
X025678Y012125D01*
X025815Y012262D01*
X025890Y012443D01*
X025890Y013357D01*
X025815Y013538D01*
X025759Y013594D01*
X025985Y013820D01*
X026565Y013820D01*
X026945Y013440D01*
X026945Y003004D01*
X026149Y002208D01*
X023325Y002208D01*
X023325Y002313D01*
X023300Y002338D01*
X023325Y002362D01*
X023325Y002467D01*
X025984Y002467D01*
X026605Y003088D01*
X026605Y011167D01*
X026710Y011272D01*
X026710Y011528D01*
X026605Y011633D01*
X026605Y012095D01*
X026678Y012125D01*
X026815Y012262D01*
X026890Y012443D01*
X026890Y013357D01*
X026815Y013538D01*
X026678Y013675D01*
X026497Y013750D01*
X026303Y013750D01*
X026122Y013675D01*
X025985Y013538D01*
X025910Y013357D01*
X025910Y012443D01*
X025985Y012262D01*
X026122Y012125D01*
X026195Y012095D01*
X026195Y011633D01*
X026090Y011528D01*
X026090Y011272D01*
X026195Y011167D01*
X026195Y003258D01*
X025815Y002877D01*
X025360Y002877D01*
X025580Y003097D01*
X025580Y003453D01*
X025328Y003705D01*
X024972Y003705D01*
X024720Y003453D01*
X024720Y003097D01*
X024940Y002877D01*
X023325Y002877D01*
X023325Y002982D01*
X023249Y003058D01*
X023105Y003058D01*
X023105Y003235D01*
X022985Y003355D01*
X022650Y003690D01*
X022325Y003690D01*
X022325Y003794D01*
X022249Y003871D01*
X021551Y003871D01*
X021475Y003794D01*
X021475Y003175D01*
X021500Y003150D01*
X021475Y003125D01*
X021475Y003020D01*
X021325Y003020D01*
X021325Y003125D01*
X021300Y003150D01*
X021325Y003175D01*
X021325Y003794D01*
X021249Y003871D01*
X020551Y003871D01*
X020475Y003794D01*
X020475Y003690D01*
X020325Y003690D01*
X020325Y003794D01*
X020249Y003871D01*
X019551Y003871D01*
X019475Y003794D01*
X019475Y003605D01*
X019383Y003605D01*
X019338Y003650D01*
X019413Y003724D01*
X019460Y003838D01*
X019460Y003962D01*
X019415Y004070D01*
X024747Y004070D01*
X024972Y003845D01*
X025328Y003845D01*
X025580Y004097D01*
X025580Y004453D01*
X025328Y004705D01*
X024972Y004705D01*
X024747Y004480D01*
X024270Y004480D01*
X024803Y005013D01*
X024972Y004845D01*
X025328Y004845D01*
X025580Y005097D01*
X025580Y005453D01*
X025328Y005705D01*
X024972Y005705D01*
X024747Y005480D01*
X024690Y005480D01*
X024570Y005360D01*
X024065Y004855D01*
X023020Y004855D01*
X023485Y005320D01*
X023605Y005440D01*
X023605Y011167D01*
X023710Y011272D01*
X023710Y011528D01*
X023605Y011633D01*
X023605Y012095D01*
X023678Y012125D01*
X023815Y012262D01*
X023890Y012443D01*
X023890Y013357D01*
X023815Y013538D01*
X023678Y013675D01*
X023497Y013750D01*
X023303Y013750D01*
X023122Y013675D01*
X022985Y013538D01*
X022910Y013357D01*
X022910Y012443D01*
X022985Y012262D01*
X023122Y012125D01*
X023195Y012095D01*
X023195Y011633D01*
X023090Y011528D01*
X023090Y011272D01*
X023195Y011167D01*
X023195Y005610D01*
X022815Y005230D01*
X021300Y005230D01*
X021325Y005256D01*
X021325Y005875D01*
X021300Y005900D01*
X021325Y005925D01*
X021325Y006544D01*
X021249Y006621D01*
X020551Y006621D01*
X020475Y006544D01*
X020475Y006440D01*
X020325Y006440D01*
X020325Y006544D01*
X020249Y006621D01*
X019804Y006621D01*
X019620Y006804D01*
X020249Y006804D01*
X020325Y006881D01*
X020325Y006985D01*
X020475Y006985D01*
X020475Y006881D01*
X020551Y006804D01*
X021249Y006804D01*
X021325Y006881D01*
X021325Y007500D01*
X021300Y007525D01*
X021325Y007550D01*
X021325Y007655D01*
X021475Y007655D01*
X021475Y007550D01*
X021500Y007525D01*
X021475Y007500D01*
X021475Y006881D01*
X021551Y006804D01*
X022249Y006804D01*
X022325Y006881D01*
X022325Y006985D01*
X022482Y006985D01*
X022735Y007239D01*
X022855Y007359D01*
X022855Y008985D01*
X021605Y010235D01*
X021605Y011167D01*
X021710Y011272D01*
X021710Y011528D01*
X021605Y011633D01*
X021605Y012095D01*
X021678Y012125D01*
X021815Y012262D01*
X021890Y012443D01*
X021890Y013357D01*
X021815Y013538D01*
X021678Y013675D01*
X021497Y013750D01*
X021303Y013750D01*
X021122Y013675D01*
X020985Y013538D01*
X020910Y013357D01*
X020910Y012443D01*
X020985Y012262D01*
X021122Y012125D01*
X021195Y012095D01*
X021195Y011633D01*
X021090Y011528D01*
X021090Y011272D01*
X021195Y011167D01*
X021195Y010065D01*
X021315Y009945D01*
X022445Y008815D01*
X022445Y007528D01*
X022325Y007409D01*
X022325Y007500D01*
X022300Y007525D01*
X022325Y007550D01*
X022325Y008169D01*
X022249Y008246D01*
X021551Y008246D01*
X021475Y008169D01*
X021475Y008065D01*
X021325Y008065D01*
X021325Y008169D01*
X021249Y008246D01*
X020551Y008246D01*
X020475Y008169D01*
X020475Y008065D01*
X020325Y008065D01*
X020325Y008169D01*
X020249Y008246D01*
X019551Y008246D01*
X019475Y008169D01*
X019475Y007980D01*
X019455Y007980D01*
X019455Y008201D01*
X019460Y008213D01*
X019460Y008337D01*
X019455Y008349D01*
X019455Y011975D01*
X019350Y012080D01*
X017450Y012080D01*
X017400Y012030D01*
X017350Y012080D01*
X015480Y012080D01*
X015480Y012220D01*
X019350Y012220D01*
X019455Y012325D01*
X019455Y014850D01*
X029850Y014850D01*
X029850Y000450D01*
X000450Y000450D01*
X000450Y014850D01*
X010470Y014850D01*
X010470Y013519D01*
X010151Y013838D01*
X009649Y013838D01*
X009294Y013484D01*
X009294Y012982D01*
X009649Y012627D01*
X010151Y012627D01*
X010470Y012946D01*
X010470Y012325D01*
X010503Y012293D01*
X010445Y012235D01*
X010445Y011379D01*
X010445Y011379D01*
X010151Y011673D01*
X009649Y011673D01*
X009294Y011318D01*
X009294Y010816D01*
X009649Y010462D01*
X010151Y010462D01*
X010445Y010756D01*
X010445Y006856D01*
X010565Y006736D01*
X011566Y005735D01*
X012475Y005735D01*
X012475Y005631D01*
X012551Y005554D01*
X013249Y005554D01*
X013325Y005631D01*
X013325Y006250D01*
X013300Y006275D01*
X013325Y006300D01*
X013325Y006405D01*
X013475Y006405D01*
X013475Y006300D01*
X013500Y006275D01*
X013475Y006250D01*
X013475Y005631D01*
X013551Y005554D01*
X014249Y005554D01*
X014325Y005631D01*
X014325Y005735D01*
X014475Y005735D01*
X014475Y005631D01*
X014551Y005554D01*
X015249Y005554D01*
X015325Y005631D01*
X015325Y005735D01*
X015340Y005735D01*
X015340Y005541D01*
X015416Y005465D01*
X015884Y005465D01*
X015960Y005541D01*
X015960Y006009D01*
X015884Y006085D01*
X015630Y006085D01*
X015570Y006145D01*
X015325Y006145D01*
X015325Y006250D01*
X015300Y006275D01*
X015325Y006300D01*
X015325Y006745D01*
X015340Y006760D01*
X015340Y006713D01*
X015387Y006599D01*
X015474Y006512D01*
X015588Y006465D01*
X015712Y006465D01*
X015826Y006512D01*
X015865Y006551D01*
X015889Y006527D01*
X016863Y006527D01*
X016939Y006603D01*
X016939Y006947D01*
X016916Y006970D01*
X016945Y006970D01*
X016945Y006450D01*
X016756Y006450D01*
X016679Y006374D01*
X016679Y005676D01*
X016756Y005600D01*
X016945Y005600D01*
X016945Y005315D01*
X017065Y005195D01*
X017065Y005195D01*
X017695Y004565D01*
X017798Y004463D01*
X017695Y004360D01*
X016945Y003610D01*
X016945Y003105D01*
X016906Y003105D01*
X016945Y003105D01*
X016906Y003105D02*
X016863Y003148D01*
X015889Y003148D01*
X015865Y003124D01*
X015838Y003150D01*
X015865Y003176D01*
X015889Y003152D01*
X016863Y003152D01*
X016939Y003228D01*
X016939Y003572D01*
X016863Y003648D01*
X015889Y003648D01*
X015865Y003624D01*
X015838Y003650D01*
X015865Y003676D01*
X015889Y003652D01*
X016863Y003652D01*
X016939Y003728D01*
X016939Y004072D01*
X016863Y004148D01*
X015889Y004148D01*
X015865Y004124D01*
X015778Y004210D01*
X015522Y004210D01*
X015417Y004105D01*
X015325Y004105D01*
X015325Y004294D01*
X015249Y004371D01*
X014551Y004371D01*
X014475Y004294D01*
X014475Y004190D01*
X014325Y004190D01*
X014325Y004294D01*
X014249Y004371D01*
X013551Y004371D01*
X013535Y004355D01*
X013294Y004355D01*
X013164Y004485D01*
X012886Y004485D01*
X012756Y004355D01*
X012496Y004355D01*
X012496Y004499D01*
X012419Y004575D01*
X011800Y004575D01*
X011775Y004550D01*
X011750Y004575D01*
X011131Y004575D01*
X011054Y004499D01*
X011054Y004355D01*
X010794Y004355D01*
X010664Y004485D01*
X010386Y004485D01*
X010256Y004355D01*
X005605Y004355D01*
X005605Y010485D01*
X005485Y010605D01*
X005080Y010605D01*
X005050Y010678D01*
X004913Y010815D01*
X004732Y010890D01*
X003818Y010890D01*
X003818Y010910D02*
X003637Y010985D01*
X003539Y011084D02*
X000450Y011084D01*
X000450Y011182D02*
X003475Y011182D01*
X003434Y011281D02*
X000450Y011281D01*
X000450Y011379D02*
X003425Y011379D01*
X003425Y011478D02*
X000450Y011478D01*
X000450Y011576D02*
X003458Y011576D01*
X003498Y011675D02*
X000450Y011675D01*
X000450Y011773D02*
X003595Y011773D01*
X003818Y011890D02*
X004732Y011890D01*
X004913Y011815D01*
X005050Y011678D01*
X005125Y011497D01*
X005125Y011303D01*
X005050Y011122D01*
X004913Y010985D01*
X007641Y010985D01*
X007641Y010887D02*
X004741Y010887D01*
X004732Y010910D02*
X004913Y010985D01*
X005011Y011084D02*
X007641Y011084D01*
X007641Y011182D02*
X005075Y011182D01*
X005116Y011281D02*
X007641Y011281D01*
X007641Y011318D02*
X007641Y010816D01*
X007996Y010462D01*
X008497Y010462D01*
X008852Y010816D01*
X008852Y011318D01*
X008497Y011673D01*
X007996Y011673D01*
X007641Y011318D01*
X007702Y011379D02*
X005125Y011379D01*
X005125Y011478D02*
X007800Y011478D01*
X007899Y011576D02*
X005092Y011576D01*
X005052Y011675D02*
X010445Y011675D01*
X010445Y011773D02*
X004955Y011773D01*
X004777Y011872D02*
X010445Y011872D01*
X010445Y011970D02*
X004877Y011970D01*
X004996Y012069D02*
X010445Y012069D01*
X010445Y012167D02*
X005069Y012167D01*
X005110Y012266D02*
X010476Y012266D01*
X010470Y012364D02*
X006458Y012364D01*
X006485Y012463D02*
X010470Y012463D01*
X010470Y012561D02*
X006485Y012561D01*
X005815Y012561D02*
X005099Y012561D01*
X005125Y012463D02*
X005815Y012463D01*
X005842Y012364D02*
X005125Y012364D01*
X005058Y012660D02*
X005815Y012660D01*
X005815Y012758D02*
X004970Y012758D01*
X004813Y012857D02*
X005815Y012857D01*
X007641Y013054D02*
X000450Y013054D01*
X000450Y013152D02*
X007641Y013152D01*
X007641Y013251D02*
X000450Y013251D01*
X000450Y013349D02*
X007641Y013349D01*
X007641Y013448D02*
X000450Y013448D01*
X000450Y013546D02*
X007703Y013546D01*
X007802Y013645D02*
X000450Y013645D01*
X000450Y013743D02*
X007900Y013743D01*
X008068Y013970D02*
X008425Y013970D01*
X008676Y014222D01*
X008676Y014578D01*
X008425Y014830D01*
X008068Y014830D01*
X007816Y014578D01*
X007816Y014222D01*
X008068Y013970D01*
X008000Y014039D02*
X000450Y014039D01*
X000450Y014137D02*
X007901Y014137D01*
X007816Y014236D02*
X000450Y014236D01*
X000450Y014334D02*
X007816Y014334D01*
X007816Y014433D02*
X000450Y014433D01*
X000450Y014531D02*
X007816Y014531D01*
X007868Y014630D02*
X000450Y014630D01*
X000450Y014728D02*
X007966Y014728D01*
X008065Y014827D02*
X000450Y014827D01*
X000450Y013940D02*
X010470Y013940D01*
X010470Y013842D02*
X000450Y013842D01*
X000450Y010788D02*
X003610Y010788D01*
X003512Y010690D02*
X000450Y010690D01*
X000450Y010591D02*
X003464Y010591D01*
X003425Y010493D02*
X000450Y010493D01*
X000450Y010394D02*
X003425Y010394D01*
X003428Y010296D02*
X000450Y010296D01*
X000450Y010197D02*
X003469Y010197D01*
X003524Y010099D02*
X000450Y010099D01*
X000450Y010000D02*
X003622Y010000D01*
X004928Y010000D02*
X005195Y010000D01*
X005195Y009902D02*
X000450Y009902D01*
X000450Y009803D02*
X005195Y009803D01*
X005195Y009705D02*
X000450Y009705D01*
X000450Y009606D02*
X005195Y009606D01*
X005195Y009508D02*
X000450Y009508D01*
X000450Y009409D02*
X005195Y009409D01*
X005195Y009311D02*
X000450Y009311D01*
X000450Y009212D02*
X005195Y009212D01*
X005195Y009114D02*
X000450Y009114D01*
X000450Y009015D02*
X005195Y009015D01*
X005195Y008917D02*
X000450Y008917D01*
X000450Y008818D02*
X005195Y008818D01*
X005195Y008720D02*
X000450Y008720D01*
X000450Y008621D02*
X005195Y008621D01*
X005195Y008523D02*
X000450Y008523D01*
X000450Y008424D02*
X005195Y008424D01*
X005195Y008326D02*
X000450Y008326D01*
X000450Y008227D02*
X005195Y008227D01*
X005195Y008129D02*
X000450Y008129D01*
X000450Y008030D02*
X005195Y008030D01*
X005195Y007932D02*
X000450Y007932D01*
X000450Y007833D02*
X005195Y007833D01*
X005195Y007735D02*
X000450Y007735D01*
X000450Y007636D02*
X005195Y007636D01*
X005195Y007538D02*
X000450Y007538D01*
X000450Y007439D02*
X005195Y007439D01*
X005195Y007341D02*
X000450Y007341D01*
X000450Y007242D02*
X005195Y007242D01*
X005195Y007144D02*
X000450Y007144D01*
X000450Y007045D02*
X005195Y007045D01*
X005195Y006947D02*
X000450Y006947D01*
X000450Y006848D02*
X005195Y006848D01*
X005195Y006750D02*
X000450Y006750D01*
X000450Y006651D02*
X005195Y006651D01*
X005195Y006553D02*
X000450Y006553D01*
X000450Y006454D02*
X005195Y006454D01*
X005195Y006356D02*
X000450Y006356D01*
X000450Y006257D02*
X005195Y006257D01*
X005195Y006159D02*
X000450Y006159D01*
X000450Y006060D02*
X005195Y006060D01*
X005195Y005962D02*
X000450Y005962D01*
X000450Y005863D02*
X005195Y005863D01*
X005195Y005765D02*
X000450Y005765D01*
X000450Y005666D02*
X005195Y005666D01*
X005195Y005568D02*
X000450Y005568D01*
X000450Y005469D02*
X005195Y005469D01*
X005195Y005371D02*
X004780Y005371D01*
X004732Y005390D02*
X003818Y005390D01*
X003637Y005315D01*
X003500Y005178D01*
X003425Y004997D01*
X003425Y004803D01*
X003500Y004622D01*
X003637Y004485D01*
X003818Y004410D01*
X004732Y004410D01*
X004913Y004485D01*
X005050Y004622D01*
X005125Y004803D01*
X005125Y004997D01*
X005050Y005178D01*
X004913Y005315D01*
X004732Y005390D01*
X004956Y005272D02*
X005195Y005272D01*
X005195Y005174D02*
X005052Y005174D01*
X005093Y005075D02*
X005195Y005075D01*
X005195Y004977D02*
X005125Y004977D01*
X005125Y004878D02*
X005195Y004878D01*
X005195Y004780D02*
X005115Y004780D01*
X005075Y004681D02*
X005195Y004681D01*
X005195Y004583D02*
X005010Y004583D01*
X004911Y004484D02*
X005195Y004484D01*
X005195Y004386D02*
X004743Y004386D01*
X004732Y004390D02*
X003818Y004390D01*
X003637Y004315D01*
X003500Y004178D01*
X003425Y003997D01*
X003425Y003803D01*
X003500Y003622D01*
X003637Y003485D01*
X003818Y003410D01*
X004732Y003410D01*
X004913Y003485D01*
X005050Y003622D01*
X005125Y003803D01*
X005125Y003997D01*
X005050Y004178D01*
X004913Y004315D01*
X004732Y004390D01*
X004941Y004287D02*
X005195Y004287D01*
X005195Y004189D02*
X005039Y004189D01*
X005087Y004090D02*
X005195Y004090D01*
X005195Y003992D02*
X005125Y003992D01*
X005125Y003893D02*
X005195Y003893D01*
X005195Y003795D02*
X005122Y003795D01*
X005081Y003696D02*
X005195Y003696D01*
X005195Y003598D02*
X005025Y003598D01*
X004927Y003499D02*
X005195Y003499D01*
X005195Y003401D02*
X000450Y003401D01*
X000450Y003499D02*
X003623Y003499D01*
X003525Y003598D02*
X000450Y003598D01*
X000450Y003696D02*
X003469Y003696D01*
X003428Y003795D02*
X000450Y003795D01*
X000450Y003893D02*
X003425Y003893D01*
X003425Y003992D02*
X000450Y003992D01*
X000450Y004090D02*
X003463Y004090D01*
X003511Y004189D02*
X000450Y004189D01*
X000450Y004287D02*
X003609Y004287D01*
X003807Y004386D02*
X000450Y004386D01*
X000450Y004484D02*
X003639Y004484D01*
X003540Y004583D02*
X000450Y004583D01*
X000450Y004681D02*
X003475Y004681D01*
X003435Y004780D02*
X000450Y004780D01*
X000450Y004878D02*
X003425Y004878D01*
X003425Y004977D02*
X000450Y004977D01*
X000450Y005075D02*
X003457Y005075D01*
X003498Y005174D02*
X000450Y005174D01*
X000450Y005272D02*
X003594Y005272D01*
X003770Y005371D02*
X000450Y005371D01*
X000450Y003302D02*
X003624Y003302D01*
X003526Y003204D02*
X000450Y003204D01*
X000450Y003105D02*
X003470Y003105D01*
X003429Y003007D02*
X000450Y003007D01*
X000450Y002908D02*
X003425Y002908D01*
X003425Y002810D02*
X000450Y002810D01*
X000450Y002711D02*
X003463Y002711D01*
X003510Y002613D02*
X000450Y002613D01*
X000450Y002514D02*
X003608Y002514D01*
X003804Y002416D02*
X000450Y002416D01*
X000450Y001332D02*
X013475Y001332D01*
X013475Y001431D02*
X009191Y001431D01*
X009314Y001529D02*
X013475Y001529D01*
X013475Y001628D02*
X009403Y001628D01*
X009444Y001726D02*
X013475Y001726D01*
X013475Y001825D02*
X009485Y001825D01*
X009486Y001923D02*
X013477Y001923D01*
X013475Y002022D02*
X009486Y002022D01*
X009486Y002120D02*
X013475Y002120D01*
X013475Y002219D02*
X009486Y002219D01*
X009486Y002317D02*
X013475Y002317D01*
X013475Y002416D02*
X009486Y002416D01*
X009486Y002514D02*
X013475Y002514D01*
X013543Y002613D02*
X009486Y002613D01*
X009486Y002711D02*
X015086Y002711D01*
X015185Y002810D02*
X013371Y002810D01*
X013371Y002908D02*
X015283Y002908D01*
X015325Y003007D02*
X015340Y003007D01*
X015325Y003105D02*
X015417Y003105D01*
X014475Y003105D02*
X014325Y003105D01*
X014325Y003007D02*
X014475Y003007D01*
X014543Y002613D02*
X014257Y002613D01*
X014325Y002514D02*
X014475Y002514D01*
X015325Y002317D02*
X015349Y002317D01*
X015325Y002219D02*
X015393Y002219D01*
X015325Y002120D02*
X015516Y002120D01*
X015325Y002022D02*
X016702Y002022D01*
X016679Y001923D02*
X015323Y001923D01*
X015325Y001825D02*
X016679Y001825D01*
X016679Y001726D02*
X015614Y001726D01*
X015960Y001628D02*
X016679Y001628D01*
X016679Y001529D02*
X015960Y001529D01*
X015960Y001431D02*
X016679Y001431D01*
X016679Y001332D02*
X015960Y001332D01*
X015960Y001234D02*
X016747Y001234D01*
X017384Y001234D02*
X017416Y001234D01*
X018053Y001234D02*
X018840Y001234D01*
X018840Y001332D02*
X018121Y001332D01*
X018121Y001431D02*
X018887Y001431D01*
X018840Y001135D02*
X015929Y001135D01*
X015371Y001135D02*
X000450Y001135D01*
X000450Y001037D02*
X018840Y001037D01*
X018840Y000938D02*
X000450Y000938D01*
X000450Y000840D02*
X019516Y000840D01*
X019475Y000938D02*
X019460Y000938D01*
X020284Y000840D02*
X020516Y000840D01*
X020475Y000938D02*
X020325Y000938D01*
X021284Y000840D02*
X021516Y000840D01*
X021475Y000938D02*
X021325Y000938D01*
X021325Y001037D02*
X021475Y001037D01*
X021475Y001135D02*
X021325Y001135D01*
X021325Y001234D02*
X021475Y001234D01*
X021475Y001332D02*
X021325Y001332D01*
X021325Y001431D02*
X021475Y001431D01*
X021496Y001529D02*
X021304Y001529D01*
X021325Y001628D02*
X021475Y001628D01*
X022325Y000938D02*
X029850Y000938D01*
X029850Y000840D02*
X022284Y000840D01*
X022701Y001037D02*
X029850Y001037D01*
X029850Y001135D02*
X022800Y001135D01*
X022898Y001234D02*
X029850Y001234D01*
X029850Y001332D02*
X022997Y001332D01*
X023095Y001431D02*
X029850Y001431D01*
X029850Y001529D02*
X023105Y001529D01*
X023260Y001628D02*
X029850Y001628D01*
X029850Y001726D02*
X023325Y001726D01*
X023325Y002219D02*
X026159Y002219D01*
X026258Y002317D02*
X023321Y002317D01*
X023325Y002416D02*
X026356Y002416D01*
X026455Y002514D02*
X026031Y002514D01*
X026130Y002613D02*
X026553Y002613D01*
X026652Y002711D02*
X026228Y002711D01*
X026327Y002810D02*
X026750Y002810D01*
X026849Y002908D02*
X026425Y002908D01*
X026524Y003007D02*
X026945Y003007D01*
X026945Y003105D02*
X026605Y003105D01*
X026605Y003204D02*
X026945Y003204D01*
X026945Y003302D02*
X026605Y003302D01*
X026605Y003401D02*
X026945Y003401D01*
X026945Y003499D02*
X026605Y003499D01*
X026605Y003598D02*
X026945Y003598D01*
X026945Y003696D02*
X026605Y003696D01*
X026605Y003795D02*
X026945Y003795D01*
X026945Y003893D02*
X026605Y003893D01*
X026605Y003992D02*
X026945Y003992D01*
X026945Y004090D02*
X026605Y004090D01*
X026605Y004189D02*
X026945Y004189D01*
X026945Y004287D02*
X026605Y004287D01*
X026605Y004386D02*
X026945Y004386D01*
X026945Y004484D02*
X026605Y004484D01*
X026605Y004583D02*
X026945Y004583D01*
X026945Y004681D02*
X026605Y004681D01*
X026605Y004780D02*
X026945Y004780D01*
X026945Y004878D02*
X026605Y004878D01*
X026605Y004977D02*
X026945Y004977D01*
X026945Y005075D02*
X026605Y005075D01*
X026605Y005174D02*
X026945Y005174D01*
X026945Y005272D02*
X026605Y005272D01*
X026605Y005371D02*
X026945Y005371D01*
X026945Y005469D02*
X026605Y005469D01*
X026605Y005568D02*
X026945Y005568D01*
X026945Y005666D02*
X026605Y005666D01*
X026605Y005765D02*
X026945Y005765D01*
X026945Y005863D02*
X026605Y005863D01*
X026605Y005962D02*
X026945Y005962D01*
X026945Y006060D02*
X026605Y006060D01*
X026605Y006159D02*
X026945Y006159D01*
X026945Y006257D02*
X026605Y006257D01*
X026605Y006356D02*
X026945Y006356D01*
X026945Y006454D02*
X026605Y006454D01*
X026605Y006553D02*
X026945Y006553D01*
X026945Y006651D02*
X026605Y006651D01*
X026605Y006750D02*
X026945Y006750D01*
X026945Y006848D02*
X026605Y006848D01*
X026605Y006947D02*
X026945Y006947D01*
X026945Y007045D02*
X026605Y007045D01*
X026605Y007144D02*
X026945Y007144D01*
X026945Y007242D02*
X026605Y007242D01*
X026605Y007341D02*
X026945Y007341D01*
X026945Y007439D02*
X026605Y007439D01*
X026605Y007538D02*
X026945Y007538D01*
X026945Y007636D02*
X026605Y007636D01*
X026605Y007735D02*
X026945Y007735D01*
X026945Y007833D02*
X026605Y007833D01*
X026605Y007932D02*
X026945Y007932D01*
X026945Y008030D02*
X026605Y008030D01*
X026605Y008129D02*
X026945Y008129D01*
X026945Y008227D02*
X026605Y008227D01*
X026605Y008326D02*
X026945Y008326D01*
X026945Y008424D02*
X026605Y008424D01*
X026605Y008523D02*
X026945Y008523D01*
X026945Y008621D02*
X026605Y008621D01*
X026605Y008720D02*
X026945Y008720D01*
X026945Y008818D02*
X026605Y008818D01*
X026605Y008917D02*
X026945Y008917D01*
X026945Y009015D02*
X026605Y009015D01*
X026605Y009114D02*
X026945Y009114D01*
X026945Y009212D02*
X026605Y009212D01*
X026605Y009311D02*
X026945Y009311D01*
X026945Y009409D02*
X026605Y009409D01*
X026605Y009508D02*
X026945Y009508D01*
X026945Y009606D02*
X026605Y009606D01*
X026605Y009705D02*
X026945Y009705D01*
X026945Y009803D02*
X026605Y009803D01*
X026605Y009902D02*
X026945Y009902D01*
X026945Y010000D02*
X026605Y010000D01*
X026605Y010099D02*
X026945Y010099D01*
X026945Y010197D02*
X026605Y010197D01*
X026605Y010296D02*
X026945Y010296D01*
X026945Y010394D02*
X026605Y010394D01*
X026605Y010493D02*
X026945Y010493D01*
X026945Y010591D02*
X026605Y010591D01*
X026605Y010690D02*
X026945Y010690D01*
X026945Y010788D02*
X026605Y010788D01*
X026605Y010887D02*
X026945Y010887D01*
X026945Y010985D02*
X026605Y010985D01*
X026605Y011084D02*
X026945Y011084D01*
X026945Y011182D02*
X026620Y011182D01*
X026710Y011281D02*
X026945Y011281D01*
X026945Y011379D02*
X026710Y011379D01*
X026710Y011478D02*
X026945Y011478D01*
X026945Y011576D02*
X026662Y011576D01*
X026605Y011675D02*
X026945Y011675D01*
X026945Y011773D02*
X026605Y011773D01*
X026605Y011872D02*
X026945Y011872D01*
X026945Y011970D02*
X026605Y011970D01*
X026605Y012069D02*
X026945Y012069D01*
X026945Y012167D02*
X026720Y012167D01*
X026817Y012266D02*
X026945Y012266D01*
X026945Y012364D02*
X026857Y012364D01*
X026890Y012463D02*
X026945Y012463D01*
X026945Y012561D02*
X026890Y012561D01*
X026890Y012660D02*
X026945Y012660D01*
X026945Y012758D02*
X026890Y012758D01*
X026890Y012857D02*
X026945Y012857D01*
X026945Y012955D02*
X026890Y012955D01*
X026890Y013054D02*
X026945Y013054D01*
X026945Y013152D02*
X026890Y013152D01*
X026890Y013251D02*
X026945Y013251D01*
X026945Y013349D02*
X026890Y013349D01*
X026853Y013448D02*
X026938Y013448D01*
X026839Y013546D02*
X026807Y013546D01*
X026741Y013645D02*
X026708Y013645D01*
X026642Y013743D02*
X026514Y013743D01*
X026286Y013743D02*
X025908Y013743D01*
X025809Y013645D02*
X026092Y013645D01*
X025993Y013546D02*
X025807Y013546D01*
X025853Y013448D02*
X025947Y013448D01*
X025910Y013349D02*
X025890Y013349D01*
X025890Y013251D02*
X025910Y013251D01*
X025910Y013152D02*
X025890Y013152D01*
X025890Y013054D02*
X025910Y013054D01*
X025910Y012955D02*
X025890Y012955D01*
X025890Y012857D02*
X025910Y012857D01*
X025910Y012758D02*
X025890Y012758D01*
X025890Y012660D02*
X025910Y012660D01*
X025910Y012561D02*
X025890Y012561D01*
X025890Y012463D02*
X025910Y012463D01*
X025943Y012364D02*
X025857Y012364D01*
X025817Y012266D02*
X025983Y012266D01*
X026080Y012167D02*
X025720Y012167D01*
X025605Y012069D02*
X026195Y012069D01*
X026195Y011970D02*
X025605Y011970D01*
X025605Y011872D02*
X026195Y011872D01*
X026195Y011773D02*
X025605Y011773D01*
X025605Y011675D02*
X026195Y011675D01*
X026138Y011576D02*
X025662Y011576D01*
X025710Y011478D02*
X026090Y011478D01*
X026090Y011379D02*
X025710Y011379D01*
X025710Y011281D02*
X026090Y011281D01*
X026180Y011182D02*
X025620Y011182D01*
X025180Y011182D02*
X024710Y011182D01*
X024710Y011166D02*
X024634Y011090D01*
X024166Y011090D01*
X024090Y011166D01*
X024090Y011634D01*
X024166Y011710D01*
X024634Y011710D01*
X024710Y011634D01*
X024710Y011166D01*
X024710Y011281D02*
X025090Y011281D01*
X025090Y011379D02*
X024710Y011379D01*
X024710Y011478D02*
X025090Y011478D01*
X025138Y011576D02*
X024710Y011576D01*
X024669Y011675D02*
X025195Y011675D01*
X025195Y011773D02*
X023605Y011773D01*
X023605Y011675D02*
X024131Y011675D01*
X024090Y011576D02*
X023662Y011576D01*
X023710Y011478D02*
X024090Y011478D01*
X024090Y011379D02*
X023710Y011379D01*
X023710Y011281D02*
X024090Y011281D01*
X024090Y011182D02*
X023620Y011182D01*
X023605Y011084D02*
X026195Y011084D01*
X026195Y010985D02*
X023605Y010985D01*
X023605Y010887D02*
X026195Y010887D01*
X026195Y010788D02*
X023605Y010788D01*
X023605Y010690D02*
X026195Y010690D01*
X026195Y010591D02*
X023605Y010591D01*
X023605Y010493D02*
X026195Y010493D01*
X026195Y010394D02*
X023605Y010394D01*
X023605Y010296D02*
X026195Y010296D01*
X026195Y010197D02*
X023605Y010197D01*
X023605Y010099D02*
X026195Y010099D01*
X026195Y010000D02*
X023605Y010000D01*
X023605Y009902D02*
X026195Y009902D01*
X026195Y009803D02*
X023605Y009803D01*
X023605Y009705D02*
X026195Y009705D01*
X026195Y009606D02*
X023605Y009606D01*
X023605Y009508D02*
X026195Y009508D01*
X026195Y009409D02*
X023605Y009409D01*
X023605Y009311D02*
X026195Y009311D01*
X026195Y009212D02*
X023605Y009212D01*
X023605Y009114D02*
X026195Y009114D01*
X026195Y009015D02*
X023605Y009015D01*
X023605Y008917D02*
X026195Y008917D01*
X026195Y008818D02*
X023605Y008818D01*
X023605Y008720D02*
X026195Y008720D01*
X026195Y008621D02*
X025580Y008621D01*
X025580Y008629D02*
X025504Y008705D01*
X024796Y008705D01*
X024720Y008629D01*
X024720Y007921D01*
X024796Y007845D01*
X025504Y007845D01*
X025580Y007921D01*
X025580Y008629D01*
X025580Y008523D02*
X026195Y008523D01*
X026195Y008424D02*
X025580Y008424D01*
X025580Y008326D02*
X026195Y008326D01*
X026195Y008227D02*
X025580Y008227D01*
X025580Y008129D02*
X026195Y008129D01*
X026195Y008030D02*
X025580Y008030D01*
X025580Y007932D02*
X026195Y007932D01*
X026195Y007833D02*
X023605Y007833D01*
X023605Y007735D02*
X026195Y007735D01*
X026195Y007636D02*
X025397Y007636D01*
X025394Y007640D02*
X025236Y007705D01*
X025064Y007705D01*
X024906Y007640D01*
X024785Y007519D01*
X024720Y007361D01*
X024720Y007189D01*
X024785Y007031D01*
X024906Y006910D01*
X025064Y006845D01*
X025236Y006845D01*
X025394Y006910D01*
X025515Y007031D01*
X025580Y007189D01*
X025580Y007361D01*
X025515Y007519D01*
X025394Y007640D01*
X025496Y007538D02*
X026195Y007538D01*
X026195Y007439D02*
X025547Y007439D01*
X025580Y007341D02*
X026195Y007341D01*
X026195Y007242D02*
X025580Y007242D01*
X025561Y007144D02*
X026195Y007144D01*
X026195Y007045D02*
X025520Y007045D01*
X025430Y006947D02*
X026195Y006947D01*
X026195Y006848D02*
X025243Y006848D01*
X025236Y006705D02*
X025064Y006705D01*
X024906Y006640D01*
X024785Y006519D01*
X024720Y006361D01*
X024720Y006189D01*
X024785Y006031D01*
X024906Y005910D01*
X025064Y005845D01*
X025236Y005845D01*
X025394Y005910D01*
X025515Y006031D01*
X025580Y006189D01*
X025580Y006361D01*
X025515Y006519D01*
X025394Y006640D01*
X025236Y006705D01*
X025366Y006651D02*
X026195Y006651D01*
X026195Y006553D02*
X025481Y006553D01*
X025541Y006454D02*
X026195Y006454D01*
X026195Y006356D02*
X025580Y006356D01*
X025580Y006257D02*
X026195Y006257D01*
X026195Y006159D02*
X025567Y006159D01*
X025526Y006060D02*
X026195Y006060D01*
X026195Y005962D02*
X025445Y005962D01*
X025279Y005863D02*
X026195Y005863D01*
X026195Y005765D02*
X023605Y005765D01*
X023605Y005863D02*
X025021Y005863D01*
X024855Y005962D02*
X023605Y005962D01*
X023605Y006060D02*
X024774Y006060D01*
X024733Y006159D02*
X023605Y006159D01*
X023605Y006257D02*
X024720Y006257D01*
X024720Y006356D02*
X023605Y006356D01*
X023605Y006454D02*
X024759Y006454D01*
X024819Y006553D02*
X023605Y006553D01*
X023605Y006651D02*
X024934Y006651D01*
X025057Y006848D02*
X023605Y006848D01*
X023605Y006750D02*
X026195Y006750D01*
X027355Y006750D02*
X029850Y006750D01*
X029850Y006848D02*
X027355Y006848D01*
X027355Y006947D02*
X029850Y006947D01*
X029850Y007045D02*
X027355Y007045D01*
X027355Y007144D02*
X029850Y007144D01*
X029850Y007242D02*
X027355Y007242D01*
X027355Y007341D02*
X029850Y007341D01*
X029850Y007439D02*
X027355Y007439D01*
X027355Y007538D02*
X029850Y007538D01*
X029850Y007636D02*
X027355Y007636D01*
X027355Y007735D02*
X029850Y007735D01*
X029850Y007833D02*
X027355Y007833D01*
X027355Y007932D02*
X029850Y007932D01*
X029850Y008030D02*
X027355Y008030D01*
X027355Y008129D02*
X029850Y008129D01*
X029850Y008227D02*
X027355Y008227D01*
X027355Y008326D02*
X029850Y008326D01*
X029850Y008424D02*
X027355Y008424D01*
X027355Y008523D02*
X029850Y008523D01*
X029850Y008621D02*
X027355Y008621D01*
X027355Y008720D02*
X029850Y008720D01*
X029850Y008818D02*
X027355Y008818D01*
X027355Y008917D02*
X029850Y008917D01*
X029850Y009015D02*
X027355Y009015D01*
X027355Y009114D02*
X029850Y009114D01*
X029850Y009212D02*
X027355Y009212D01*
X027355Y009311D02*
X029850Y009311D01*
X029850Y009409D02*
X027355Y009409D01*
X027355Y009508D02*
X029850Y009508D01*
X029850Y009606D02*
X027355Y009606D01*
X027355Y009705D02*
X029850Y009705D01*
X029850Y009803D02*
X027355Y009803D01*
X027355Y009902D02*
X029850Y009902D01*
X029850Y010000D02*
X027355Y010000D01*
X027355Y010099D02*
X029850Y010099D01*
X029850Y010197D02*
X027355Y010197D01*
X027355Y010296D02*
X029850Y010296D01*
X029850Y010394D02*
X027355Y010394D01*
X027355Y010493D02*
X029850Y010493D01*
X029850Y010591D02*
X027355Y010591D01*
X027355Y010690D02*
X029850Y010690D01*
X029850Y010788D02*
X027355Y010788D01*
X027355Y010887D02*
X029850Y010887D01*
X029850Y010985D02*
X027355Y010985D01*
X027355Y011084D02*
X029850Y011084D01*
X029850Y011182D02*
X027355Y011182D01*
X027355Y011281D02*
X029850Y011281D01*
X029850Y011379D02*
X027355Y011379D01*
X027355Y011478D02*
X029850Y011478D01*
X029850Y011576D02*
X027355Y011576D01*
X027355Y011675D02*
X029850Y011675D01*
X029850Y011773D02*
X027355Y011773D01*
X027355Y011872D02*
X029850Y011872D01*
X029850Y011970D02*
X027355Y011970D01*
X027355Y012069D02*
X029850Y012069D01*
X029850Y012167D02*
X027355Y012167D01*
X027355Y012266D02*
X029850Y012266D01*
X029850Y012364D02*
X027355Y012364D01*
X027355Y012463D02*
X029850Y012463D01*
X029850Y012561D02*
X027355Y012561D01*
X027355Y012660D02*
X029850Y012660D01*
X029850Y012758D02*
X027355Y012758D01*
X027355Y012857D02*
X029850Y012857D01*
X029850Y012955D02*
X027355Y012955D01*
X027355Y013054D02*
X029850Y013054D01*
X029850Y013152D02*
X027355Y013152D01*
X027355Y013251D02*
X029850Y013251D01*
X029850Y013349D02*
X027355Y013349D01*
X027355Y013448D02*
X029850Y013448D01*
X029850Y013546D02*
X027355Y013546D01*
X027320Y013645D02*
X029850Y013645D01*
X029850Y013743D02*
X027222Y013743D01*
X027123Y013842D02*
X029850Y013842D01*
X029850Y013940D02*
X027025Y013940D01*
X026926Y014039D02*
X029850Y014039D01*
X029850Y014137D02*
X026828Y014137D01*
X025722Y014137D02*
X019455Y014137D01*
X019455Y014039D02*
X025624Y014039D01*
X025525Y013940D02*
X019455Y013940D01*
X019455Y013842D02*
X025427Y013842D01*
X025286Y013743D02*
X024514Y013743D01*
X024497Y013750D02*
X024303Y013750D01*
X024122Y013675D01*
X023985Y013538D01*
X023910Y013357D01*
X023910Y012443D01*
X023985Y012262D01*
X024122Y012125D01*
X024303Y012050D01*
X024497Y012050D01*
X024678Y012125D01*
X024815Y012262D01*
X024890Y012443D01*
X024890Y013357D01*
X024815Y013538D01*
X024678Y013675D01*
X024497Y013750D01*
X024286Y013743D02*
X023514Y013743D01*
X023708Y013645D02*
X024092Y013645D01*
X023993Y013546D02*
X023807Y013546D01*
X023853Y013448D02*
X023947Y013448D01*
X023910Y013349D02*
X023890Y013349D01*
X023890Y013251D02*
X023910Y013251D01*
X023910Y013152D02*
X023890Y013152D01*
X023890Y013054D02*
X023910Y013054D01*
X023910Y012955D02*
X023890Y012955D01*
X023890Y012857D02*
X023910Y012857D01*
X023910Y012758D02*
X023890Y012758D01*
X023890Y012660D02*
X023910Y012660D01*
X023910Y012561D02*
X023890Y012561D01*
X023890Y012463D02*
X023910Y012463D01*
X023943Y012364D02*
X023857Y012364D01*
X023817Y012266D02*
X023983Y012266D01*
X024080Y012167D02*
X023720Y012167D01*
X023605Y012069D02*
X024258Y012069D01*
X024542Y012069D02*
X025195Y012069D01*
X025195Y011970D02*
X023605Y011970D01*
X023605Y011872D02*
X025195Y011872D01*
X025080Y012167D02*
X024720Y012167D01*
X024817Y012266D02*
X024983Y012266D01*
X024943Y012364D02*
X024857Y012364D01*
X024890Y012463D02*
X024910Y012463D01*
X024910Y012561D02*
X024890Y012561D01*
X024890Y012660D02*
X024910Y012660D01*
X024910Y012758D02*
X024890Y012758D01*
X024890Y012857D02*
X024910Y012857D01*
X024910Y012955D02*
X024890Y012955D01*
X024890Y013054D02*
X024910Y013054D01*
X024910Y013152D02*
X024890Y013152D01*
X024890Y013251D02*
X024910Y013251D01*
X024910Y013349D02*
X024890Y013349D01*
X024853Y013448D02*
X024947Y013448D01*
X024993Y013546D02*
X024807Y013546D01*
X024708Y013645D02*
X025092Y013645D01*
X023286Y013743D02*
X022514Y013743D01*
X022497Y013750D02*
X022303Y013750D01*
X022122Y013675D01*
X021985Y013538D01*
X021910Y013357D01*
X021910Y012443D01*
X021985Y012262D01*
X022122Y012125D01*
X022303Y012050D01*
X022497Y012050D01*
X022678Y012125D01*
X022815Y012262D01*
X022890Y012443D01*
X022890Y013357D01*
X022815Y013538D01*
X022678Y013675D01*
X022497Y013750D01*
X022286Y013743D02*
X021514Y013743D01*
X021708Y013645D02*
X022092Y013645D01*
X021993Y013546D02*
X021807Y013546D01*
X021853Y013448D02*
X021947Y013448D01*
X021910Y013349D02*
X021890Y013349D01*
X021890Y013251D02*
X021910Y013251D01*
X021910Y013152D02*
X021890Y013152D01*
X021890Y013054D02*
X021910Y013054D01*
X021910Y012955D02*
X021890Y012955D01*
X021890Y012857D02*
X021910Y012857D01*
X021910Y012758D02*
X021890Y012758D01*
X021890Y012660D02*
X021910Y012660D01*
X021910Y012561D02*
X021890Y012561D01*
X021890Y012463D02*
X021910Y012463D01*
X021943Y012364D02*
X021857Y012364D01*
X021817Y012266D02*
X021983Y012266D01*
X022080Y012167D02*
X021720Y012167D01*
X021605Y012069D02*
X022258Y012069D01*
X022542Y012069D02*
X023195Y012069D01*
X023195Y011970D02*
X021605Y011970D01*
X021605Y011872D02*
X023195Y011872D01*
X023195Y011773D02*
X021605Y011773D01*
X021605Y011675D02*
X022131Y011675D01*
X022166Y011710D02*
X022090Y011634D01*
X022090Y011166D01*
X022166Y011090D01*
X022634Y011090D01*
X022710Y011166D01*
X022710Y011634D01*
X022634Y011710D01*
X022166Y011710D01*
X022090Y011576D02*
X021662Y011576D01*
X021710Y011478D02*
X022090Y011478D01*
X022090Y011379D02*
X021710Y011379D01*
X021710Y011281D02*
X022090Y011281D01*
X022090Y011182D02*
X021620Y011182D01*
X021605Y011084D02*
X023195Y011084D01*
X023195Y010985D02*
X021605Y010985D01*
X021605Y010887D02*
X023195Y010887D01*
X023195Y010788D02*
X021605Y010788D01*
X021605Y010690D02*
X023195Y010690D01*
X023195Y010591D02*
X021605Y010591D01*
X021605Y010493D02*
X023195Y010493D01*
X023195Y010394D02*
X021605Y010394D01*
X021605Y010296D02*
X023195Y010296D01*
X023195Y010197D02*
X021643Y010197D01*
X021741Y010099D02*
X023195Y010099D01*
X023195Y010000D02*
X021840Y010000D01*
X021938Y009902D02*
X023195Y009902D01*
X023195Y009803D02*
X022037Y009803D01*
X022135Y009705D02*
X023195Y009705D01*
X023195Y009606D02*
X022234Y009606D01*
X022332Y009508D02*
X023195Y009508D01*
X023195Y009409D02*
X022431Y009409D01*
X022529Y009311D02*
X023195Y009311D01*
X023195Y009212D02*
X022628Y009212D01*
X022726Y009114D02*
X023195Y009114D01*
X023195Y009015D02*
X022825Y009015D01*
X022855Y008917D02*
X023195Y008917D01*
X023195Y008818D02*
X022855Y008818D01*
X022855Y008720D02*
X023195Y008720D01*
X023195Y008621D02*
X022855Y008621D01*
X022855Y008523D02*
X023195Y008523D01*
X023195Y008424D02*
X022855Y008424D01*
X022855Y008326D02*
X023195Y008326D01*
X023195Y008227D02*
X022855Y008227D01*
X022855Y008129D02*
X023195Y008129D01*
X023195Y008030D02*
X022855Y008030D01*
X022855Y007932D02*
X023195Y007932D01*
X023195Y007833D02*
X022855Y007833D01*
X022855Y007735D02*
X023195Y007735D01*
X023195Y007636D02*
X022855Y007636D01*
X022855Y007538D02*
X023195Y007538D01*
X023195Y007439D02*
X022855Y007439D01*
X022837Y007341D02*
X023195Y007341D01*
X023195Y007242D02*
X022738Y007242D01*
X022640Y007144D02*
X023195Y007144D01*
X023195Y007045D02*
X022541Y007045D01*
X022325Y006947D02*
X023195Y006947D01*
X023195Y006848D02*
X022293Y006848D01*
X021507Y006848D02*
X021293Y006848D01*
X021325Y006947D02*
X021475Y006947D01*
X021475Y007045D02*
X021325Y007045D01*
X021325Y007144D02*
X021475Y007144D01*
X021475Y007242D02*
X021325Y007242D01*
X021325Y007341D02*
X021475Y007341D01*
X021475Y007439D02*
X021325Y007439D01*
X021313Y007538D02*
X021487Y007538D01*
X021475Y007636D02*
X021325Y007636D01*
X021325Y008129D02*
X021475Y008129D01*
X021532Y008227D02*
X021268Y008227D01*
X020532Y008227D02*
X020268Y008227D01*
X020325Y008129D02*
X020475Y008129D01*
X019532Y008227D02*
X019460Y008227D01*
X019460Y008326D02*
X022445Y008326D01*
X022445Y008424D02*
X019455Y008424D01*
X019455Y008523D02*
X022445Y008523D01*
X022445Y008621D02*
X019455Y008621D01*
X019455Y008720D02*
X022445Y008720D01*
X022442Y008818D02*
X019455Y008818D01*
X019455Y008917D02*
X022344Y008917D01*
X022245Y009015D02*
X019455Y009015D01*
X019455Y009114D02*
X022147Y009114D01*
X022048Y009212D02*
X019455Y009212D01*
X019455Y009311D02*
X021950Y009311D01*
X021851Y009409D02*
X019455Y009409D01*
X019455Y009508D02*
X021753Y009508D01*
X021654Y009606D02*
X019455Y009606D01*
X019455Y009705D02*
X021556Y009705D01*
X021457Y009803D02*
X019455Y009803D01*
X019455Y009902D02*
X021359Y009902D01*
X021260Y010000D02*
X019455Y010000D01*
X019455Y010099D02*
X021195Y010099D01*
X021195Y010197D02*
X019455Y010197D01*
X019455Y010296D02*
X021195Y010296D01*
X021195Y010394D02*
X019455Y010394D01*
X019455Y010493D02*
X021195Y010493D01*
X021195Y010591D02*
X019455Y010591D01*
X019455Y010690D02*
X021195Y010690D01*
X021195Y010788D02*
X019455Y010788D01*
X019455Y010887D02*
X021195Y010887D01*
X021195Y010985D02*
X019455Y010985D01*
X019455Y011084D02*
X021195Y011084D01*
X021180Y011182D02*
X019455Y011182D01*
X019455Y011281D02*
X021090Y011281D01*
X021090Y011379D02*
X019455Y011379D01*
X019455Y011478D02*
X021090Y011478D01*
X021138Y011576D02*
X019455Y011576D01*
X019455Y011675D02*
X021195Y011675D01*
X021195Y011773D02*
X019455Y011773D01*
X019455Y011872D02*
X021195Y011872D01*
X021195Y011970D02*
X019455Y011970D01*
X019361Y012069D02*
X021195Y012069D01*
X021080Y012167D02*
X015480Y012167D01*
X015525Y011900D02*
X017275Y011900D01*
X017275Y008565D01*
X016980Y008860D01*
X016860Y008980D01*
X016200Y008980D01*
X016200Y009500D01*
X016168Y009533D01*
X016182Y009557D01*
X016190Y009588D01*
X016190Y009810D01*
X015825Y009810D01*
X015825Y009910D01*
X015725Y009910D01*
X015725Y010236D01*
X015525Y010236D01*
X015525Y011900D01*
X015525Y011872D02*
X017275Y011872D01*
X017275Y011773D02*
X015525Y011773D01*
X015525Y011675D02*
X017275Y011675D01*
X017275Y011576D02*
X016893Y011576D01*
X016816Y011653D02*
X016623Y011653D01*
X016623Y011117D01*
X017159Y011117D01*
X017159Y011310D01*
X016816Y011653D01*
X016623Y011576D02*
X016523Y011576D01*
X016523Y011653D02*
X016331Y011653D01*
X015987Y011310D01*
X015987Y011117D01*
X016523Y011117D01*
X016523Y011017D01*
X016623Y011017D01*
X016623Y010482D01*
X016816Y010482D01*
X017159Y010825D01*
X017159Y011017D01*
X016623Y011017D01*
X016623Y011117D01*
X016523Y011117D01*
X016523Y011653D01*
X016523Y011478D02*
X016623Y011478D01*
X016623Y011379D02*
X016523Y011379D01*
X016523Y011281D02*
X016623Y011281D01*
X016623Y011182D02*
X016523Y011182D01*
X016523Y011084D02*
X015525Y011084D01*
X015525Y011182D02*
X015987Y011182D01*
X015987Y011281D02*
X015525Y011281D01*
X015525Y011379D02*
X016057Y011379D01*
X016155Y011478D02*
X015525Y011478D01*
X015525Y011576D02*
X016254Y011576D01*
X016991Y011478D02*
X017275Y011478D01*
X017275Y011379D02*
X017090Y011379D01*
X017159Y011281D02*
X017275Y011281D01*
X017275Y011182D02*
X017159Y011182D01*
X017275Y011084D02*
X016623Y011084D01*
X016623Y010985D02*
X016523Y010985D01*
X016523Y011017D02*
X016523Y010482D01*
X016331Y010482D01*
X015987Y010825D01*
X015987Y011017D01*
X016523Y011017D01*
X016523Y010887D02*
X016623Y010887D01*
X016623Y010788D02*
X016523Y010788D01*
X016523Y010690D02*
X016623Y010690D01*
X016623Y010591D02*
X016523Y010591D01*
X016523Y010493D02*
X016623Y010493D01*
X016827Y010493D02*
X017275Y010493D01*
X017275Y010591D02*
X016925Y010591D01*
X017024Y010690D02*
X017275Y010690D01*
X017275Y010788D02*
X017122Y010788D01*
X017159Y010887D02*
X017275Y010887D01*
X017275Y010985D02*
X017159Y010985D01*
X017525Y010985D02*
X017641Y010985D01*
X017641Y011017D02*
X017641Y010586D01*
X017649Y010555D01*
X017665Y010528D01*
X017687Y010506D01*
X017715Y010490D01*
X017745Y010482D01*
X018177Y010482D01*
X018177Y011017D01*
X018277Y011017D01*
X018277Y010482D01*
X018708Y010482D01*
X018739Y010490D01*
X018766Y010506D01*
X018789Y010528D01*
X018804Y010555D01*
X018813Y010586D01*
X018813Y011017D01*
X018277Y011017D01*
X018277Y011117D01*
X018813Y011117D01*
X018813Y011549D01*
X018804Y011579D01*
X018789Y011607D01*
X018766Y011629D01*
X018739Y011645D01*
X018708Y011653D01*
X018277Y011653D01*
X018277Y011117D01*
X018177Y011117D01*
X018177Y011017D01*
X017641Y011017D01*
X017641Y011117D02*
X018177Y011117D01*
X018177Y011653D01*
X017745Y011653D01*
X017715Y011645D01*
X017687Y011629D01*
X017665Y011607D01*
X017649Y011579D01*
X017641Y011549D01*
X017641Y011117D01*
X017641Y011182D02*
X017525Y011182D01*
X017525Y011084D02*
X018177Y011084D01*
X018177Y011182D02*
X018277Y011182D01*
X018277Y011084D02*
X019275Y011084D01*
X019275Y011182D02*
X018813Y011182D01*
X018813Y011281D02*
X019275Y011281D01*
X019275Y011379D02*
X018813Y011379D01*
X018813Y011478D02*
X019275Y011478D01*
X019275Y011576D02*
X018805Y011576D01*
X019275Y011675D02*
X017525Y011675D01*
X017525Y011773D02*
X019275Y011773D01*
X019275Y011872D02*
X017525Y011872D01*
X017525Y011900D02*
X017525Y008440D01*
X017945Y008860D01*
X018050Y008965D01*
X017666Y008965D01*
X017590Y009041D01*
X017590Y009509D01*
X017666Y009585D01*
X018134Y009585D01*
X018210Y009509D01*
X018210Y009041D01*
X018149Y008980D01*
X018600Y008980D01*
X018600Y009500D01*
X018632Y009533D01*
X018618Y009557D01*
X018610Y009588D01*
X018610Y009810D01*
X018975Y009810D01*
X018975Y009910D01*
X018975Y010236D01*
X018714Y010236D01*
X018683Y010227D01*
X018656Y010212D01*
X018634Y010189D01*
X018618Y010162D01*
X018610Y010131D01*
X018610Y009910D01*
X018975Y009910D01*
X019075Y009910D01*
X019075Y010236D01*
X019275Y010236D01*
X019275Y011900D01*
X017525Y011900D01*
X017439Y012069D02*
X017361Y012069D01*
X017525Y011576D02*
X017648Y011576D01*
X017641Y011478D02*
X017525Y011478D01*
X017525Y011379D02*
X017641Y011379D01*
X017641Y011281D02*
X017525Y011281D01*
X018177Y011281D02*
X018277Y011281D01*
X018277Y011379D02*
X018177Y011379D01*
X018177Y011478D02*
X018277Y011478D01*
X018277Y011576D02*
X018177Y011576D01*
X018177Y010985D02*
X018277Y010985D01*
X018277Y010887D02*
X018177Y010887D01*
X018177Y010788D02*
X018277Y010788D01*
X018277Y010690D02*
X018177Y010690D01*
X018177Y010591D02*
X018277Y010591D01*
X018277Y010493D02*
X018177Y010493D01*
X017710Y010493D02*
X017525Y010493D01*
X017525Y010591D02*
X017641Y010591D01*
X017641Y010690D02*
X017525Y010690D01*
X017525Y010788D02*
X017641Y010788D01*
X017641Y010887D02*
X017525Y010887D01*
X017525Y010394D02*
X019275Y010394D01*
X019275Y010296D02*
X017525Y010296D01*
X017525Y010197D02*
X018641Y010197D01*
X018610Y010099D02*
X017525Y010099D01*
X017525Y010000D02*
X018610Y010000D01*
X018610Y009803D02*
X017525Y009803D01*
X017525Y009705D02*
X018610Y009705D01*
X018610Y009606D02*
X017525Y009606D01*
X017525Y009508D02*
X017590Y009508D01*
X017590Y009409D02*
X017525Y009409D01*
X017525Y009311D02*
X017590Y009311D01*
X017590Y009212D02*
X017525Y009212D01*
X017525Y009114D02*
X017590Y009114D01*
X017616Y009015D02*
X017525Y009015D01*
X017525Y008917D02*
X018002Y008917D01*
X017903Y008818D02*
X017525Y008818D01*
X017525Y008720D02*
X017805Y008720D01*
X017706Y008621D02*
X017525Y008621D01*
X017525Y008523D02*
X017608Y008523D01*
X017275Y008621D02*
X017219Y008621D01*
X017275Y008720D02*
X017120Y008720D01*
X017022Y008818D02*
X017275Y008818D01*
X017275Y008917D02*
X016923Y008917D01*
X017275Y009015D02*
X016200Y009015D01*
X016200Y009114D02*
X017275Y009114D01*
X017275Y009212D02*
X016200Y009212D01*
X016200Y009311D02*
X017275Y009311D01*
X017275Y009409D02*
X016200Y009409D01*
X016193Y009508D02*
X017275Y009508D01*
X017275Y009606D02*
X016190Y009606D01*
X016190Y009705D02*
X017275Y009705D01*
X017275Y009803D02*
X016190Y009803D01*
X016190Y009910D02*
X015825Y009910D01*
X015825Y010236D01*
X016086Y010236D01*
X016117Y010227D01*
X016144Y010212D01*
X016166Y010189D01*
X016182Y010162D01*
X016190Y010131D01*
X016190Y009910D01*
X016190Y010000D02*
X017275Y010000D01*
X017275Y009902D02*
X015825Y009902D01*
X015825Y010000D02*
X015725Y010000D01*
X015725Y010099D02*
X015825Y010099D01*
X015825Y010197D02*
X015725Y010197D01*
X015525Y010296D02*
X017275Y010296D01*
X017275Y010394D02*
X015525Y010394D01*
X015525Y010493D02*
X016320Y010493D01*
X016221Y010591D02*
X015525Y010591D01*
X015525Y010690D02*
X016123Y010690D01*
X016024Y010788D02*
X015525Y010788D01*
X015525Y010887D02*
X015987Y010887D01*
X015987Y010985D02*
X015525Y010985D01*
X015025Y010985D02*
X014676Y010985D01*
X014676Y010914D02*
X014676Y011234D01*
X014075Y011234D01*
X014075Y011334D01*
X013975Y011334D01*
X013975Y011758D01*
X013478Y011758D01*
X013447Y011750D01*
X013420Y011734D01*
X013397Y011712D01*
X013382Y011685D01*
X013374Y011654D01*
X013374Y011334D01*
X013975Y011334D01*
X013975Y011234D01*
X013374Y011234D01*
X013374Y010914D01*
X013382Y010883D01*
X013397Y010856D01*
X013420Y010834D01*
X013447Y010818D01*
X013478Y010810D01*
X013975Y010810D01*
X013975Y011234D01*
X014075Y011234D01*
X014075Y010810D01*
X014572Y010810D01*
X014603Y010818D01*
X014630Y010834D01*
X014653Y010856D01*
X014668Y010883D01*
X014676Y010914D01*
X014669Y010887D02*
X015025Y010887D01*
X015025Y010788D02*
X012149Y010788D01*
X012149Y010690D02*
X015025Y010690D01*
X015025Y010591D02*
X012149Y010591D01*
X012149Y010576D02*
X012149Y011017D01*
X011604Y011017D01*
X011604Y011117D01*
X012149Y011117D01*
X012149Y011559D01*
X012141Y011589D01*
X012125Y011617D01*
X012103Y011639D01*
X012075Y011655D01*
X012045Y011663D01*
X011604Y011663D01*
X011604Y011117D01*
X011504Y011117D01*
X011504Y011663D01*
X011062Y011663D01*
X011032Y011655D01*
X011004Y011639D01*
X010982Y011617D01*
X010966Y011589D01*
X010958Y011559D01*
X010958Y011117D01*
X011504Y011117D01*
X011504Y011017D01*
X011604Y011017D01*
X011604Y010472D01*
X012045Y010472D01*
X012075Y010480D01*
X012103Y010496D01*
X012125Y010518D01*
X012141Y010545D01*
X012149Y010576D01*
X012097Y010493D02*
X015025Y010493D01*
X015025Y010394D02*
X010855Y010394D01*
X010855Y010296D02*
X015025Y010296D01*
X015025Y010197D02*
X010855Y010197D01*
X010855Y010099D02*
X015025Y010099D01*
X015025Y010000D02*
X010855Y010000D01*
X010855Y009902D02*
X015025Y009902D01*
X015025Y009803D02*
X010855Y009803D01*
X010855Y009705D02*
X014955Y009705D01*
X015025Y009775D02*
X014775Y009525D01*
X013150Y009525D01*
X012275Y008650D01*
X012275Y006145D01*
X011736Y006145D01*
X010855Y007026D01*
X010855Y011900D01*
X015025Y011900D01*
X015025Y009775D01*
X014856Y009606D02*
X010855Y009606D01*
X010855Y009508D02*
X013133Y009508D01*
X013034Y009409D02*
X010855Y009409D01*
X010855Y009311D02*
X012936Y009311D01*
X012837Y009212D02*
X010855Y009212D01*
X010855Y009114D02*
X012739Y009114D01*
X012640Y009015D02*
X010855Y009015D01*
X010855Y008917D02*
X012542Y008917D01*
X012443Y008818D02*
X010855Y008818D01*
X010855Y008720D02*
X012345Y008720D01*
X012275Y008621D02*
X010855Y008621D01*
X010855Y008523D02*
X012275Y008523D01*
X012275Y008424D02*
X010855Y008424D01*
X010855Y008326D02*
X012275Y008326D01*
X012275Y008227D02*
X010855Y008227D01*
X010855Y008129D02*
X012275Y008129D01*
X012275Y008030D02*
X010855Y008030D01*
X010855Y007932D02*
X012275Y007932D01*
X012275Y007833D02*
X010855Y007833D01*
X010855Y007735D02*
X012275Y007735D01*
X012275Y007636D02*
X010855Y007636D01*
X010855Y007538D02*
X012275Y007538D01*
X012275Y007439D02*
X010855Y007439D01*
X010855Y007341D02*
X012275Y007341D01*
X012275Y007242D02*
X010855Y007242D01*
X010855Y007144D02*
X012275Y007144D01*
X012275Y007045D02*
X010855Y007045D01*
X010935Y006947D02*
X012275Y006947D01*
X012275Y006848D02*
X011033Y006848D01*
X011132Y006750D02*
X012275Y006750D01*
X012275Y006651D02*
X011230Y006651D01*
X011329Y006553D02*
X012275Y006553D01*
X012275Y006454D02*
X011427Y006454D01*
X011526Y006356D02*
X012275Y006356D01*
X012275Y006257D02*
X011624Y006257D01*
X011723Y006159D02*
X012275Y006159D01*
X011537Y005765D02*
X005605Y005765D01*
X005605Y005863D02*
X011438Y005863D01*
X011340Y005962D02*
X005605Y005962D01*
X005605Y006060D02*
X011241Y006060D01*
X011143Y006159D02*
X005605Y006159D01*
X005605Y006257D02*
X011044Y006257D01*
X010946Y006356D02*
X005605Y006356D01*
X005605Y006454D02*
X010847Y006454D01*
X010749Y006553D02*
X005605Y006553D01*
X005605Y006651D02*
X010650Y006651D01*
X010552Y006750D02*
X005605Y006750D01*
X005605Y006848D02*
X010453Y006848D01*
X010445Y006947D02*
X009230Y006947D01*
X009232Y006947D02*
X009397Y007112D01*
X009486Y007328D01*
X009486Y008472D01*
X009397Y008688D01*
X009232Y008853D01*
X009017Y008942D01*
X008783Y008942D01*
X008568Y008853D01*
X008403Y008688D01*
X008314Y008472D01*
X008314Y007328D01*
X008403Y007112D01*
X008568Y006947D01*
X008783Y006858D01*
X009017Y006858D01*
X009232Y006947D01*
X009330Y007045D02*
X010445Y007045D01*
X010445Y007144D02*
X009410Y007144D01*
X009450Y007242D02*
X010445Y007242D01*
X010445Y007341D02*
X009486Y007341D01*
X009486Y007439D02*
X010445Y007439D01*
X010445Y007538D02*
X009486Y007538D01*
X009486Y007636D02*
X010445Y007636D01*
X010445Y007735D02*
X009486Y007735D01*
X009486Y007833D02*
X010445Y007833D01*
X010445Y007932D02*
X009486Y007932D01*
X009486Y008030D02*
X010445Y008030D01*
X010445Y008129D02*
X009486Y008129D01*
X009486Y008227D02*
X010445Y008227D01*
X010445Y008326D02*
X009486Y008326D01*
X009486Y008424D02*
X010445Y008424D01*
X010445Y008523D02*
X009465Y008523D01*
X009424Y008621D02*
X010445Y008621D01*
X010445Y008720D02*
X009365Y008720D01*
X009266Y008818D02*
X010445Y008818D01*
X010445Y008917D02*
X009078Y008917D01*
X008722Y008917D02*
X006828Y008917D01*
X006767Y008942D02*
X006533Y008942D01*
X006318Y008853D01*
X006153Y008688D01*
X006064Y008472D01*
X006064Y007328D01*
X006153Y007112D01*
X006318Y006947D01*
X006533Y006858D01*
X006767Y006858D01*
X006982Y006947D01*
X007147Y007112D01*
X007236Y007328D01*
X007236Y008472D01*
X007147Y008688D01*
X006982Y008853D01*
X006767Y008942D01*
X007016Y008818D02*
X008534Y008818D01*
X008435Y008720D02*
X007115Y008720D01*
X007174Y008621D02*
X008376Y008621D01*
X008335Y008523D02*
X007215Y008523D01*
X007236Y008424D02*
X008314Y008424D01*
X008314Y008326D02*
X007236Y008326D01*
X007236Y008227D02*
X008314Y008227D01*
X008314Y008129D02*
X007236Y008129D01*
X007236Y008030D02*
X008314Y008030D01*
X008314Y007932D02*
X007236Y007932D01*
X007236Y007833D02*
X008314Y007833D01*
X008314Y007735D02*
X007236Y007735D01*
X007236Y007636D02*
X008314Y007636D01*
X008314Y007538D02*
X007236Y007538D01*
X007236Y007439D02*
X008314Y007439D01*
X008314Y007341D02*
X007236Y007341D01*
X007200Y007242D02*
X008350Y007242D01*
X008390Y007144D02*
X007160Y007144D01*
X007080Y007045D02*
X008470Y007045D01*
X008570Y006947D02*
X006980Y006947D01*
X006320Y006947D02*
X005605Y006947D01*
X005605Y007045D02*
X006220Y007045D01*
X006140Y007144D02*
X005605Y007144D01*
X005605Y007242D02*
X006100Y007242D01*
X006064Y007341D02*
X005605Y007341D01*
X005605Y007439D02*
X006064Y007439D01*
X006064Y007538D02*
X005605Y007538D01*
X005605Y007636D02*
X006064Y007636D01*
X006064Y007735D02*
X005605Y007735D01*
X005605Y007833D02*
X006064Y007833D01*
X006064Y007932D02*
X005605Y007932D01*
X005605Y008030D02*
X006064Y008030D01*
X006064Y008129D02*
X005605Y008129D01*
X005605Y008227D02*
X006064Y008227D01*
X006064Y008326D02*
X005605Y008326D01*
X005605Y008424D02*
X006064Y008424D01*
X006085Y008523D02*
X005605Y008523D01*
X005605Y008621D02*
X006126Y008621D01*
X006185Y008720D02*
X005605Y008720D01*
X005605Y008818D02*
X006284Y008818D01*
X006472Y008917D02*
X005605Y008917D01*
X005605Y009015D02*
X010445Y009015D01*
X010445Y009114D02*
X005605Y009114D01*
X005605Y009212D02*
X010445Y009212D01*
X010445Y009311D02*
X005605Y009311D01*
X005605Y009409D02*
X010445Y009409D01*
X010445Y009508D02*
X010116Y009508D01*
X010078Y009470D02*
X010330Y009722D01*
X010330Y010078D01*
X010078Y010330D01*
X009722Y010330D01*
X009470Y010078D01*
X009470Y009722D01*
X009722Y009470D01*
X010078Y009470D01*
X010214Y009606D02*
X010445Y009606D01*
X010445Y009705D02*
X010313Y009705D01*
X010330Y009803D02*
X010445Y009803D01*
X010445Y009902D02*
X010330Y009902D01*
X010330Y010000D02*
X010445Y010000D01*
X010445Y010099D02*
X010310Y010099D01*
X010211Y010197D02*
X010445Y010197D01*
X010445Y010296D02*
X010113Y010296D01*
X010445Y010394D02*
X006380Y010394D01*
X006289Y010485D02*
X006011Y010485D01*
X005815Y010289D01*
X005815Y010011D01*
X006011Y009815D01*
X006289Y009815D01*
X006485Y010011D01*
X006485Y010289D01*
X006289Y010485D01*
X005920Y010394D02*
X005605Y010394D01*
X005605Y010296D02*
X005822Y010296D01*
X005815Y010197D02*
X005605Y010197D01*
X005605Y010099D02*
X005815Y010099D01*
X005826Y010000D02*
X005605Y010000D01*
X005605Y009902D02*
X005925Y009902D01*
X005605Y009803D02*
X007816Y009803D01*
X007816Y009722D02*
X008068Y009470D01*
X008425Y009470D01*
X008676Y009722D01*
X008676Y010078D01*
X008425Y010330D01*
X008068Y010330D01*
X007816Y010078D01*
X007816Y009722D01*
X007834Y009705D02*
X005605Y009705D01*
X005605Y009606D02*
X007932Y009606D01*
X008031Y009508D02*
X005605Y009508D01*
X006375Y009902D02*
X007816Y009902D01*
X007816Y010000D02*
X006474Y010000D01*
X006485Y010099D02*
X007837Y010099D01*
X007935Y010197D02*
X006485Y010197D01*
X006478Y010296D02*
X008034Y010296D01*
X008459Y010296D02*
X009687Y010296D01*
X009589Y010197D02*
X008558Y010197D01*
X008656Y010099D02*
X009490Y010099D01*
X009470Y010000D02*
X008676Y010000D01*
X008676Y009902D02*
X009470Y009902D01*
X009470Y009803D02*
X008676Y009803D01*
X008659Y009705D02*
X009487Y009705D01*
X009586Y009606D02*
X008561Y009606D01*
X008462Y009508D02*
X009684Y009508D01*
X011032Y010480D02*
X011062Y010472D01*
X011504Y010472D01*
X011504Y011017D01*
X010958Y011017D01*
X010958Y010576D01*
X010966Y010545D01*
X010982Y010518D01*
X011004Y010496D01*
X011032Y010480D01*
X011010Y010493D02*
X010855Y010493D01*
X010855Y010591D02*
X010958Y010591D01*
X010958Y010690D02*
X010855Y010690D01*
X010855Y010788D02*
X010958Y010788D01*
X010958Y010887D02*
X010855Y010887D01*
X010855Y010985D02*
X010958Y010985D01*
X010855Y011084D02*
X011504Y011084D01*
X011504Y011182D02*
X011604Y011182D01*
X011604Y011084D02*
X013374Y011084D01*
X013374Y011182D02*
X012149Y011182D01*
X012149Y011281D02*
X013975Y011281D01*
X013975Y011379D02*
X014075Y011379D01*
X014075Y011334D02*
X014075Y011758D01*
X014572Y011758D01*
X014603Y011750D01*
X014630Y011734D01*
X014653Y011712D01*
X014668Y011685D01*
X014676Y011654D01*
X014676Y011334D01*
X014075Y011334D01*
X014075Y011281D02*
X015025Y011281D01*
X015025Y011379D02*
X014676Y011379D01*
X014676Y011478D02*
X015025Y011478D01*
X015025Y011576D02*
X014676Y011576D01*
X014671Y011675D02*
X015025Y011675D01*
X015025Y011773D02*
X010855Y011773D01*
X010855Y011675D02*
X013379Y011675D01*
X013374Y011576D02*
X012144Y011576D01*
X012149Y011478D02*
X013374Y011478D01*
X013374Y011379D02*
X012149Y011379D01*
X012149Y010985D02*
X013374Y010985D01*
X013381Y010887D02*
X012149Y010887D01*
X011604Y010887D02*
X011504Y010887D01*
X011504Y010985D02*
X011604Y010985D01*
X011604Y010788D02*
X011504Y010788D01*
X011504Y010690D02*
X011604Y010690D01*
X011604Y010591D02*
X011504Y010591D01*
X011504Y010493D02*
X011604Y010493D01*
X010958Y011182D02*
X010855Y011182D01*
X010855Y011281D02*
X010958Y011281D01*
X010958Y011379D02*
X010855Y011379D01*
X010855Y011478D02*
X010958Y011478D01*
X010963Y011576D02*
X010855Y011576D01*
X010445Y011576D02*
X010248Y011576D01*
X010346Y011478D02*
X010445Y011478D01*
X010855Y011872D02*
X015025Y011872D01*
X014075Y011675D02*
X013975Y011675D01*
X013975Y011576D02*
X014075Y011576D01*
X014075Y011478D02*
X013975Y011478D01*
X013975Y011182D02*
X014075Y011182D01*
X014075Y011084D02*
X013975Y011084D01*
X013975Y010985D02*
X014075Y010985D01*
X014075Y010887D02*
X013975Y010887D01*
X014676Y011084D02*
X015025Y011084D01*
X015025Y011182D02*
X014676Y011182D01*
X016159Y010197D02*
X017275Y010197D01*
X017275Y010099D02*
X016190Y010099D01*
X017525Y009902D02*
X018975Y009902D01*
X018975Y010000D02*
X019075Y010000D01*
X019075Y010099D02*
X018975Y010099D01*
X018975Y010197D02*
X019075Y010197D01*
X019275Y010493D02*
X018744Y010493D01*
X018813Y010591D02*
X019275Y010591D01*
X019275Y010690D02*
X018813Y010690D01*
X018813Y010788D02*
X019275Y010788D01*
X019275Y010887D02*
X018813Y010887D01*
X018813Y010985D02*
X019275Y010985D01*
X019395Y012266D02*
X020983Y012266D01*
X020943Y012364D02*
X019455Y012364D01*
X019455Y012463D02*
X020910Y012463D01*
X020910Y012561D02*
X019455Y012561D01*
X019455Y012660D02*
X020910Y012660D01*
X020910Y012758D02*
X019455Y012758D01*
X019455Y012857D02*
X020910Y012857D01*
X020910Y012955D02*
X019455Y012955D01*
X019455Y013054D02*
X020910Y013054D01*
X020910Y013152D02*
X019455Y013152D01*
X019455Y013251D02*
X020910Y013251D01*
X020910Y013349D02*
X019455Y013349D01*
X019455Y013448D02*
X020947Y013448D01*
X020993Y013546D02*
X019455Y013546D01*
X019455Y013645D02*
X021092Y013645D01*
X021286Y013743D02*
X019455Y013743D01*
X019275Y013743D02*
X018559Y013743D01*
X018474Y013828D02*
X017980Y013828D01*
X017631Y013479D01*
X017631Y012986D01*
X017980Y012637D01*
X018474Y012637D01*
X018823Y012986D01*
X018823Y013479D01*
X018474Y013828D01*
X018405Y013970D02*
X018049Y013970D01*
X017797Y014222D01*
X017797Y014578D01*
X018049Y014830D01*
X018405Y014830D01*
X018657Y014578D01*
X018657Y014222D01*
X018405Y013970D01*
X018473Y014039D02*
X019275Y014039D01*
X019275Y014137D02*
X018572Y014137D01*
X018657Y014236D02*
X019275Y014236D01*
X019275Y014334D02*
X018657Y014334D01*
X018657Y014433D02*
X019275Y014433D01*
X019275Y014531D02*
X018657Y014531D01*
X018605Y014630D02*
X019275Y014630D01*
X019275Y014728D02*
X018507Y014728D01*
X018408Y014827D02*
X019275Y014827D01*
X019275Y014850D02*
X019275Y012400D01*
X010650Y012400D01*
X010650Y014850D01*
X019275Y014850D01*
X019455Y014827D02*
X029850Y014827D01*
X029850Y014728D02*
X019455Y014728D01*
X019455Y014630D02*
X029850Y014630D01*
X029850Y014531D02*
X019455Y014531D01*
X019455Y014433D02*
X029850Y014433D01*
X029850Y014334D02*
X019455Y014334D01*
X019455Y014236D02*
X029850Y014236D01*
X023092Y013645D02*
X022708Y013645D01*
X022807Y013546D02*
X022993Y013546D01*
X022947Y013448D02*
X022853Y013448D01*
X022890Y013349D02*
X022910Y013349D01*
X022910Y013251D02*
X022890Y013251D01*
X022890Y013152D02*
X022910Y013152D01*
X022910Y013054D02*
X022890Y013054D01*
X022890Y012955D02*
X022910Y012955D01*
X022910Y012857D02*
X022890Y012857D01*
X022890Y012758D02*
X022910Y012758D01*
X022910Y012660D02*
X022890Y012660D01*
X022890Y012561D02*
X022910Y012561D01*
X022910Y012463D02*
X022890Y012463D01*
X022857Y012364D02*
X022943Y012364D01*
X022983Y012266D02*
X022817Y012266D01*
X022720Y012167D02*
X023080Y012167D01*
X023195Y011675D02*
X022669Y011675D01*
X022710Y011576D02*
X023138Y011576D01*
X023090Y011478D02*
X022710Y011478D01*
X022710Y011379D02*
X023090Y011379D01*
X023090Y011281D02*
X022710Y011281D01*
X022710Y011182D02*
X023180Y011182D01*
X019275Y012463D02*
X010650Y012463D01*
X010650Y012561D02*
X013428Y012561D01*
X013420Y012566D02*
X013447Y012550D01*
X013478Y012542D01*
X013975Y012542D01*
X013975Y012966D01*
X014075Y012966D01*
X014075Y012542D01*
X014572Y012542D01*
X014603Y012550D01*
X014630Y012566D01*
X014653Y012588D01*
X014668Y012615D01*
X014676Y012646D01*
X014676Y012966D01*
X014075Y012966D01*
X014075Y013066D01*
X014676Y013066D01*
X014676Y013386D01*
X014668Y013417D01*
X014653Y013444D01*
X014630Y013466D01*
X014603Y013482D01*
X014572Y013490D01*
X014075Y013490D01*
X014075Y013066D01*
X013975Y013066D01*
X013975Y012966D01*
X013374Y012966D01*
X013374Y012646D01*
X013382Y012615D01*
X013397Y012588D01*
X013420Y012566D01*
X013374Y012660D02*
X011837Y012660D01*
X011804Y012627D02*
X012159Y012982D01*
X012159Y013484D01*
X011804Y013838D01*
X011303Y013838D01*
X010948Y013484D01*
X010948Y012982D01*
X011303Y012627D01*
X011804Y012627D01*
X011935Y012758D02*
X013374Y012758D01*
X013374Y012857D02*
X012034Y012857D01*
X012132Y012955D02*
X013374Y012955D01*
X013374Y013066D02*
X013374Y013386D01*
X013382Y013417D01*
X013397Y013444D01*
X013420Y013466D01*
X013447Y013482D01*
X013478Y013490D01*
X013975Y013490D01*
X013975Y013066D01*
X013374Y013066D01*
X013374Y013152D02*
X012159Y013152D01*
X012159Y013054D02*
X013975Y013054D01*
X013975Y013152D02*
X014075Y013152D01*
X014075Y013054D02*
X015987Y013054D01*
X015987Y012990D02*
X016331Y012647D01*
X016523Y012647D01*
X016523Y013183D01*
X015987Y013183D01*
X015987Y012990D01*
X016023Y012955D02*
X014676Y012955D01*
X014676Y012857D02*
X016121Y012857D01*
X016220Y012758D02*
X014676Y012758D01*
X014676Y012660D02*
X016318Y012660D01*
X016523Y012660D02*
X016623Y012660D01*
X016623Y012647D02*
X016816Y012647D01*
X017159Y012990D01*
X017159Y013183D01*
X016623Y013183D01*
X016623Y013283D01*
X016523Y013283D01*
X016523Y013818D01*
X016331Y013818D01*
X015987Y013475D01*
X015987Y013283D01*
X016523Y013283D01*
X016523Y013183D01*
X016623Y013183D01*
X016623Y012647D01*
X016623Y012758D02*
X016523Y012758D01*
X016523Y012857D02*
X016623Y012857D01*
X016623Y012955D02*
X016523Y012955D01*
X016523Y013054D02*
X016623Y013054D01*
X016623Y013152D02*
X016523Y013152D01*
X016523Y013251D02*
X014676Y013251D01*
X014676Y013349D02*
X015987Y013349D01*
X015987Y013448D02*
X014649Y013448D01*
X014676Y013152D02*
X015987Y013152D01*
X016058Y013546D02*
X012097Y013546D01*
X012159Y013448D02*
X013401Y013448D01*
X013374Y013349D02*
X012159Y013349D01*
X012159Y013251D02*
X013374Y013251D01*
X013975Y013251D02*
X014075Y013251D01*
X014075Y013349D02*
X013975Y013349D01*
X013975Y013448D02*
X014075Y013448D01*
X014075Y012955D02*
X013975Y012955D01*
X013975Y012857D02*
X014075Y012857D01*
X014075Y012758D02*
X013975Y012758D01*
X013975Y012660D02*
X014075Y012660D01*
X014075Y012561D02*
X013975Y012561D01*
X014622Y012561D02*
X019275Y012561D01*
X019275Y012660D02*
X018496Y012660D01*
X018595Y012758D02*
X019275Y012758D01*
X019275Y012857D02*
X018693Y012857D01*
X018792Y012955D02*
X019275Y012955D01*
X019275Y013054D02*
X018823Y013054D01*
X018823Y013152D02*
X019275Y013152D01*
X019275Y013251D02*
X018823Y013251D01*
X018823Y013349D02*
X019275Y013349D01*
X019275Y013448D02*
X018823Y013448D01*
X018756Y013546D02*
X019275Y013546D01*
X019275Y013645D02*
X018657Y013645D01*
X019275Y013842D02*
X010650Y013842D01*
X010650Y013940D02*
X019275Y013940D01*
X017980Y014039D02*
X011976Y014039D01*
X011984Y014046D02*
X011907Y013970D01*
X011200Y013970D01*
X011124Y014046D01*
X011124Y014754D01*
X011200Y014830D01*
X011907Y014830D01*
X011984Y014754D01*
X011984Y014046D01*
X011984Y014137D02*
X017882Y014137D01*
X017797Y014236D02*
X011984Y014236D01*
X011984Y014334D02*
X017797Y014334D01*
X017797Y014433D02*
X011984Y014433D01*
X011984Y014531D02*
X017797Y014531D01*
X017848Y014630D02*
X011984Y014630D01*
X011984Y014728D02*
X017947Y014728D01*
X018045Y014827D02*
X011911Y014827D01*
X011196Y014827D02*
X010650Y014827D01*
X010650Y014728D02*
X011124Y014728D01*
X011124Y014630D02*
X010650Y014630D01*
X010650Y014531D02*
X011124Y014531D01*
X011124Y014433D02*
X010650Y014433D01*
X010650Y014334D02*
X011124Y014334D01*
X011124Y014236D02*
X010650Y014236D01*
X010650Y014137D02*
X011124Y014137D01*
X011131Y014039D02*
X010650Y014039D01*
X010470Y014039D02*
X010147Y014039D01*
X010078Y013970D02*
X009722Y013970D01*
X009470Y014222D01*
X009470Y014578D01*
X009722Y014830D01*
X010078Y014830D01*
X010330Y014578D01*
X010330Y014222D01*
X010078Y013970D01*
X010245Y014137D02*
X010470Y014137D01*
X010470Y014236D02*
X010330Y014236D01*
X010330Y014334D02*
X010470Y014334D01*
X010470Y014433D02*
X010330Y014433D01*
X010330Y014531D02*
X010470Y014531D01*
X010470Y014630D02*
X010279Y014630D01*
X010180Y014728D02*
X010470Y014728D01*
X010470Y014827D02*
X010082Y014827D01*
X009718Y014827D02*
X008428Y014827D01*
X008527Y014728D02*
X009620Y014728D01*
X009521Y014630D02*
X008625Y014630D01*
X008676Y014531D02*
X009470Y014531D01*
X009470Y014433D02*
X008676Y014433D01*
X008676Y014334D02*
X009470Y014334D01*
X009470Y014236D02*
X008676Y014236D01*
X008592Y014137D02*
X009555Y014137D01*
X009653Y014039D02*
X008493Y014039D01*
X008593Y013743D02*
X009554Y013743D01*
X009455Y013645D02*
X008691Y013645D01*
X008790Y013546D02*
X009357Y013546D01*
X009294Y013448D02*
X008852Y013448D01*
X008852Y013349D02*
X009294Y013349D01*
X009294Y013251D02*
X008852Y013251D01*
X008852Y013152D02*
X009294Y013152D01*
X009294Y013054D02*
X008852Y013054D01*
X008825Y012955D02*
X009321Y012955D01*
X009420Y012857D02*
X008727Y012857D01*
X008628Y012758D02*
X009518Y012758D01*
X009617Y012660D02*
X008530Y012660D01*
X010183Y012660D02*
X010470Y012660D01*
X010470Y012758D02*
X010282Y012758D01*
X010380Y012857D02*
X010470Y012857D01*
X010650Y012857D02*
X011073Y012857D01*
X010975Y012955D02*
X010650Y012955D01*
X010650Y013054D02*
X010948Y013054D01*
X010948Y013152D02*
X010650Y013152D01*
X010650Y013251D02*
X010948Y013251D01*
X010948Y013349D02*
X010650Y013349D01*
X010650Y013448D02*
X010948Y013448D01*
X011010Y013546D02*
X010650Y013546D01*
X010650Y013645D02*
X011109Y013645D01*
X011207Y013743D02*
X010650Y013743D01*
X010470Y013743D02*
X010246Y013743D01*
X010345Y013645D02*
X010470Y013645D01*
X010470Y013546D02*
X010443Y013546D01*
X010650Y012758D02*
X011172Y012758D01*
X011270Y012660D02*
X010650Y012660D01*
X011998Y013645D02*
X016157Y013645D01*
X016255Y013743D02*
X011900Y013743D01*
X011604Y011576D02*
X011504Y011576D01*
X011504Y011478D02*
X011604Y011478D01*
X011604Y011379D02*
X011504Y011379D01*
X011504Y011281D02*
X011604Y011281D01*
X010445Y010690D02*
X010379Y010690D01*
X010445Y010591D02*
X010280Y010591D01*
X010182Y010493D02*
X010445Y010493D01*
X009618Y010493D02*
X008528Y010493D01*
X008627Y010591D02*
X009520Y010591D01*
X009421Y010690D02*
X008725Y010690D01*
X008824Y010788D02*
X009323Y010788D01*
X009294Y010887D02*
X008852Y010887D01*
X008852Y010985D02*
X009294Y010985D01*
X009294Y011084D02*
X008852Y011084D01*
X008852Y011182D02*
X009294Y011182D01*
X009294Y011281D02*
X008852Y011281D01*
X008791Y011379D02*
X009355Y011379D01*
X009454Y011478D02*
X008693Y011478D01*
X008594Y011576D02*
X009552Y011576D01*
X007768Y010690D02*
X005038Y010690D01*
X004940Y010788D02*
X007669Y010788D01*
X007866Y010591D02*
X005499Y010591D01*
X005597Y010493D02*
X007965Y010493D01*
X005195Y010099D02*
X005026Y010099D01*
X004732Y010910D02*
X003818Y010910D01*
X013325Y006356D02*
X013475Y006356D01*
X013482Y006257D02*
X013318Y006257D01*
X013325Y006159D02*
X013475Y006159D01*
X013475Y006060D02*
X013325Y006060D01*
X013325Y005962D02*
X013475Y005962D01*
X013475Y005863D02*
X013325Y005863D01*
X013325Y005765D02*
X013475Y005765D01*
X013475Y005666D02*
X013325Y005666D01*
X013262Y005568D02*
X013538Y005568D01*
X014262Y005568D02*
X014538Y005568D01*
X014475Y005666D02*
X014325Y005666D01*
X015262Y005568D02*
X015340Y005568D01*
X015340Y005666D02*
X015325Y005666D01*
X015412Y005469D02*
X005605Y005469D01*
X005605Y005371D02*
X016945Y005371D01*
X016945Y005469D02*
X015888Y005469D01*
X015960Y005568D02*
X016945Y005568D01*
X016689Y005666D02*
X015960Y005666D01*
X015960Y005765D02*
X016679Y005765D01*
X016679Y005863D02*
X015960Y005863D01*
X015960Y005962D02*
X016679Y005962D01*
X016679Y006060D02*
X015909Y006060D01*
X015325Y006159D02*
X016679Y006159D01*
X016679Y006257D02*
X015318Y006257D01*
X015325Y006356D02*
X016679Y006356D01*
X016945Y006454D02*
X015325Y006454D01*
X015325Y006553D02*
X015434Y006553D01*
X015366Y006651D02*
X015325Y006651D01*
X015330Y006750D02*
X015340Y006750D01*
X016889Y006553D02*
X016945Y006553D01*
X016939Y006651D02*
X016945Y006651D01*
X016939Y006750D02*
X016945Y006750D01*
X016939Y006848D02*
X016945Y006848D01*
X016939Y006947D02*
X016945Y006947D01*
X019455Y008030D02*
X019475Y008030D01*
X019475Y008129D02*
X019455Y008129D01*
X018600Y009015D02*
X018184Y009015D01*
X018210Y009114D02*
X018600Y009114D01*
X018600Y009212D02*
X018210Y009212D01*
X018210Y009311D02*
X018600Y009311D01*
X018600Y009409D02*
X018210Y009409D01*
X018210Y009508D02*
X018607Y009508D01*
X022268Y008227D02*
X022445Y008227D01*
X022445Y008129D02*
X022325Y008129D01*
X022325Y008030D02*
X022445Y008030D01*
X022445Y007932D02*
X022325Y007932D01*
X022325Y007833D02*
X022445Y007833D01*
X022445Y007735D02*
X022325Y007735D01*
X022325Y007636D02*
X022445Y007636D01*
X022445Y007538D02*
X022313Y007538D01*
X022325Y007439D02*
X022356Y007439D01*
X023605Y007439D02*
X024753Y007439D01*
X024720Y007341D02*
X023605Y007341D01*
X023605Y007242D02*
X024720Y007242D01*
X024739Y007144D02*
X023605Y007144D01*
X023605Y007045D02*
X024780Y007045D01*
X024870Y006947D02*
X023605Y006947D01*
X023195Y006750D02*
X019675Y006750D01*
X019774Y006651D02*
X023195Y006651D01*
X023195Y006553D02*
X021317Y006553D01*
X021325Y006454D02*
X023195Y006454D01*
X023195Y006356D02*
X021325Y006356D01*
X021325Y006257D02*
X023195Y006257D01*
X023195Y006159D02*
X021325Y006159D01*
X021325Y006060D02*
X023195Y006060D01*
X023195Y005962D02*
X021325Y005962D01*
X021325Y005863D02*
X023195Y005863D01*
X023195Y005765D02*
X021325Y005765D01*
X021325Y005666D02*
X023195Y005666D01*
X023153Y005568D02*
X021325Y005568D01*
X021325Y005469D02*
X023054Y005469D01*
X022956Y005371D02*
X021325Y005371D01*
X021325Y005272D02*
X022857Y005272D01*
X023141Y004977D02*
X024187Y004977D01*
X024285Y005075D02*
X023240Y005075D01*
X023338Y005174D02*
X024384Y005174D01*
X024482Y005272D02*
X023437Y005272D01*
X023535Y005371D02*
X024581Y005371D01*
X024679Y005469D02*
X023605Y005469D01*
X023605Y005568D02*
X024834Y005568D01*
X024933Y005666D02*
X023605Y005666D01*
X024766Y004977D02*
X024840Y004977D01*
X024939Y004878D02*
X024668Y004878D01*
X024569Y004780D02*
X026195Y004780D01*
X026195Y004878D02*
X025361Y004878D01*
X025460Y004977D02*
X026195Y004977D01*
X026195Y005075D02*
X025558Y005075D01*
X025580Y005174D02*
X026195Y005174D01*
X026195Y005272D02*
X025580Y005272D01*
X025580Y005371D02*
X026195Y005371D01*
X026195Y005469D02*
X025564Y005469D01*
X025466Y005568D02*
X026195Y005568D01*
X026195Y005666D02*
X025367Y005666D01*
X024088Y004878D02*
X023043Y004878D01*
X024274Y004484D02*
X024751Y004484D01*
X024849Y004583D02*
X024372Y004583D01*
X024471Y004681D02*
X024948Y004681D01*
X025352Y004681D02*
X026195Y004681D01*
X026195Y004583D02*
X025451Y004583D01*
X025549Y004484D02*
X026195Y004484D01*
X026195Y004386D02*
X025580Y004386D01*
X025580Y004287D02*
X026195Y004287D01*
X026195Y004189D02*
X025580Y004189D01*
X025573Y004090D02*
X026195Y004090D01*
X026195Y003992D02*
X025475Y003992D01*
X025376Y003893D02*
X026195Y003893D01*
X026195Y003795D02*
X022325Y003795D01*
X022325Y003696D02*
X024963Y003696D01*
X024864Y003598D02*
X022742Y003598D01*
X022841Y003499D02*
X024766Y003499D01*
X024720Y003401D02*
X022939Y003401D01*
X023038Y003302D02*
X024720Y003302D01*
X024720Y003204D02*
X023105Y003204D01*
X023105Y003105D02*
X024720Y003105D01*
X024810Y003007D02*
X023301Y003007D01*
X023325Y002908D02*
X024909Y002908D01*
X025391Y002908D02*
X025845Y002908D01*
X025944Y003007D02*
X025490Y003007D01*
X025580Y003105D02*
X026042Y003105D01*
X026141Y003204D02*
X025580Y003204D01*
X025580Y003302D02*
X026195Y003302D01*
X026195Y003401D02*
X025580Y003401D01*
X025534Y003499D02*
X026195Y003499D01*
X026195Y003598D02*
X025436Y003598D01*
X025337Y003696D02*
X026195Y003696D01*
X027355Y003696D02*
X029850Y003696D01*
X029850Y003598D02*
X027355Y003598D01*
X027355Y003499D02*
X029850Y003499D01*
X029850Y003401D02*
X027355Y003401D01*
X027355Y003302D02*
X029850Y003302D01*
X029850Y003204D02*
X027355Y003204D01*
X027355Y003105D02*
X029850Y003105D01*
X029850Y003007D02*
X027355Y003007D01*
X027355Y002908D02*
X029850Y002908D01*
X029850Y002810D02*
X027330Y002810D01*
X027232Y002711D02*
X029850Y002711D01*
X029850Y002613D02*
X027133Y002613D01*
X027035Y002514D02*
X029850Y002514D01*
X029850Y002416D02*
X026936Y002416D01*
X026838Y002317D02*
X029850Y002317D01*
X029850Y002219D02*
X026739Y002219D01*
X026641Y002120D02*
X029850Y002120D01*
X029850Y002022D02*
X026542Y002022D01*
X026444Y001923D02*
X029850Y001923D01*
X029850Y001825D02*
X026345Y001825D01*
X029850Y000741D02*
X000450Y000741D01*
X000450Y000643D02*
X029850Y000643D01*
X029850Y000544D02*
X000450Y000544D01*
X000450Y001234D02*
X013497Y001234D01*
X014303Y001234D02*
X014497Y001234D01*
X014475Y001332D02*
X014325Y001332D01*
X015303Y001234D02*
X015340Y001234D01*
X015340Y001332D02*
X015325Y001332D01*
X015784Y002120D02*
X016945Y002120D01*
X016945Y002219D02*
X016930Y002219D01*
X016939Y002317D02*
X016945Y002317D01*
X016939Y002416D02*
X016945Y002416D01*
X016939Y002514D02*
X016945Y002514D01*
X016945Y002613D02*
X016899Y002613D01*
X017855Y002613D02*
X017901Y002613D01*
X017878Y002711D02*
X017855Y002711D01*
X017855Y002810D02*
X017861Y002810D01*
X017855Y002908D02*
X017861Y002908D01*
X017855Y003007D02*
X017861Y003007D01*
X017855Y002514D02*
X017861Y002514D01*
X017855Y002416D02*
X017861Y002416D01*
X017855Y002317D02*
X017861Y002317D01*
X017855Y002219D02*
X017870Y002219D01*
X017855Y002120D02*
X018992Y002120D01*
X019308Y002120D02*
X019350Y002120D01*
X019448Y002022D02*
X018098Y002022D01*
X018121Y001923D02*
X019475Y001923D01*
X019475Y001825D02*
X018121Y001825D01*
X018121Y001726D02*
X019475Y001726D01*
X019475Y001628D02*
X018121Y001628D01*
X018121Y001529D02*
X019496Y001529D01*
X019475Y001431D02*
X019413Y001431D01*
X021325Y003105D02*
X021475Y003105D01*
X021475Y003204D02*
X021325Y003204D01*
X021325Y003302D02*
X021475Y003302D01*
X021475Y003401D02*
X021325Y003401D01*
X021325Y003499D02*
X021475Y003499D01*
X021475Y003598D02*
X021325Y003598D01*
X021325Y003696D02*
X021475Y003696D01*
X021475Y003795D02*
X021325Y003795D01*
X020475Y003795D02*
X020325Y003795D01*
X020325Y003696D02*
X020475Y003696D01*
X019475Y003696D02*
X019384Y003696D01*
X019442Y003795D02*
X019475Y003795D01*
X019460Y003893D02*
X024924Y003893D01*
X024825Y003992D02*
X019448Y003992D01*
X017776Y004484D02*
X013165Y004484D01*
X013263Y004386D02*
X017721Y004386D01*
X017622Y004287D02*
X015325Y004287D01*
X015325Y004189D02*
X015500Y004189D01*
X015800Y004189D02*
X017524Y004189D01*
X017425Y004090D02*
X016921Y004090D01*
X016939Y003992D02*
X017327Y003992D01*
X017228Y003893D02*
X016939Y003893D01*
X016939Y003795D02*
X017130Y003795D01*
X017031Y003696D02*
X016907Y003696D01*
X016914Y003598D02*
X016945Y003598D01*
X016939Y003499D02*
X016945Y003499D01*
X016939Y003401D02*
X016945Y003401D01*
X016939Y003302D02*
X016945Y003302D01*
X016945Y003204D02*
X016915Y003204D01*
X014475Y004287D02*
X014325Y004287D01*
X013475Y003893D02*
X013242Y003893D01*
X013475Y003795D02*
X012489Y003795D01*
X012496Y003893D02*
X012808Y003893D01*
X013475Y003696D02*
X005605Y003696D01*
X005605Y003598D02*
X013475Y003598D01*
X012787Y004386D02*
X012496Y004386D01*
X012496Y004484D02*
X012885Y004484D01*
X011054Y004484D02*
X010665Y004484D01*
X010763Y004386D02*
X011054Y004386D01*
X010385Y004484D02*
X005605Y004484D01*
X005605Y004386D02*
X010287Y004386D01*
X010308Y003893D02*
X005605Y003893D01*
X005605Y003795D02*
X011061Y003795D01*
X011054Y003893D02*
X010742Y003893D01*
X011522Y003460D02*
X011778Y003460D01*
X011883Y003355D01*
X011929Y003355D01*
X011929Y003499D01*
X011929Y003401D02*
X011838Y003401D01*
X011364Y003302D02*
X009282Y003302D01*
X009381Y003204D02*
X011340Y003204D01*
X011340Y003105D02*
X009431Y003105D01*
X009472Y003007D02*
X011355Y003007D01*
X011454Y002908D02*
X009486Y002908D01*
X009486Y002810D02*
X011929Y002810D01*
X011929Y002908D02*
X011846Y002908D01*
X016988Y005272D02*
X005605Y005272D01*
X005605Y005174D02*
X017087Y005174D01*
X017185Y005075D02*
X005605Y005075D01*
X005605Y004977D02*
X017284Y004977D01*
X017382Y004878D02*
X005605Y004878D01*
X005605Y004780D02*
X017481Y004780D01*
X017579Y004681D02*
X005605Y004681D01*
X005605Y004583D02*
X017678Y004583D01*
X017695Y004565D02*
X017695Y004565D01*
X020325Y006454D02*
X020475Y006454D01*
X020483Y006553D02*
X020317Y006553D01*
X020293Y006848D02*
X020507Y006848D01*
X020475Y006947D02*
X020325Y006947D01*
X023605Y007538D02*
X024804Y007538D01*
X024903Y007636D02*
X023605Y007636D01*
X023605Y007932D02*
X024720Y007932D01*
X024720Y008030D02*
X023605Y008030D01*
X023605Y008129D02*
X024720Y008129D01*
X024720Y008227D02*
X023605Y008227D01*
X023605Y008326D02*
X024720Y008326D01*
X024720Y008424D02*
X023605Y008424D01*
X023605Y008523D02*
X024720Y008523D01*
X024720Y008621D02*
X023605Y008621D01*
X027355Y006651D02*
X029850Y006651D01*
X029850Y006553D02*
X027355Y006553D01*
X027355Y006454D02*
X029850Y006454D01*
X029850Y006356D02*
X027355Y006356D01*
X027355Y006257D02*
X029850Y006257D01*
X029850Y006159D02*
X027355Y006159D01*
X027355Y006060D02*
X029850Y006060D01*
X029850Y005962D02*
X027355Y005962D01*
X027355Y005863D02*
X029850Y005863D01*
X029850Y005765D02*
X027355Y005765D01*
X027355Y005666D02*
X029850Y005666D01*
X029850Y005568D02*
X027355Y005568D01*
X027355Y005469D02*
X029850Y005469D01*
X029850Y005371D02*
X027355Y005371D01*
X027355Y005272D02*
X029850Y005272D01*
X029850Y005174D02*
X027355Y005174D01*
X027355Y005075D02*
X029850Y005075D01*
X029850Y004977D02*
X027355Y004977D01*
X027355Y004878D02*
X029850Y004878D01*
X029850Y004780D02*
X027355Y004780D01*
X027355Y004681D02*
X029850Y004681D01*
X029850Y004583D02*
X027355Y004583D01*
X027355Y004484D02*
X029850Y004484D01*
X029850Y004386D02*
X027355Y004386D01*
X027355Y004287D02*
X029850Y004287D01*
X029850Y004189D02*
X027355Y004189D01*
X027355Y004090D02*
X029850Y004090D01*
X029850Y003992D02*
X027355Y003992D01*
X027355Y003893D02*
X029850Y003893D01*
X029850Y003795D02*
X027355Y003795D01*
X012538Y005568D02*
X005605Y005568D01*
X005605Y005666D02*
X012475Y005666D01*
X005195Y003302D02*
X004926Y003302D01*
X005050Y003178D02*
X005080Y003105D01*
X016828Y012660D02*
X017957Y012660D01*
X017859Y012758D02*
X016927Y012758D01*
X017025Y012857D02*
X017760Y012857D01*
X017662Y012955D02*
X017124Y012955D01*
X017159Y013054D02*
X017631Y013054D01*
X017631Y013152D02*
X017159Y013152D01*
X017159Y013283D02*
X017159Y013475D01*
X016816Y013818D01*
X016623Y013818D01*
X016623Y013283D01*
X017159Y013283D01*
X017159Y013349D02*
X017631Y013349D01*
X017631Y013251D02*
X016623Y013251D01*
X016623Y013349D02*
X016523Y013349D01*
X016523Y013448D02*
X016623Y013448D01*
X016623Y013546D02*
X016523Y013546D01*
X016523Y013645D02*
X016623Y013645D01*
X016623Y013743D02*
X016523Y013743D01*
X016891Y013743D02*
X017895Y013743D01*
X017796Y013645D02*
X016990Y013645D01*
X017088Y013546D02*
X017698Y013546D01*
X017631Y013448D02*
X017159Y013448D01*
D26*
X018424Y008275D02*
X019150Y008275D01*
X016376Y006775D02*
X015650Y006775D01*
D27*
X015650Y006775D03*
X019150Y008275D03*
X019150Y003900D03*
X015650Y002400D03*
D28*
X025150Y006275D03*
X025150Y007275D03*
D29*
X025150Y005275D03*
X025150Y004275D03*
X025150Y003275D03*
X018227Y009900D03*
X016573Y009900D03*
X009900Y009900D03*
X008246Y009900D03*
X008246Y014400D03*
X009900Y014400D03*
X016573Y014400D03*
X018227Y014400D03*
D30*
X021400Y011400D03*
X023400Y011400D03*
X025400Y011400D03*
X026400Y011400D03*
X019150Y007775D03*
X019150Y007275D03*
X019150Y006775D03*
X015650Y007275D03*
X015650Y007775D03*
X015650Y008275D03*
X015650Y003900D03*
X015650Y003400D03*
X015650Y002900D03*
X019150Y002900D03*
X019150Y002400D03*
X019150Y003400D03*
X011650Y003150D03*
D31*
X010525Y004150D03*
X013025Y004150D03*
X006150Y010150D03*
D32*
X001400Y007650D03*
X001400Y001400D03*
X001400Y013900D03*
X028900Y013900D03*
X028900Y001400D03*
M02*
